<?xml version="1.0" encoding="UTF-8"?>
<svg version="1.1" xmlns="http://www.w3.org/2000/svg" width="1232" height="1008">
<path d="M0 0 C8.34321262 4.97383829 11.15129784 12.75871628 14.5625 21.5 C23.10186878 42.46000432 34.47557035 60.00735071 55.66796875 69.87109375 C71.66277803 76.47711937 92.17742682 76.38943555 108.25 69.9375 C116.77195558 65.95508492 123.61082209 60.54286206 130.25 53.9375 C130.93707031 53.28523438 131.62414062 52.63296875 132.33203125 51.9609375 C141.53047226 42.5629248 146.54030146 29.89466315 151.375 17.875 C154.30291874 10.62543267 157.24093939 4.06030348 164.1171875 -0.2265625 C169.29055788 -2.25422049 175.37375162 -1.66431552 180.5625 0 C186.44600048 4.24159337 190.89501441 9.6586518 192.25 16.9375 C194.77066319 45.13158456 178.96090835 73.41083462 161.81640625 94.875 C144.25353314 115.83282728 122.06851568 132.70927876 93.8671875 135.24121094 C90.42626875 135.37347747 87.00577947 135.40595137 83.5625 135.375 C82.33861572 135.36525146 81.11473145 135.35550293 79.85375977 135.34545898 C51.41829016 134.79275005 29.49170229 122.77366721 9.70751953 102.81567383 C-10.52363304 81.75666817 -29.00499247 49.69876352 -28.75 19.9375 C-28.2559986 12.9479057 -25.54398023 8.00673269 -20.75 2.9375 C-14.56618569 -2.1876068 -7.50871812 -2.12747013 0 0 Z " fill="#F6F4F4" transform="translate(533.75,274.0625)"/>
<path d="M0 0 C1.09561752 -0.00637985 2.19123505 -0.0127597 3.3200531 -0.01933289 C5.08567345 -0.02100212 5.08567345 -0.02100212 6.88696289 -0.02270508 C8.11185928 -0.02603348 9.33675568 -0.02936188 10.59877014 -0.03279114 C13.19360988 -0.0378526 15.78845611 -0.0401997 18.38330078 -0.04003906 C22.3136705 -0.04221094 26.24375273 -0.0603348 30.17407227 -0.0793457 C32.70336819 -0.08228286 35.23266544 -0.0842655 37.76196289 -0.08520508 C38.92082504 -0.09239059 40.07968719 -0.09957611 41.27366638 -0.10697937 C57.76167013 -0.06184764 72.03998384 2.13859228 84.38305664 13.87573242 C93.59516461 24.12905566 95.89527351 32.98495411 95.66821289 46.46166992 C94.88813369 58.13809351 89.23471197 68.36078387 80.73852539 76.32495117 C67.38537955 86.81831704 51.28108264 86.45151601 35.10961914 86.77026367 C33.48264773 86.80855681 31.85569412 86.84761455 30.22875977 86.88745117 C26.293362 86.98218015 22.35787034 87.06664452 18.42211914 87.14526367 C18.4337207 88.34538086 18.44532227 89.54549805 18.45727539 90.78198242 C18.53824177 103.27610614 18.09656409 115.66803207 17.42211914 128.14526367 C8.18211914 128.14526367 -1.05788086 128.14526367 -10.57788086 128.14526367 C-12.23821621 124.82459296 -11.71590953 121.10875272 -11.70727539 117.45825195 C-11.70902771 116.55683975 -11.71078003 115.65542755 -11.71258545 114.72669983 C-11.71701115 111.72297272 -11.71405711 108.71930397 -11.71069336 105.71557617 C-11.71136771 103.61074818 -11.71233884 101.50592026 -11.71359253 99.40109253 C-11.71507168 94.96392077 -11.71291357 90.52676905 -11.70825195 86.08959961 C-11.70264415 80.48650084 -11.70586067 74.88345051 -11.71170425 69.28035355 C-11.73169873 46.55131894 -11.72684293 23.85083117 -10.57788086 1.14526367 C-6.99279534 0.32718791 -3.67425606 0.0146002 0 0 Z M18.42211914 26.14526367 C18.42211914 37.36526367 18.42211914 48.58526367 18.42211914 60.14526367 C23.6726943 60.32994438 28.91183769 60.4887773 34.16308594 60.5847168 C35.94505146 60.62472834 37.726758 60.67915939 39.5078125 60.7487793 C51.64299807 61.55079373 51.64299807 61.55079373 62.08227539 56.23901367 C66.76649401 51.06555574 66.76397313 47.22327175 66.70336914 40.35229492 C66.22653972 34.915115 63.79534142 32.44806429 59.98461914 28.83276367 C55.18889785 25.67460575 50.07931392 26.00729598 44.49633789 26.04760742 C43.83299438 26.0486145 43.16965088 26.04962158 42.48620605 26.05065918 C40.02732596 26.05585944 37.56847067 26.06982054 35.10961914 26.08276367 C29.60274414 26.10338867 24.09586914 26.12401367 18.42211914 26.14526367 Z " fill="#F5F2F1" transform="translate(313.577880859375,468.854736328125)"/>
<path d="M0 0 C8.26768447 -0.04661632 16.5353128 -0.08201651 24.80309677 -0.10362434 C28.64335568 -0.11400202 32.48352379 -0.1280493 36.32373047 -0.15087891 C40.03904343 -0.17282442 43.75426979 -0.18461369 47.46964264 -0.18975449 C48.87761038 -0.19341172 50.2855741 -0.20055162 51.69350433 -0.21146011 C67.42179032 -0.32832534 81.15812955 0.86871248 93.1171875 11.98046875 C101.98334737 21.49043691 105.53178431 29.97958553 105.5 42.8125 C105.52835938 43.84181641 105.55671875 44.87113281 105.5859375 45.93164062 C105.61495008 57.39886279 100.92551829 64.66675258 93.19140625 72.80859375 C82.00703761 83.99296239 69.54382644 86.14465263 54.07421875 86.1953125 C50.94502829 86.1895717 47.81649072 86.15904918 44.6875 86.125 C43.06055245 86.11494009 41.4335988 86.10581961 39.80664062 86.09765625 C35.87093975 86.07590427 31.93553966 86.04154447 28 86 C28.00785522 87.54324951 28.00785522 87.54324951 28.01586914 89.11767578 C28.03403812 92.95311607 28.04547535 96.78855259 28.05493164 100.62402344 C28.05994473 102.28060548 28.06675689 103.93718313 28.07543945 105.59375 C28.08763793 107.98178189 28.09325867 110.36975502 28.09765625 112.7578125 C28.10281754 113.49242706 28.10797882 114.22704163 28.11329651 114.98391724 C28.11373917 119.08800981 27.97134729 123.00195753 27 127 C24.52657832 128.23671084 22.86140689 128.12931819 20.09765625 128.1328125 C19.12505859 128.13410156 18.15246094 128.13539063 17.15039062 128.13671875 C15.62188477 128.13091797 15.62188477 128.13091797 14.0625 128.125 C12.53979492 128.13080078 12.53979492 128.13080078 10.98632812 128.13671875 C9.52549805 128.13478516 9.52549805 128.13478516 8.03515625 128.1328125 C6.69529663 128.13112061 6.69529663 128.13112061 5.32836914 128.12939453 C3 128 3 128 0 127 C-1.08426036 120.85306643 -1.14137196 114.85237952 -1.12939453 108.62036133 C-1.13114685 107.49435013 -1.13289917 106.36833893 -1.13470459 105.20820618 C-1.1390933 101.49946536 -1.13619619 97.79077252 -1.1328125 94.08203125 C-1.13348625 91.50086966 -1.13445688 88.91970813 -1.13571167 86.33854675 C-1.13718448 80.93605891 -1.1351427 75.53358902 -1.13037109 70.13110352 C-1.12492141 63.88886477 -1.12669877 57.64665864 -1.1321975 51.40442067 C-1.13728327 45.38962657 -1.13674404 39.37484841 -1.13381577 33.36005211 C-1.13314803 30.80393151 -1.13396959 28.24781008 -1.13629532 25.69169044 C-1.13882914 22.12492271 -1.13497123 18.5582181 -1.12939453 14.99145508 C-1.13141876 13.93214783 -1.13344299 12.87284058 -1.13552856 11.78143311 C-1.13270874 10.8100087 -1.12988892 9.83858429 -1.12698364 8.83772278 C-1.12660662 7.99507779 -1.12622959 7.1524328 -1.12584114 6.28425312 C-1.00342789 4.06222264 -0.61810658 2.1324968 0 0 Z M29 26 C27.18831396 31.43505813 27.81532647 37.313143 27.8125 43 C27.80025391 44.29679688 27.78800781 45.59359375 27.77539062 46.9296875 C27.77345703 48.16976562 27.77152344 49.40984375 27.76953125 50.6875 C27.76542236 51.82574219 27.76131348 52.96398437 27.75708008 54.13671875 C27.78513842 57.20028206 27.78513842 57.20028206 30 60 C32.00301803 60.5236023 32.00301803 60.5236023 34.33203125 60.546875 C35.20706299 60.5878833 36.08209473 60.6288916 36.98364258 60.67114258 C38.383927 60.710177 38.383927 60.710177 39.8125 60.75 C41.23695435 60.79966919 41.23695435 60.79966919 42.69018555 60.8503418 C58.10689058 61.6936368 58.10689058 61.6936368 72 56 C76.62486872 51.13795853 77.35709691 47.07418536 77.28125 40.5703125 C76.71326915 35.37959865 74.25278632 32.16111903 70.4375 28.625 C66.00550754 25.67033836 61.96669746 25.86801417 56.83203125 25.90234375 C56.03721848 25.9037587 55.2424057 25.90517365 54.42350769 25.90663147 C51.88646675 25.91222622 49.34951425 25.92477772 46.8125 25.9375 C45.09179815 25.94251568 43.37109492 25.94707847 41.65039062 25.95117188 C37.4335597 25.96219393 33.21679484 25.97945494 29 26 Z " fill="#F5F4F4" transform="translate(419,624)"/>
<path d="M0 0 C7.39053248 5.89185592 15.28837257 16.23413302 17.65234375 25.44140625 C17.99288089 29.43076106 17.93667615 33.37898342 17.83984375 37.37890625 C17.81954102 38.97702148 17.81954102 38.97702148 17.79882812 40.60742188 C17.76369062 43.21931006 17.71184207 45.82999456 17.65234375 48.44140625 C8.96173821 49.40308697 0.31534279 49.64967038 -8.421875 49.7578125 C-9.84105454 49.77843861 -11.26022873 49.79943631 -12.67939758 49.82078552 C-16.376532 49.87542322 -20.07371634 49.92508419 -23.77093506 49.97363281 C-27.55892263 50.02427954 -31.34683961 50.07973794 -35.13476562 50.13476562 C-42.53900236 50.24163164 -49.94329866 50.34322888 -57.34765625 50.44140625 C-56.73865479 51.55596191 -56.12965332 52.67051758 -55.50219727 53.81884766 C-55.15963394 54.44578522 -54.81707062 55.07272278 -54.46412659 55.71865845 C-52.83854027 58.22698774 -50.88246142 59.39826979 -48.28515625 60.81640625 C-47.42792969 61.29851562 -46.57070313 61.780625 -45.6875 62.27734375 C-39.751914 65.23027301 -32.6448535 65.5117704 -26.21484375 63.91015625 C-22.27920971 62.2864866 -18.84921739 59.8288343 -15.34765625 57.44140625 C-12.13906702 56.37187651 -9.80930397 56.31217887 -6.4375 56.30859375 C-5.28314453 56.30730469 -4.12878906 56.30601562 -2.93945312 56.3046875 C-1.13057617 56.31048828 -1.13057617 56.31048828 0.71484375 56.31640625 C1.92462891 56.31253906 3.13441406 56.30867187 4.38085938 56.3046875 C5.53392578 56.30597656 6.68699219 56.30726563 7.875 56.30859375 C8.93468994 56.30972168 9.99437988 56.31084961 11.08618164 56.31201172 C13.65234375 56.44140625 13.65234375 56.44140625 15.65234375 57.44140625 C13.48188654 66.84672081 5.10150528 75.61226571 -2.66015625 81.06640625 C-16.48126761 89.70460085 -31.29921713 92.90384998 -47.41015625 89.37890625 C-62.01318157 85.19533683 -73.71378867 77.7461469 -81.34765625 64.44140625 C-87.61323805 50.5537765 -89.76948189 37.25952028 -84.671875 22.5390625 C-82.47355535 17.39668056 -79.67527375 12.92378219 -76.34765625 8.44140625 C-75.75082031 7.63703125 -75.15398438 6.83265625 -74.5390625 6.00390625 C-56.13436866 -16.64802463 -22.55583988 -14.97467573 0 0 Z M-54.34765625 21.37890625 C-56.31434031 24.39039122 -57.28524344 27.03125083 -58.34765625 30.44140625 C-42.24629412 31.46371496 -26.44345262 31.61200962 -10.34765625 30.44140625 C-11.08992763 23.87694372 -15.39905831 20.42330133 -20.34765625 16.44140625 C-31.1893494 10.23224985 -45.91521375 12.06142605 -54.34765625 21.37890625 Z " fill="#F6F3F3" transform="translate(731.34765625,509.55859375)"/>
<path d="M0 0 C0.8353125 0.32871094 1.670625 0.65742188 2.53125 0.99609375 C9.46486089 4.08839861 14.66214301 8.67139406 20 14 C20.58910156 14.5775 21.17820312 15.155 21.78515625 15.75 C32.05098051 26.67220688 33.3318035 41.16007536 33.1953125 55.44921875 C33.1924826 56.58784866 33.18965271 57.72647858 33.18673706 58.89961243 C33.17564393 62.49568707 33.15055997 66.09150209 33.125 69.6875 C33.11495615 72.1425745 33.10583277 74.59765295 33.09765625 77.05273438 C33.07745159 83.03533397 33.03828196 89.01738029 33 95 C24.75 95 16.5 95 8 95 C8 92.36 8 89.72 8 87 C7.16597656 87.54269531 6.33195312 88.08539062 5.47265625 88.64453125 C-6.87924767 96.56095364 -16.68869651 100.04773598 -31.625 97.34375 C-39.76491616 95.27306957 -46.25483296 91.95701873 -53 87 C-54.60875 85.8553125 -54.60875 85.8553125 -56.25 84.6875 C-65.44777703 75.69876336 -71.95387422 63.2316455 -72.29272461 50.26416016 C-72.4160125 36.53810792 -69.07996326 26.21907543 -61 15 C-59.948125 13.4221875 -59.948125 13.4221875 -58.875 11.8125 C-45.04178323 -3.78377381 -18.77785031 -7.52943024 0 0 Z M-41.59375 30.98046875 C-46.50179698 38.02896955 -46.73605265 44.64424743 -46 53 C-44.77432627 59.60317919 -40.94271784 64.57705209 -36 69 C-29.08556913 73.47631998 -22.16581696 74.84231923 -14 74 C-6.24373155 71.90739971 0.09845918 68.45590251 4.3125 61.4375 C7.98267467 53.96121827 8.39041368 45.19276947 6.234375 37.140625 C2.89710221 29.57300643 -3.29582103 23.89534291 -10.95703125 20.80859375 C-23.23850567 17.54509541 -33.77225618 21.0375792 -41.59375 30.98046875 Z " fill="#F6F4F4" transform="translate(487,502)"/>
<path d="M0 0 C11.76701497 8.06734214 18.95681935 18.25508741 23.25 31.8125 C24.35299341 37.77237593 24.39528916 43.60009455 24.3828125 49.63671875 C24.38376923 50.66054153 24.38472595 51.68436432 24.38571167 52.73921204 C24.38638953 54.89328066 24.38456282 57.04735137 24.38037109 59.20141602 C24.37500072 62.49955814 24.38033795 65.79756511 24.38671875 69.09570312 C24.38605822 71.19270863 24.38477759 73.28971406 24.3828125 75.38671875 C24.38483673 76.37218185 24.38686096 77.35764496 24.38894653 78.37297058 C24.38421829 79.75008965 24.38421829 79.75008965 24.37939453 81.1550293 C24.37859894 81.95998337 24.37780334 82.76493744 24.37698364 83.59428406 C24.24808985 85.84586747 24.05919923 87.70270464 23.25 89.8125 C20.30868109 90.79293964 18.42498335 90.92871202 15.36328125 90.91015625 C14.42548828 90.90693359 13.48769531 90.90371094 12.52148438 90.90039062 C11.05678711 90.88782227 11.05678711 90.88782227 9.5625 90.875 C8.57443359 90.87048828 7.58636719 90.86597656 6.56835938 90.86132812 C4.12888042 90.8495432 1.68943259 90.83160783 -0.75 90.8125 C-0.75 87.8425 -0.75 84.8725 -0.75 81.8125 C-1.6678125 82.42738281 -2.585625 83.04226563 -3.53125 83.67578125 C-14.88697371 91.20235741 -22.6311581 95.15499672 -36.75 93.8125 C-51.4447994 90.82972535 -63.49779291 83.55037466 -72.75 71.8125 C-80.89435167 58.91071273 -82.12977648 45.72426462 -80.75 30.8125 C-78.83588899 22.5237157 -74.3439947 16.0881159 -68.75 9.8125 C-68.17765625 9.12414062 -67.6053125 8.43578125 -67.015625 7.7265625 C-50.46602426 -10.73260756 -20.47477082 -12.12693038 0 0 Z M-49.625 24.625 C-54.72839672 30.97168363 -56.36407416 36.8755607 -56.09375 45.0078125 C-55.1776909 52.48202194 -52.20925478 58.0527339 -46.82421875 63.2421875 C-40.65838994 67.9101031 -36.4652242 69.46749188 -28.8125 69.3125 C-28.05259766 69.32796875 -27.29269531 69.3434375 -26.50976562 69.359375 C-19.58324876 69.31205465 -14.4680862 67.2242622 -9.2890625 62.62890625 C-8.65742187 61.88511719 -8.02578125 61.14132812 -7.375 60.375 C-6.72789062 59.63378906 -6.08078125 58.89257812 -5.4140625 58.12890625 C-0.70027305 51.56722281 -1.08500954 44.61334959 -1.75 36.8125 C-3.39646572 29.19499087 -7.49141475 23.42913955 -13.75 18.8125 C-18.72380859 16.23943056 -23.07183785 15.25899488 -28.625 15.3125 C-29.32681396 15.31894531 -30.02862793 15.32539062 -30.75170898 15.33203125 C-39.14418794 15.6270149 -43.97080233 18.68984841 -49.625 24.625 Z " fill="#F6F5F4" transform="translate(611.75,661.1875)"/>
<path d="M0 0 C0.74531982 0.00821777 1.49063965 0.01643555 2.25854492 0.02490234 C16.45331529 0.31197718 27.9693659 4.81524953 38.3671875 14.76171875 C50.01061788 27.59366538 51.79956779 40.96468571 51.72265625 57.625 C51.7212413 58.7900708 51.71982635 59.9551416 51.71836853 61.15551758 C51.71279916 64.8537052 51.70025231 68.55183087 51.6875 72.25 C51.68248104 74.76692621 51.67791883 77.28385337 51.67382812 79.80078125 C51.66369335 85.95056353 51.64411191 92.10021294 51.625 98.25 C43.375 98.25 35.125 98.25 26.625 98.25 C24.73047672 94.46095344 24.35935017 93.06955877 24.26196289 89.04174805 C24.21665184 87.48444221 24.21665184 87.48444221 24.17042542 85.89567566 C24.14641159 84.77896988 24.12239777 83.6622641 24.09765625 82.51171875 C24.02690568 80.14126968 23.95593527 77.77082715 23.88476562 75.40039062 C23.78385885 71.66782217 23.68744371 67.93520366 23.59594727 64.20239258 C23.50416668 60.59672687 23.39547267 56.99185804 23.28515625 53.38671875 C23.26316666 52.27608566 23.24117706 51.16545258 23.21852112 50.02116394 C22.98118879 42.56771073 22.23892934 37.35845651 17.3125 31.5 C11.94237049 27.00407762 6.60712313 25.03180865 -0.375 25.25 C-4.95817431 26.27093146 -9.26865471 27.97462252 -13.375 30.25 C-14.53422128 31.98142854 -14.53422128 31.98142854 -15.375 34.25 C-15.890625 35.343125 -16.40625 36.43625 -16.9375 37.5625 C-19.67484462 44.58438402 -19.61301794 51.91722271 -19.875 59.36328125 C-19.95830064 61.51888147 -20.04163495 63.67448039 -20.125 65.83007812 C-20.251342 69.21194753 -20.37614875 72.59386856 -20.5 75.97583008 C-20.62120505 79.25097043 -20.74786599 82.52586654 -20.875 85.80078125 C-20.91044922 86.8184407 -20.94589844 87.83610016 -20.98242188 88.88459778 C-21.01916016 89.82284897 -21.05589844 90.76110016 -21.09375 91.7277832 C-21.13918945 92.96852348 -21.13918945 92.96852348 -21.18554688 94.23432922 C-21.375 96.25 -21.375 96.25 -22.375 98.25 C-30.955 98.25 -39.535 98.25 -48.375 98.25 C-48.25368843 92.3315442 -48.13044624 86.41318539 -48.00268555 80.49487305 C-47.95995426 78.49066369 -47.91825079 76.4864321 -47.87768555 74.48217773 C-47.66896064 64.20312011 -47.42285371 53.92681452 -46.9453125 43.65625 C-46.9139772 42.88721848 -46.88264191 42.11818695 -46.85035706 41.32585144 C-46.3488669 31.5314668 -42.70942731 24.54195702 -36.375 17.25 C-35.80007813 16.58097656 -35.22515625 15.91195312 -34.6328125 15.22265625 C-25.15938844 4.98271032 -13.80839056 -0.18627988 0 0 Z " fill="#F6F3F3" transform="translate(809.375,498.75)"/>
<path d="M0 0 C5.56600521 4.54412144 9.91728967 8.52709489 12 15.6328125 C12 18.6028125 12 21.5728125 12 24.6328125 C3.09 24.6328125 -5.82 24.6328125 -15 24.6328125 C-15.99 22.6528125 -16.98 20.6728125 -18 18.6328125 C-21.45925459 16.1956104 -23.38337962 15.62218111 -27.625 15.6953125 C-31.31746598 16.72099749 -32.87673397 17.44791346 -35 20.6328125 C-35.16210219 23.23929755 -35.16210219 23.23929755 -34 25.6328125 C-30.68951335 28.74094666 -26.82602069 29.82678563 -22.5625 31.0703125 C-21.50385742 31.39334351 -21.50385742 31.39334351 -20.42382812 31.72290039 C-17.07391987 32.7416675 -13.71773997 33.70992943 -10.33984375 34.6328125 C-1.47019638 37.12253808 5.85694596 40.58771596 11.02734375 48.52734375 C14.18238901 55.35693971 14.71600678 63.0726591 12.8828125 70.32421875 C9.79179245 78.40737294 2.62545357 85.30504848 -5.00390625 89.14453125 C-17.60407695 94.54018717 -29.9812383 95.4931502 -43 90.6328125 C-52.08399613 86.73410171 -58.41273054 82.55622353 -63 73.6328125 C-64.74437513 68.81501453 -65 65.8992559 -65 60.6328125 C-56.42 60.3028125 -47.84 59.9728125 -39 59.6328125 C-37.35 62.2728125 -35.7 64.9128125 -34 67.6328125 C-30.21379904 69.6963529 -26.10165539 70.01773107 -21.8671875 69.2421875 C-18.81044767 68.14227275 -17.18554371 66.92226069 -15.4375 64.1953125 C-14.81995706 61.7051055 -14.81995706 61.7051055 -15.5859375 59.625 C-17.64529902 56.72368957 -19.83304784 56.29072117 -23.1875 55.1953125 C-23.80463867 54.98704834 -24.42177734 54.77878418 -25.05761719 54.56420898 C-28.32731465 53.46758375 -31.61747626 52.43914992 -34.91015625 51.4140625 C-47.54384899 47.44214847 -56.30887358 43.52132764 -63 31.6328125 C-65.31784449 24.67927904 -64.41869199 17.76853852 -61.44921875 11.15234375 C-56.57282768 2.67452101 -50.12113079 -2.95421536 -41 -6.3671875 C-40.35546875 -6.61082031 -39.7109375 -6.85445312 -39.046875 -7.10546875 C-25.86654924 -11.17586347 -10.98788763 -8.03893249 0 0 Z " fill="#F5F1F0" transform="translate(800,661.3671875)"/>
<path d="M0 0 C7.63700023 5.49540757 13.0232572 11.28201963 16.3125 20.25 C16.6875 23.8125 16.6875 23.8125 16.3125 26.25 C15.3125 27.25 15.3125 27.25 12.81225586 27.36352539 C11.72823486 27.35828857 10.64421387 27.35305176 9.52734375 27.34765625 C7.77260742 27.34282227 7.77260742 27.34282227 5.98242188 27.33789062 C4.75072266 27.32951172 3.51902344 27.32113281 2.25 27.3125 C0.39665039 27.30573242 0.39665039 27.30573242 -1.49414062 27.29882812 C-4.55864117 27.28699608 -7.62304721 27.27051173 -10.6875 27.25 C-11.6640625 25.45963542 -12.640625 23.66927083 -13.6171875 21.87890625 C-14.60160024 20.08381685 -14.60160024 20.08381685 -16.6875 19.25 C-18.30915752 19.12851695 -19.93634327 19.07456348 -21.5625 19.0625 C-22.42617188 19.04832031 -23.28984375 19.03414062 -24.1796875 19.01953125 C-26.844232 19.26440372 -28.43829729 19.82466255 -30.6875 21.25 C-31.7828531 23.04649965 -31.7828531 23.04649965 -31.6875 25.25 C-30.16816093 28.74558083 -29.16998604 30.02471469 -25.67578125 31.65625 C-24.46277344 32.0171875 -23.24976563 32.378125 -22 32.75 C-21.01555908 33.05562866 -21.01555908 33.05562866 -20.01123047 33.36743164 C-17.20581628 34.23336993 -14.38707056 35.04931804 -11.56494141 35.85888672 C9.6455688 41.95623283 9.6455688 41.95623283 15.3125 51.25 C18.47804097 59.32212947 18.15143121 67.71513234 15.4140625 75.86328125 C10.79028729 85.88146088 1.4904998 90.59663659 -8.29296875 94.453125 C-20.29007252 98.44563588 -32.92432116 96.61035393 -44.10546875 91.046875 C-50.85514674 87.04518974 -56.56069283 81.53334709 -59.6875 74.25 C-59.90112305 71.64135742 -59.90112305 71.64135742 -59.82421875 68.98046875 C-59.80447998 68.09125732 -59.78474121 67.2020459 -59.7644043 66.28588867 C-59.72633667 65.27812378 -59.72633667 65.27812378 -59.6875 64.25 C-55.60470499 64.07578883 -51.52286319 63.96917412 -47.4375 63.875 C-46.27863281 63.82472656 -45.11976563 63.77445313 -43.92578125 63.72265625 C-40.73991493 63.66741001 -37.82267178 63.67425175 -34.6875 64.25 C-32.0234375 67.18359375 -32.0234375 67.18359375 -30.6875 70.25 C-26.72238054 72.93228669 -22.57349567 72.37473268 -18.00390625 71.7890625 C-15.50518632 71.35069504 -15.50518632 71.35069504 -13.0625 69.5 C-11.57013182 67.30988173 -11.57013182 67.30988173 -11.0625 64.75 C-11.82004921 61.71980315 -12.9913341 60.95556506 -15.56982422 59.32519531 C-21.37164995 56.37946779 -27.84665587 54.73038398 -34.03515625 52.78125 C-43.97969551 49.50836366 -51.62862621 44.95963108 -57.6875 36.25 C-60.53117035 30.43340156 -60.69437009 23.77923535 -58.9296875 17.59375 C-55.9343668 9.76346281 -52.3379087 3.2591694 -44.6875 -0.75 C-29.97806338 -7.1622574 -14.10841787 -8.86814837 0 0 Z " fill="#F5F1F0" transform="translate(708.6875,658.75)"/>
<path d="M0 0 C1.21874139 0.97443206 1.21874139 0.97443206 2.46210382 1.96854962 C6.4337833 4.59520906 9.95387031 4.5582025 14.60633886 4.50320601 C15.46537527 4.50901279 16.32441169 4.51481956 17.20947951 4.52080229 C20.10166281 4.53544316 22.99300535 4.52150122 25.88518333 4.50780869 C27.98303549 4.51247392 30.08088435 4.51889272 32.17872638 4.52691096 C37.97559097 4.54393914 43.77219758 4.53591161 49.56906511 4.52400398 C55.8633227 4.51545185 62.15753238 4.530017 68.45177901 4.541713 C79.49370844 4.55901751 90.53555047 4.5615516 101.57748795 4.55419731 C113.42728082 4.54638222 125.27702544 4.5472687 137.1268158 4.55883217 C138.24875523 4.55991923 138.24875523 4.55991923 139.39336011 4.56102826 C143.20709213 4.56476369 147.02082399 4.56864126 150.83455581 4.57256903 C178.4512338 4.60072063 206.06789091 4.60952805 233.68458176 4.60811615 C261.03786513 4.60677432 288.39112608 4.61368722 315.74440384 4.63169098 C316.59357862 4.63224614 317.44275339 4.6328013 318.31766074 4.63337328 C326.07345085 4.63844813 333.8292409 4.64362486 341.58503086 4.64892386 C360.86591419 4.66209591 380.1467982 4.67398988 399.42768288 4.68501663 C400.30573667 4.68551982 401.18379047 4.686023 402.08845195 4.68654144 C444.81108143 4.71091283 487.53371256 4.7205596 530.25634766 4.72900391 C545.08390302 4.73194282 559.91145837 4.73494679 574.73901367 4.73822021 C576.11840464 4.73852464 576.11840464 4.73852464 577.5256621 4.73883522 C620.26733956 4.74835729 663.00901027 4.76833272 705.75068254 4.79100834 C708.52516556 4.79248009 711.29964858 4.79394733 714.07413161 4.79541365 C732.46062228 4.80513817 750.84711286 4.81504294 769.23360337 4.82506842 C805.81882509 4.8450154 842.40404734 4.8639032 878.98926999 4.88206346 C880.73159277 4.88292832 882.47391555 4.88379393 884.21623833 4.88466028 C962.66157122 4.92366016 1041.10690657 4.95033787 1119.55224609 4.97167969 C1120.65415104 4.97197959 1120.65415104 4.97197959 1121.7783167 4.97228555 C1158.51887761 4.9822756 1195.25943869 4.99156267 1232 5 C1232 6.32 1232 7.64 1232 9 C825.44 9 418.88 9 0 9 C0 6.03 0 3.06 0 0 Z " fill="#C8C6C1" transform="translate(0,999)"/>
<path d="M0 0 C9.4536047 6.14068458 15.68279022 13.60683372 18.53125 24.59375 C20.26816874 33.50993287 18.04779444 41.02530402 13.3125 48.625 C7.21605238 57.25034441 -1.19506227 63.4353363 -11.62109375 65.6796875 C-24.46426355 67.4089813 -36.11173142 65.64183792 -46.9375 58.3125 C-54.30402485 52.52221846 -59.12771284 45.23661668 -61 36 C-62.00345089 27.30342561 -60.41121569 18.97472177 -55.25 11.8125 C-54.18942562 10.52261223 -53.10571456 9.25140872 -52 8 C-51.19369141 7.05447266 -51.19369141 7.05447266 -50.37109375 6.08984375 C-38.88259662 -6.46487121 -14.4210389 -8.50410101 0 0 Z " fill="#F7F5F5" transform="translate(637,256)"/>
<path d="M0 0 C3.4374823 -0.02901394 6.87493312 -0.04680335 10.3125 -0.0625 C11.28896484 -0.07087891 12.26542969 -0.07925781 13.27148438 -0.08789062 C14.20927734 -0.09111328 15.14707031 -0.09433594 16.11328125 -0.09765625 C16.97735596 -0.10289307 17.84143066 -0.10812988 18.73168945 -0.11352539 C21 0 21 0 24 1 C25.43509221 3.87018441 25.11158506 6.33543723 25.09765625 9.5390625 C25.09443359 10.84101563 25.09121094 12.14296875 25.08789062 13.484375 C25.07953466 14.86458399 25.07106971 16.24479232 25.0625 17.625 C25.05748501 19.01301926 25.0529221 20.40104022 25.04882812 21.7890625 C25.03700976 25.19275132 25.02053434 28.59635439 25 32 C25.68102783 31.98952637 26.36205566 31.97905273 27.0637207 31.96826172 C30.14660966 31.92671122 33.22943971 31.90067689 36.3125 31.875 C37.38435547 31.85824219 38.45621094 31.84148437 39.56054688 31.82421875 C40.58857422 31.81777344 41.61660156 31.81132812 42.67578125 31.8046875 C43.62364502 31.79421387 44.57150879 31.78374023 45.5480957 31.77294922 C48 32 48 32 51 34 C51.35644531 36.04711914 51.35644531 36.04711914 51.328125 38.53515625 C51.32296875 39.42654297 51.3178125 40.31792969 51.3125 41.23632812 C51.291875 42.16896484 51.27125 43.10160156 51.25 44.0625 C51.24484375 44.99900391 51.2396875 45.93550781 51.234375 46.90039062 C51.15390339 53.84609661 51.15390339 53.84609661 50 55 C48.22130274 55.15764405 46.43681524 55.25100677 44.65234375 55.31640625 C43.57275391 55.35830078 42.49316406 55.40019531 41.38085938 55.44335938 C40.24455078 55.48267578 39.10824219 55.52199219 37.9375 55.5625 C36.22723633 55.62727539 36.22723633 55.62727539 34.48242188 55.69335938 C31.65507805 55.79982839 28.82764262 55.90184207 26 56 C25.85035197 60.3923615 25.74218674 64.78332766 25.67041016 69.17749023 C25.64045519 70.66831342 25.59967431 72.15896368 25.54736328 73.64916992 C25.268418 81.80695201 25.04015121 88.58314279 30.38330078 95.29003906 C35.46068005 100.66031457 39.7765119 103.66624212 46.86328125 106.04296875 C49 107 49 107 51 110 C51.24291992 112.16064453 51.24291992 112.16064453 51.23046875 114.6328125 C51.22853516 115.52097656 51.22660156 116.40914062 51.22460938 117.32421875 C51.20624023 118.71060547 51.20624023 118.71060547 51.1875 120.125 C51.18685547 121.05699219 51.18621094 121.98898437 51.18554688 122.94921875 C51.14028159 129.85971841 51.14028159 129.85971841 50 131 C36.79839368 132.72072219 24.78759143 126.76858624 14.46875 119.125 C5.11752994 111.07584856 -0.66290576 99.38231702 -1.79826355 87.21376038 C-2.23792046 80.20981058 -2.16487023 73.18702149 -2.16796875 66.171875 C-2.17118775 64.45176161 -2.17455229 62.73164848 -2.17805481 61.01153564 C-2.18401154 57.42435063 -2.18589802 53.8371896 -2.18530273 50.25 C-2.1852007 45.66142943 -2.19891099 41.07301214 -2.21607494 36.484478 C-2.22720203 32.93966975 -2.22922181 29.39489869 -2.22869301 25.85007477 C-2.22986981 24.15804765 -2.23427469 22.46601948 -2.24202538 20.7740097 C-2.25185032 18.41010249 -2.24893866 16.04653007 -2.24291992 13.68261719 C-2.24853943 12.99054169 -2.25415894 12.29846619 -2.25994873 11.5854187 C-2.23267125 7.35770377 -1.53736537 3.93363161 0 0 Z " fill="#F5F3F2" transform="translate(536,469)"/>
<path d="M0 0 C3.62484999 -0.08681476 7.24943443 -0.14032721 10.875 -0.1875 C12.42380859 -0.22520508 12.42380859 -0.22520508 14.00390625 -0.26367188 C14.99003906 -0.27333984 15.97617187 -0.28300781 16.9921875 -0.29296875 C17.90339355 -0.3086792 18.81459961 -0.32438965 19.75341797 -0.34057617 C20.49479004 -0.22818604 21.23616211 -0.1157959 22 0 C24.42204038 3.63306058 24.23302891 5.31819023 24.1953125 9.63671875 C24.18886719 10.93544922 24.18242188 12.23417969 24.17578125 13.57226562 C24.1590706 14.94401307 24.14214071 16.31575786 24.125 17.6875 C24.11496674 19.07095718 24.10584149 20.45442127 24.09765625 21.83789062 C24.07404967 25.22543452 24.04112037 28.61263072 24 32 C24.7113208 31.98952637 25.4226416 31.97905273 26.15551758 31.96826172 C29.37447586 31.92671999 32.59337776 31.90067961 35.8125 31.875 C36.93205078 31.85824219 38.05160156 31.84148437 39.20507812 31.82421875 C40.27822266 31.81777344 41.35136719 31.81132812 42.45703125 31.8046875 C43.9416687 31.78897705 43.9416687 31.78897705 45.45629883 31.77294922 C48 32 48 32 51 34 C51.34057617 36.15478516 51.34057617 36.15478516 51.29296875 38.7890625 C51.28172974 40.06064209 51.28172974 40.06064209 51.27026367 41.35791016 C51.24295166 42.4360498 51.21563965 43.51418945 51.1875 44.625 C51.125625 48.04875 51.06375 51.4725 51 55 C42.42 55.33 33.84 55.66 25 56 C23.6183459 79.17432284 23.6183459 79.17432284 33.125 99.3125 C38.46502598 102.44686307 44.12482113 105.04160704 50 107 C50 114.92 50 122.84 50 131 C34.70228135 131 23.04843817 127.86368434 11.75 117.25 C1.05732038 105.90927919 -2.15480366 92.90894498 -2.14526367 77.7355957 C-2.14862228 76.95241974 -2.1519809 76.16924377 -2.15544128 75.36233521 C-2.16486131 72.80013399 -2.16688928 70.23799865 -2.16796875 67.67578125 C-2.17118554 65.88315301 -2.17454993 64.09052504 -2.17805481 62.29789734 C-2.18402219 58.55332836 -2.18589697 54.80878238 -2.18530273 51.06420898 C-2.18520078 46.26922044 -2.19889764 41.47437887 -2.21607494 36.67942524 C-2.22719284 32.98281679 -2.22922207 29.28624405 -2.22869301 25.58962059 C-2.22987172 23.82140785 -2.23428738 22.05319414 -2.24202538 20.28499794 C-2.25182907 17.81530006 -2.24894671 15.34592382 -2.24291992 12.8762207 C-2.24853943 12.14935562 -2.25415894 11.42249054 -2.25994873 10.67359924 C-2.23516334 6.67401634 -1.76695878 3.6022787 0 0 Z " fill="#F6F4F4" transform="translate(878,469)"/>
<path d="M0 0 C7.59 0 15.18 0 23 0 C24.71972594 5.15917781 25.24894864 7.90251975 25.24291992 13.12841797 C25.24481827 13.8156041 25.24671661 14.50279022 25.24867249 15.21080017 C25.2523605 17.47138075 25.24169272 19.73163564 25.23046875 21.9921875 C25.22927425 23.58195966 25.22882436 25.17173254 25.2290802 26.76150513 C25.22751798 30.09528015 25.2192569 33.42894742 25.20581055 36.76269531 C25.18895983 40.9893991 25.18499264 45.21598317 25.18575573 49.4427166 C25.18548048 52.73059181 25.17994105 56.01844199 25.17275429 59.30630875 C25.16961814 60.86167334 25.16761236 62.41704072 25.16686058 63.97240829 C25.15636384 74.35194103 24.76211743 84.64811896 24 95 C20.86149936 95.92553743 18.06319222 96.11664647 14.796875 96.09765625 C13.8171875 96.09443359 12.8375 96.09121094 11.828125 96.08789062 C10.81234375 96.07951172 9.7965625 96.07113281 8.75 96.0625 C7.203125 96.05573242 7.203125 96.05573242 5.625 96.04882812 C3.08327427 96.03706088 0.54166681 96.02062011 -2 96 C-2.04636087 84.3690987 -2.08188833 72.73821941 -2.10362434 61.10724449 C-2.11405705 55.70639149 -2.128207 50.30560175 -2.15087891 44.90478516 C-2.17262541 39.69173181 -2.18457249 34.47873928 -2.18975449 29.26564407 C-2.19344698 27.27775744 -2.20065748 25.2898741 -2.21146011 23.3020134 C-2.22599895 20.51555971 -2.22797693 17.72935667 -2.22705078 14.94287109 C-2.23424133 14.12287628 -2.24143188 13.30288147 -2.24884033 12.45803833 C-2.246091 11.69251648 -2.24334167 10.92699463 -2.24050903 10.13827515 C-2.24235262 9.48011496 -2.24419621 8.82195477 -2.24609566 8.14385033 C-2 6 -2 6 0 0 Z " fill="#F6F5F5" transform="translate(606,501)"/>
<path d="M0 0 C2.97132267 1.53010419 4.85343772 3.26602349 6.828125 5.94140625 C8.70735763 11.91073342 9.01425093 17.10928388 6.140625 22.75390625 C2.33280545 27.09058962 -0.55088605 29.12331274 -6.421875 29.56640625 C-11.95003847 29.19161551 -14.86187501 27.45301735 -18.921875 23.75390625 C-22.01172749 19.74409768 -22.38303072 15.25830659 -22.109375 10.31640625 C-20.51666556 5.53827792 -18.21585487 3.15935385 -14.109375 0.31640625 C-9.93509507 -1.77073371 -4.37293482 -1.4171548 0 0 Z " fill="#F6F4F4" transform="translate(624.109375,462.68359375)"/>
<path d="M0 0 C7.59 0 15.18 0 23 0 C24.74593812 5.23781435 25.24547228 8.05851018 25.22705078 13.38232422 C25.22734283 14.09521103 25.22763489 14.80809784 25.22793579 15.54258728 C25.22655138 17.88008132 25.2110326 20.21724969 25.1953125 22.5546875 C25.1915792 24.18278835 25.18873372 25.81089146 25.18673706 27.43899536 C25.17912556 31.71006548 25.15949856 35.98099811 25.1373291 40.25201416 C25.11681703 44.61590719 25.1077239 48.97982258 25.09765625 53.34375 C25.07625018 61.8958962 25.04214442 70.44793097 25 79 C24.34 79 23.68 79 23 79 C23 83.95 23 88.9 23 94 C22.67 94 22.34 94 22 94 C22 63.31 22 32.62 22 1 C14.74 1 7.48 1 0 1 C0 0.67 0 0.34 0 0 Z " fill="#F7DCD9" transform="translate(606,501)"/>
<path d="M0 0 C2 2 2 2 2.22705078 4.33837891 C2.21657715 5.29147949 2.20610352 6.24458008 2.1953125 7.2265625 C2.18886719 8.2578125 2.18242188 9.2890625 2.17578125 10.3515625 C2.15064453 11.97191406 2.15064453 11.97191406 2.125 13.625 C2.11597656 14.71296875 2.10695313 15.8009375 2.09765625 16.921875 C2.07403399 19.61481234 2.03940453 22.30726092 2 25 C-6.69060554 25.96168072 -15.33700096 26.20826413 -24.07421875 26.31640625 C-25.49339829 26.33703236 -26.91257248 26.35803006 -28.33174133 26.37937927 C-32.02887575 26.43401697 -35.72606009 26.48367794 -39.42327881 26.53222656 C-43.21126638 26.58287329 -46.99918336 26.63833169 -50.78710938 26.69335938 C-58.19134611 26.80022539 -65.59564241 26.90182263 -73 27 C-72.67 28.32 -72.34 29.64 -72 31 C-72.99 30.67 -73.98 30.34 -75 30 C-74.67 28.02 -74.34 26.04 -74 24 C-64.51652557 23.86945544 -55.03304913 23.73905757 -45.54957008 23.60884857 C-41.14632697 23.54838701 -36.74308457 23.48787434 -32.33984375 23.42724609 C-28.09291113 23.36877192 -23.84597671 23.31043038 -19.59904099 23.25218201 C-17.97628082 23.22990167 -16.35352132 23.20757301 -14.73076248 23.18519592 C-12.46325093 23.15393613 -10.19573711 23.12284598 -7.92822266 23.09179688 C-5.98962875 23.06514954 -5.98962875 23.06514954 -4.01187134 23.03796387 C-2.34133233 23.01690715 -0.67067171 23 1 23 C0.67 15.41 0.34 7.82 0 0 Z " fill="#FCEBEA" transform="translate(747,533)"/>
<path d="M0 0 C15.51 0 31.02 0 47 0 C40.464095 3.2679525 33.73096661 3.14873855 26.5625 3.09765625 C25.79695801 3.0962413 25.03141602 3.09482635 24.24267578 3.09336853 C21.82840858 3.08782853 19.41423856 3.07528779 17 3.0625 C15.35026177 3.05747723 13.70052206 3.05291569 12.05078125 3.04882812 C8.03378777 3.03873518 4.01700102 3.01914884 0 3 C0 14.22 0 25.44 0 37 C-0.66 37 -1.32 37 -2 37 C-1.88189912 32.0519151 -1.7576616 27.10403724 -1.62768555 22.15625 C-1.58432183 20.47237358 -1.5426478 18.78845277 -1.50268555 17.10449219 C-1.44501766 14.68671276 -1.3813135 12.26915705 -1.31640625 9.8515625 C-1.29969376 9.0963028 -1.28298126 8.34104309 -1.26576233 7.56289673 C-1.11387171 2.22774341 -1.11387171 2.22774341 0 0 Z " fill="#F6D7D5" transform="translate(447,707)"/>
<path d="M0 0 C0.33 0 0.66 0 1 0 C1.02888146 3.31248187 1.04675799 6.62493167 1.0625 9.9375 C1.07087891 10.88302734 1.07925781 11.82855469 1.08789062 12.80273438 C1.09272461 14.15141602 1.09272461 14.15141602 1.09765625 15.52734375 C1.10551147 16.77632446 1.10551147 16.77632446 1.11352539 18.05053711 C1 20 1 20 0 21 C-1.77869726 21.15764405 -3.56318476 21.25100677 -5.34765625 21.31640625 C-6.42724609 21.35830078 -7.50683594 21.40019531 -8.61914062 21.44335938 C-9.75544922 21.48267578 -10.89175781 21.52199219 -12.0625 21.5625 C-13.77276367 21.62727539 -13.77276367 21.62727539 -15.51757812 21.69335938 C-18.34492195 21.79982839 -21.17235738 21.90184207 -24 22 C-23.99476318 22.66008057 -23.98952637 23.32016113 -23.98413086 24.00024414 C-23.96321049 27.02098622 -23.9502922 30.041713 -23.9375 33.0625 C-23.92912109 34.10083984 -23.92074219 35.13917969 -23.91210938 36.20898438 C-23.89503558 41.58723069 -24.04584848 46.70333211 -25 52 C-25.33 52 -25.66 52 -26 52 C-27.05728087 45.14016191 -27.11639843 38.43216776 -27.0625 31.5 C-27.05798828 30.39140625 -27.05347656 29.2828125 -27.04882812 28.140625 C-27.03713158 25.42702601 -27.02074086 22.71354239 -27 20 C-23.79217914 19.04623433 -20.91812604 18.88378819 -17.578125 18.90234375 C-16.55332031 18.90556641 -15.52851562 18.90878906 -14.47265625 18.91210938 C-13.40917969 18.92048828 -12.34570312 18.92886719 -11.25 18.9375 C-10.17105469 18.94201172 -9.09210937 18.94652344 -7.98046875 18.95117188 C-5.32028875 18.96294258 -2.66013731 18.98087761 0 19 C0 12.73 0 6.46 0 0 Z " fill="#F7E6E5" transform="translate(586,503)"/>
<path d="M0 0 C1.98 0 3.96 0 6 0 C5.01 0.66 4.02 1.32 3 2 C2.319375 2.53625 1.63875 3.0725 0.9375 3.625 C-1 5 -1 5 -3 5 C-8.07325373 14.75625717 -9.12337807 23.3645695 -9.53515625 34.18359375 C-9.57813339 35.23909927 -9.62111053 36.2946048 -9.66539001 37.38209534 C-9.80109708 40.73377265 -9.93186983 44.08562137 -10.0625 47.4375 C-10.15397056 49.71811207 -10.24576393 51.99871122 -10.33789062 54.27929688 C-10.5623316 59.85272039 -10.78272808 65.42629265 -11 71 C-11.33 71 -11.66 71 -12 71 C-12.10215385 63.81425237 -12.17177946 56.62869481 -12.21972656 49.44238281 C-12.23973329 47.00220746 -12.26694745 44.56207938 -12.30175781 42.12207031 C-12.35075874 38.59688589 -12.37307916 35.07234011 -12.390625 31.546875 C-12.41127014 30.4713739 -12.43191528 29.3958728 -12.45318604 28.28778076 C-12.45543334 20.55059275 -10.83341525 14.1846383 -8 7 C-7.01 7 -6.02 7 -5 7 C-4.67 5.35 -4.34 3.7 -4 2 C-2.68 2 -1.36 2 0 2 C0 1.34 0 0.68 0 0 Z " fill="#F3CDC8" transform="translate(799,524)"/>
<path d="M0 0 C0 0.66 0 1.32 0 2 C-19.305 1.505 -19.305 1.505 -39 1 C-39 11.89 -39 22.78 -39 34 C-39.99 34 -40.98 34 -42 34 C-42.07405887 29.33694962 -42.12855763 24.67424016 -42.16479492 20.01074219 C-42.17989814 18.42376749 -42.20038223 16.83683463 -42.22631836 15.25 C-42.26263595 12.97124927 -42.27971023 10.69304942 -42.29296875 8.4140625 C-42.30845261 7.70255035 -42.32393646 6.99103821 -42.33988953 6.25796509 C-42.34057617 4.25634766 -42.34057617 4.25634766 -42 1 C-32.55605528 -5.29596315 -11.06828644 -0.4901856 0 0 Z " fill="#FAD9D7" transform="translate(487,649)"/>
<path d="M0 0 C0.33 0 0.66 0 1 0 C1 6.6 1 13.2 1 20 C-7.58 20.33 -16.16 20.66 -25 21 C-25.64548624 40.26250721 -25.64548624 40.26250721 -22 59 C-22.99 58.67 -23.98 58.34 -25 58 C-27.19488132 49.37725196 -28.29950195 41.21291561 -28.3125 32.3125 C-28.31765625 31.45172852 -28.3228125 30.59095703 -28.328125 29.70410156 C-28.27839896 25.21987807 -28.08923324 23.17846649 -26 19 C-17.42 19 -8.84 19 0 19 C0 12.73 0 6.46 0 0 Z " fill="#F8D6D5" transform="translate(928,504)"/>
<path d="M0 0 C0.33 0 0.66 0 1 0 C1.02535418 6.33544053 1.04286866 12.67086797 1.05493164 19.00634766 C1.05996052 21.16162607 1.06678442 23.31690107 1.07543945 25.47216797 C1.08756821 28.56999554 1.09324278 31.66777801 1.09765625 34.765625 C1.10281754 35.72929993 1.10797882 36.69297485 1.11329651 37.68585205 C1.11337204 38.58648376 1.11344757 39.48711548 1.11352539 40.41503906 C1.115746 41.20557678 1.11796661 41.9961145 1.12025452 42.81060791 C0.99704894 45.05372793 0.80535792 46.89791668 0 49 C-2.94131891 49.98043964 -4.82501665 50.11621202 -7.88671875 50.09765625 C-8.82451172 50.09443359 -9.76230469 50.09121094 -10.72851562 50.08789062 C-12.19321289 50.07532227 -12.19321289 50.07532227 -13.6875 50.0625 C-14.67556641 50.05798828 -15.66363281 50.05347656 -16.68164062 50.04882812 C-19.12111958 50.0370432 -21.56056741 50.01910783 -24 50 C-24 47.03 -24 44.06 -24 41 C-24.598125 41.515625 -25.19625 42.03125 -25.8125 42.5625 C-26.534375 43.036875 -27.25625 43.51125 -28 44 C-28.99 43.67 -29.98 43.34 -31 43 C-29.515 42.505 -29.515 42.505 -28 42 C-28 41.01 -28 40.02 -28 39 C-26.35 39 -24.7 39 -23 39 C-23 41.97 -23 44.94 -23 48 C-15.74 48 -8.48 48 -1 48 C-0.67 32.16 -0.34 16.32 0 0 Z " fill="#F6D4CD" transform="translate(635,702)"/>
<path d="M0 0 C-11.52289817 7.72359118 -23.20985696 11.1253312 -37.09375 8.390625 C-41.53481616 7.22066671 -45.75265417 5.74444561 -50 4 C-50 3.67 -50 3.34 -50 3 C-43.79100145 3.80986938 -43.79100145 3.80986938 -40.87109375 4.51171875 C-35.45775749 5.80322537 -30.23246471 6.24122472 -24.6875 6.3125 C-24.0056665 6.32998291 -23.32383301 6.34746582 -22.62133789 6.36547852 C-18.15317567 6.3605316 -15.63863725 5.5167241 -12 3 C-10.2888172 2.20982863 -8.55920469 1.45819494 -6.8125 0.75 C-5.95269531 0.39421875 -5.09289062 0.0384375 -4.20703125 -0.328125 C-2 -1 -2 -1 0 0 Z " fill="#FAE0DE" transform="translate(802,746)"/>
<path d="M0 0 C0.81380127 -0.02126953 1.62760254 -0.04253906 2.46606445 -0.06445312 C4.7734375 -0.078125 4.7734375 -0.078125 8.625 0.25 C9.615 1.24 10.605 2.23 11.625 3.25 C-0.915 2.92 -13.455 2.59 -26.375 2.25 C-26.375 13.14 -26.375 24.03 -26.375 35.25 C-26.705 35.25 -27.035 35.25 -27.375 35.25 C-27.375 24.03 -27.375 12.81 -27.375 1.25 C-18.249158 0.6260108 -9.14731518 0.12002266 0 0 Z " fill="#F4BFBC" transform="translate(358.375,492.75)"/>
<path d="M0 0 C20.79 0 41.58 0 63 0 C63 0.33 63 0.66 63 1 C32.31 1.495 32.31 1.495 1 2 C1.33 3.32 1.66 4.64 2 6 C1.01 5.67 0.02 5.34 -1 5 C-0.67 3.35 -0.34 1.7 0 0 Z " fill="#EBAFAB" transform="translate(673,558)"/>
<path d="M0 0 C1.4540625 0.0309375 1.4540625 0.0309375 2.9375 0.0625 C2.9375 0.3925 2.9375 0.7225 2.9375 1.0625 C1.2875 1.0625 -0.3625 1.0625 -2.0625 1.0625 C-2.05726318 1.72258057 -2.05202637 2.38266113 -2.04663086 3.06274414 C-2.02571049 6.08348622 -2.0127922 9.104213 -2 12.125 C-1.99162109 13.16333984 -1.98324219 14.20167969 -1.97460938 15.27148438 C-1.95753558 20.64973069 -2.10834848 25.76583211 -3.0625 31.0625 C-3.3925 31.0625 -3.7225 31.0625 -4.0625 31.0625 C-5.57985195 21.19971232 -5.73777156 10.92798805 -4.0625 1.0625 C-3.0625 0.0625 -3.0625 0.0625 0 0 Z " fill="#EFB1AE" transform="translate(564.0625,523.9375)"/>
<path d="M0 0 C1.20849609 0.00644531 2.41699219 0.01289062 3.66210938 0.01953125 C5.55606445 0.04466797 5.55606445 0.04466797 7.48828125 0.0703125 C8.76251953 0.07933594 10.03675781 0.08835937 11.34960938 0.09765625 C14.50018752 0.12125609 17.65039108 0.15418056 20.80078125 0.1953125 C11.74370333 4.93269618 0.64429361 3.0587785 -9.19921875 2.1953125 C-5.6590865 -0.16477567 -4.1879992 -0.03932394 0 0 Z " fill="#FAEAE6" transform="translate(359.19921875,551.8046875)"/>
<path d="M0 0 C2.77239276 2.3943392 4.00264054 4.47088191 5 8 C5 10.97 5 13.94 5 17 C-3.91 17 -12.82 17 -22 17 C-22 16.34 -22 15.68 -22 15 C-9.13 15.495 -9.13 15.495 4 16 C2.78890831 10.55008738 1.5849657 5.32095628 0 0 Z " fill="#F6C9C9" transform="translate(807,669)"/>
<path d="M0 0 C3.53463384 3.53463384 2.36935132 8.84056789 2.375 13.625 C2.39949219 14.69363281 2.42398438 15.76226563 2.44921875 16.86328125 C2.47454827 23.72758202 1.59667792 28.12874315 -2 34 C-2.95520409 30.63782113 -2.90247494 29.23976163 -1.5625 26 C1.19183415 17.71195814 0.24473421 8.62217448 0 0 Z " fill="#FBE9E6" transform="translate(522,653)"/>
<path d="M0 0 C0.66 0 1.32 0 2 0 C0.49966419 5.16602115 -1.78982291 9.54657973 -4.4375 14.1875 C-4.83259766 14.89841797 -5.22769531 15.60933594 -5.63476562 16.34179688 C-7.50663568 19.65260863 -9.20413167 22.38241022 -12 25 C-12 23.35 -12 21.7 -12 20 C-11.34 20 -10.68 20 -10 20 C-9.7525 19.34 -9.505 18.68 -9.25 18 C-7.68182955 14.23639093 -5.85494954 10.6288576 -4 7 C-3.34 7 -2.68 7 -2 7 C-2 5.68 -2 4.36 -2 3 C-1.34 3 -0.68 3 0 3 C0 2.01 0 1.02 0 0 Z " fill="#FBDAD9" transform="translate(714,334)"/>
<path d="M0 0 C0.99 0.33 1.98 0.66 3 1 C1.43979133 1.65134925 -0.12328579 2.29582964 -1.6875 2.9375 C-2.55761719 3.29714844 -3.42773438 3.65679688 -4.32421875 4.02734375 C-9.23805066 5.81353958 -13.59441509 6.11520793 -18.8125 6.0625 C-19.97394531 6.05347656 -21.13539063 6.04445313 -22.33203125 6.03515625 C-23.21246094 6.02355469 -24.09289062 6.01195312 -25 6 C-22.03145836 4.02097224 -20.80708065 3.64142191 -17.40234375 3.18359375 C-16.07686523 2.99700195 -16.07686523 2.99700195 -14.72460938 2.80664062 C-13.80486328 2.68482422 -12.88511719 2.56300781 -11.9375 2.4375 C-10.11286917 2.1892076 -8.28862604 1.93804402 -6.46484375 1.68359375 C-5.656521 1.57587646 -4.84819824 1.46815918 -4.01538086 1.35717773 C-1.93815732 1.08752372 -1.93815732 1.08752372 0 0 Z " fill="#F4DBD7" transform="translate(705,749)"/>
<path d="M0 0 C1.77007714 -0.08114106 3.54122098 -0.13925505 5.3125 -0.1875 C6.29863281 -0.22230469 7.28476562 -0.25710938 8.30078125 -0.29296875 C11 0 11 0 12.85546875 1.51171875 C13.23316406 2.00285156 13.61085938 2.49398437 14 3 C13.41992188 2.89300781 12.83984375 2.78601563 12.2421875 2.67578125 C8.19481618 2.05465001 5.47529119 1.85571517 1.5 3.0625 C-1.24988609 4.82275597 -1.24988609 4.82275597 -2 8 C-2.2773501 11.18490007 -2.2773501 11.18490007 0 14 C-1.32 13.34 -2.64 12.68 -4 12 C-4 8.7 -4 5.4 -4 2 C-2.68 2 -1.36 2 0 2 C0 1.34 0 0.68 0 0 Z " fill="#E9A29E" transform="translate(767,675)"/>
<path d="M0 0 C1.98 0 3.96 0 6 0 C5.01 0.66 4.02 1.32 3 2 C2.319375 2.53625 1.63875 3.0725 0.9375 3.625 C-1 5 -1 5 -3 5 C-4.86551426 8.58752742 -6.42535928 12.27812193 -8 16 C-8.33 16 -8.66 16 -9 16 C-9.125 9.25 -9.125 9.25 -8 7 C-7.01 7 -6.02 7 -5 7 C-4.67 5.35 -4.34 3.7 -4 2 C-2.68 2 -1.36 2 0 2 C0 1.34 0 0.68 0 0 Z " fill="#EBAEAC" transform="translate(799,524)"/>
<path d="M0 0 C0.66 0.33 1.32 0.66 2 1 C-3.22123894 7.86219975 -3.22123894 7.86219975 -8 9 C-12.5756065 9.32682904 -15.86258884 9.00601753 -20 7 C-20 6.67 -20 6.34 -20 6 C-18.75283203 6.03480469 -18.75283203 6.03480469 -17.48046875 6.0703125 C-16.39378906 6.08835937 -15.30710937 6.10640625 -14.1875 6.125 C-13.10855469 6.14820313 -12.02960937 6.17140625 -10.91796875 6.1953125 C-7.80597132 6.23023717 -7.80597132 6.23023717 -5 4 C-4.01 4 -3.02 4 -2 4 C-1.34 2.68 -0.68 1.36 0 0 Z " fill="#F4CCCB" transform="translate(629,483)"/>
<path d="M0 0 C-3.37210264 2.9348225 -6.65946827 3.99586043 -10.9375 5.1875 C-12.14277344 5.53167969 -13.34804688 5.87585938 -14.58984375 6.23046875 C-17.55468563 6.89951096 -19.98398965 7.16596641 -23 7 C-23 6.34 -23 5.68 -23 5 C-22.443125 4.89042969 -21.88625 4.78085937 -21.3125 4.66796875 C-17.32873921 3.84026169 -13.58490129 2.91460672 -9.8125 1.375 C-6.44183292 0.03078607 -3.657391 -0.27430432 0 0 Z " fill="#F9DCDA" transform="translate(654,401)"/>
<path d="M0 0 C1.06347656 0.01546875 2.12695312 0.0309375 3.22265625 0.046875 C5.9375 0.25 5.9375 0.25 7.9375 1.25 C7.9375 1.91 7.9375 2.57 7.9375 3.25 C8.5975 3.58 9.2575 3.91 9.9375 4.25 C9.15246094 4.1778125 8.36742187 4.105625 7.55859375 4.03125 C1.99656373 3.53988048 -3.47881878 3.12309815 -9.0625 3.25 C-6.43453244 -0.22953893 -4.20494605 -0.10218581 0 0 Z " fill="#F8DBD9" transform="translate(811.0625,520.75)"/>
<path d="M0 0 C0.99 0.33 1.98 0.66 3 1 C6.38616749 1.26867576 9.77189532 1.4451204 13.1640625 1.62109375 C14.09992187 1.74613281 15.03578125 1.87117187 16 2 C16.33 2.66 16.66 3.32 17 4 C10.29481414 4.19818283 4.34823202 4.30844801 -2 2 C-1.34 1.34 -0.68 0.68 0 0 Z " fill="#F8DDD2" transform="translate(911,596)"/>
<path d="M0 0 C0.66 0 1.32 0 2 0 C0.44997253 3.88397689 -2.00476621 6.02979619 -5.125 8.75 C-6.49011719 9.94882812 -6.49011719 9.94882812 -7.8828125 11.171875 C-8.58148437 11.77515625 -9.28015625 12.3784375 -10 13 C-10.33 12.34 -10.66 11.68 -11 11 C-9.6875 9 -9.6875 9 -8 7 C-7.01 7 -6.02 7 -5 7 C-4.67 6.01 -4.34 5.02 -4 4 C-3.34 4 -2.68 4 -2 4 C-2 3.34 -2 2.68 -2 2 C-1.34 2 -0.68 2 0 2 C0 1.34 0 0.68 0 0 Z " fill="#F4D5D5" transform="translate(687,375)"/>
<path d="M0 0 C0.99 0.33 1.98 0.66 3 1 C0.9007236 2.3416203 -1.2037832 3.67336839 -3.3125 5 C-3.90740234 5.3815625 -4.50230469 5.763125 -5.11523438 6.15625 C-9.66015625 9 -9.66015625 9 -13 9 C-13 8.34 -13 7.68 -13 7 C-11.73308493 6.32591692 -10.46129251 5.66099503 -9.1875 5 C-8.47980469 4.62875 -7.77210938 4.2575 -7.04296875 3.875 C-5 3 -5 3 -2 3 C-2 2.34 -2 1.68 -2 1 C-1.34 0.67 -0.68 0.34 0 0 Z " fill="#FADEDB" transform="translate(667,392)"/>
<path d="M0 0 C0.97582031 0.00902344 1.95164062 0.01804687 2.95703125 0.02734375 C3.69308594 0.03894531 4.42914062 0.05054688 5.1875 0.0625 C5.1875 0.3925 5.1875 0.7225 5.1875 1.0625 C4.27226563 1.14886719 3.35703125 1.23523438 2.4140625 1.32421875 C1.22554687 1.46472656 0.03703125 1.60523438 -1.1875 1.75 C-2.37085938 1.87761719 -3.55421875 2.00523437 -4.7734375 2.13671875 C-7.99061643 2.73493465 -7.99061643 2.73493465 -9.1640625 5.45703125 C-9.37804687 6.31683594 -9.59203125 7.17664063 -9.8125 8.0625 C-10.1425 9.0525 -10.4725 10.0425 -10.8125 11.0625 C-11.76274979 7.36708414 -11.76274979 4.75791586 -10.8125 1.0625 C-7.13862505 0.20951624 -3.7677607 -0.04539471 0 0 Z " fill="#EA8B89" transform="translate(686.8125,675.9375)"/>
<path d="M0 0 C0.66 0.33 1.32 0.66 2 1 C0.92173635 2.27513763 -0.16285519 3.54492569 -1.25 4.8125 C-1.85328125 5.52019531 -2.4565625 6.22789062 -3.078125 6.95703125 C-4.92370398 8.91889671 -6.79945332 10.45669625 -9 12 C-7.55575365 8.76138697 -5.74227753 6.38030837 -3.375 3.75 C-2.74335937 3.04359375 -2.11171875 2.3371875 -1.4609375 1.609375 C-0.97882812 1.07828125 -0.49671875 0.5471875 0 0 Z " fill="#E1D7D6" transform="translate(663,509)"/>
<path d="M0 0 C0.33 0 0.66 0 1 0 C1.04898438 0.85722656 1.09796875 1.71445312 1.1484375 2.59765625 C1.54534244 8.66756456 1.99208399 14.24397411 4 20 C3.01 19.67 2.02 19.34 1 19 C-0.58466433 15.3416892 -0.11064817 11.16852005 -0.0625 7.25 C-0.05798828 6.55261719 -0.05347656 5.85523438 -0.04882812 5.13671875 C-0.0371002 3.42444197 -0.01916653 1.71220967 0 0 Z " fill="#F5A79B" transform="translate(902,543)"/>
<path d="M0 0 C0.99 0.33 1.98 0.66 3 1 C-5.261959 6.55580866 -5.261959 6.55580866 -10 7 C-10 6.34 -10 5.68 -10 5 C-9.36191406 4.72285156 -8.72382813 4.44570313 -8.06640625 4.16015625 C-7.24011719 3.79792969 -6.41382813 3.43570313 -5.5625 3.0625 C-4.73878906 2.70285156 -3.91507812 2.34320312 -3.06640625 1.97265625 C-1.05589883 1.16877677 -1.05589883 1.16877677 0 0 Z " fill="#FAD6D6" transform="translate(505,700)"/>
<path d="M0 0 C1.95903745 0.47627975 3.91721097 0.95611423 5.875 1.4375 C6.96554687 1.70433594 8.05609375 1.97117187 9.1796875 2.24609375 C12 3 12 3 14 4 C14 4.66 14 5.32 14 6 C8.83805777 5.04408477 4.30837002 4.19653259 0 1 C0 0.67 0 0.34 0 0 Z " fill="#FAD5D3" transform="translate(440,592)"/>
<path d="M0 0 C-0.33 0.99 -0.66 1.98 -1 3 C-1.556875 3.268125 -2.11375 3.53625 -2.6875 3.8125 C-6.12757508 5.57902504 -8.33261312 8.21136826 -11 11 C-11.66 10.67 -12.32 10.34 -13 10 C-11.54474941 8.51780033 -10.085701 7.03932861 -8.625 5.5625 C-7.81289063 4.73878906 -7.00078125 3.91507812 -6.1640625 3.06640625 C-2.95274102 0 -2.95274102 0 0 0 Z " fill="#E3DAD7" transform="translate(596,256)"/>
<path d="M0 0 C5.67276511 -0.29341888 8.99067246 -0.00559652 14 3 C10.45332822 4.25127906 8.27746562 3.72285053 4.75 2.5625 C3.85796875 2.27503906 2.9659375 1.98757813 2.046875 1.69140625 C1.37140625 1.46324219 0.6959375 1.23507812 0 1 C0 0.67 0 0.34 0 0 Z " fill="#F1A19E" transform="translate(762,711)"/>
<path d="M0 0 C0.66 0 1.32 0 2 0 C0.5682479 5.01113235 -1.98445693 6.94469549 -6 10 C-4.34643078 6.41726669 -2.32019297 3.19026533 0 0 Z " fill="#FAE4E0" transform="translate(808,735)"/>
<path d="M0 0 C0.66 0.33 1.32 0.66 2 1 C-0.31 3.97 -2.62 6.94 -5 10 C-5.33 9.01 -5.66 8.02 -6 7 C-4.78515625 5.17578125 -4.78515625 5.17578125 -3.0625 3.3125 C-2.49660156 2.68988281 -1.93070313 2.06726563 -1.34765625 1.42578125 C-0.90292969 0.95527344 -0.45820312 0.48476563 0 0 Z " fill="#F9DCD8" transform="translate(698,362)"/>
<path d="M0 0 C0.99 0 1.98 0 3 0 C2.01 2.97 1.02 5.94 0 9 C-0.33 9 -0.66 9 -1 9 C-1.125 2.25 -1.125 2.25 0 0 Z " fill="#EFBCB8" transform="translate(791,531)"/>
<path d="M0 0 C0.66 0.33 1.32 0.66 2 1 C0.02 3.31 -1.96 5.62 -4 8 C-4.33 7.34 -4.66 6.68 -5 6 C-3.35 4.02 -1.7 2.04 0 0 Z " fill="#E6DCDB" transform="translate(608,464)"/>
<path d="M0 0 C3.44216672 2.6598561 3.99504674 5.90288286 5 10 C1.32769295 6.92000054 0.43197635 4.7517398 0 0 Z " fill="#E9B9B9" transform="translate(807,669)"/>
</svg>
