<svg width="1895" height="500" viewBox="0 0 1895 500" fill="none" xmlns="http://www.w3.org/2000/svg">
<circle cx="250" cy="250" r="250" fill="black"/>
<path d="M166.519 375H121V182.953H136.602V356.439C136.602 358.229 138.034 359.66 139.823 359.66H147.672C149.461 359.66 150.892 358.229 150.892 356.439V128.25C150.916 126.461 152.348 125.005 154.137 125.005H276.188C279.218 124.958 322.351 124.671 352.005 153.633C369.85 171.049 378.891 195.12 378.891 225.18V375H366.51C364.72 375 363.289 373.64 363.289 371.851V225.18C363.289 199.534 355.846 179.232 341.198 164.894C315.886 140.107 276.856 140.631 276.45 140.631H169.739C167.95 140.631 166.519 142.063 166.519 143.852V375Z" fill="white"/>
<path d="M348.923 374.999H303.429V222.244C303.476 221.624 303.715 212.463 297.536 205.95C292.812 200.964 285.25 198.435 275.039 198.435H210.721V186.053C210.721 184.264 212.153 182.833 213.942 182.833H275.039C289.806 182.833 301.258 187.079 309.059 195.429C319.246 206.355 319.15 220.455 319.055 222.96V356.462C319.055 358.251 320.486 359.683 322.275 359.683H330.124C331.914 359.683 333.345 358.251 333.345 356.462V221.123C333.345 199.986 323.826 184.956 305.075 176.439C290.14 169.64 274.705 169.521 274.538 169.521H199.723C197.934 169.521 196.503 170.952 196.503 172.741V374.999H184.121C182.332 374.999 180.9 373.567 180.9 371.778V157.163C180.9 155.374 182.332 153.942 184.121 153.942H274.538C275.278 153.942 293.051 154.038 311.015 162.053C328.311 169.759 348.923 186.292 348.923 221.17V374.999Z" fill="white"/>
<path d="M589.999 342.379V199.879H619.331L622.132 213.405H623.533C627.056 209.296 632.362 205.529 639.451 202.147C646.54 198.766 654.817 197.096 664.326 197.096C675.108 197.096 684.743 199.579 693.233 204.544C701.723 209.51 708.302 216.53 713.056 225.519C717.811 234.551 720.188 244.953 720.188 256.768V342.379H686.102V261.262C686.102 252.059 683.215 244.482 677.442 238.575C671.669 232.668 664.411 229.714 655.666 229.714C646.922 229.714 639.239 232.711 633.169 238.746C627.099 244.739 624.085 252.273 624.085 261.262V342.379H589.999Z" fill="black"/>
<path d="M787.356 336.468C776.35 330.055 767.723 321.188 761.477 309.825C755.23 298.505 752.128 285.764 752.128 271.603C752.128 257.442 755.23 244.701 761.477 233.381C767.723 222.061 776.35 213.194 787.356 206.738C798.363 200.324 810.559 197.096 823.987 197.096C837.416 197.096 848.89 200.195 859.513 206.436C870.137 212.678 878.466 221.2 884.543 232.09C890.62 242.937 893.637 255.075 893.637 268.504C893.637 274.745 893.17 279.566 892.235 282.966H786.251C787.569 292.995 791.733 301.13 798.83 307.458C805.927 313.785 814.298 316.97 823.987 316.97C831.084 316.97 837.373 315.464 842.855 312.451C848.337 309.438 852.332 305.736 854.754 301.389H889.728C885.818 313.268 878.211 323.728 866.95 332.681C855.689 341.634 841.368 346.153 824.03 346.153C810.601 346.153 798.405 342.925 787.399 336.512L787.356 336.468ZM859.513 259.422C858.579 249.78 854.839 241.775 848.337 235.361C841.793 228.948 833.719 225.72 824.03 225.72C813.788 225.72 805.289 228.862 798.575 235.189C791.861 241.516 787.781 249.608 786.251 259.422H859.513Z" fill="black"/>
<path d="M941.421 342.379H902.933L950.365 270.222L904.883 200.87H943.371L971.813 245.617H977.408L1005.6 200.87H1044.38L998.898 270.222L1046.33 342.379H1007.84L977.45 294.572H971.855L941.464 342.379H941.421Z" fill="black"/>
<path d="M1078.27 342.379V146.152H1112.35V213.975H1113.76C1116.94 209.886 1121.99 206.137 1128.99 202.771C1136 199.405 1143.85 197.744 1152.6 197.744C1163.38 197.744 1173.01 200.215 1181.5 205.157C1189.99 210.099 1196.57 217.085 1201.33 226.032C1206.08 235.021 1208.46 245.373 1208.46 257.132V342.337H1174.37V261.648C1174.37 252.488 1171.49 244.947 1165.71 239.068C1159.94 233.189 1152.68 230.25 1143.94 230.25C1135.19 230.25 1127.51 233.232 1121.44 239.239C1115.37 245.203 1112.35 252.701 1112.35 261.648V342.379H1078.27Z" fill="black"/>
<path d="M1275.63 336.468C1264.62 330.055 1255.99 321.188 1249.75 309.825C1243.5 298.505 1240.4 285.764 1240.4 271.603C1240.4 257.442 1243.5 244.701 1249.75 233.381C1255.99 222.061 1264.62 213.194 1275.63 206.738C1286.63 200.324 1298.83 197.096 1312.26 197.096C1325.68 197.096 1337.16 200.195 1347.78 206.436C1358.41 212.678 1366.74 221.2 1372.81 232.09C1378.85 242.937 1381.91 255.075 1381.91 268.504C1381.91 274.745 1381.44 279.566 1380.5 282.966H1274.52C1275.84 292.995 1280 301.13 1287.1 307.458C1294.2 313.785 1302.57 316.97 1312.26 316.97C1319.35 316.97 1325.64 315.464 1331.12 312.451C1336.61 309.438 1340.6 305.736 1343.02 301.389H1378C1374.09 313.268 1366.48 323.728 1355.22 332.681C1343.92 341.634 1329.64 346.153 1312.3 346.153C1298.87 346.153 1286.67 342.925 1275.67 336.512L1275.63 336.468ZM1347.78 259.422C1346.85 249.78 1343.11 241.775 1336.61 235.361C1330.06 228.948 1321.99 225.72 1312.26 225.72C1302.01 225.72 1293.52 228.862 1286.8 235.189C1280.09 241.516 1276.01 249.608 1274.48 259.422H1347.74H1347.78Z" fill="black"/>
<path d="M1432.42 338.653C1424.71 334.826 1418.76 329.596 1414.52 322.963C1410.28 316.329 1408.18 308.93 1408.18 300.723C1408.18 286.563 1413.07 275.295 1422.83 267.003C1432.59 258.711 1447.07 254.544 1466.21 254.544H1500.3V251.185C1500.3 243.531 1497.9 237.322 1493.1 232.56C1488.31 227.797 1481.88 225.416 1473.79 225.416C1466.47 225.416 1460.56 227.074 1456.02 230.434C1451.52 233.793 1448.7 237.705 1447.58 242.17H1413.49C1414.22 234.346 1417.05 226.947 1421.93 220.058C1426.81 213.17 1433.66 207.599 1442.49 203.39C1451.31 199.18 1461.76 197.096 1473.75 197.096C1485.74 197.096 1496.96 199.392 1506.17 203.942C1515.37 208.535 1522.4 214.913 1527.28 223.12C1532.16 231.327 1534.6 240.639 1534.6 251.1V341.46H1504.75L1501.93 327.47H1500.51C1497.3 331.765 1492.08 335.634 1484.75 339.079C1477.43 342.523 1468.95 344.266 1459.4 344.266C1449.08 344.266 1440.05 342.353 1432.34 338.526L1432.42 338.653ZM1491.05 307.739C1497.26 301.786 1500.34 293.665 1500.34 283.417V279.207H1469.64C1460.6 279.207 1453.92 280.95 1449.47 284.395C1445.06 287.839 1442.83 292.474 1442.83 298.257C1442.83 304.04 1444.8 308.335 1448.74 311.694C1452.68 315.053 1458.2 316.712 1465.35 316.712C1476.23 316.712 1484.8 313.735 1491.01 307.739H1491.05Z" fill="black"/>
<path d="M1608.05 342.379H1574.08V146.152H1608.05V342.379Z" fill="black"/>
<path d="M1697.03 342.334C1685.44 342.334 1676.52 339.388 1670.25 333.497C1663.97 327.605 1660.86 319.408 1660.86 308.905V232.484H1638.1V200.165H1660.86V157.471H1695.87V200.207H1728.62V232.526H1695.87V301.903C1695.87 305.105 1696.6 307.411 1698.16 308.948C1699.67 310.442 1702.05 311.211 1705.3 311.211H1728.66V342.377H1697.08L1697.03 342.334Z" fill="black"/>
<path d="M1764.38 342.379V146.152H1798.46V213.975H1799.87C1803.05 209.886 1808.1 206.137 1815.1 202.771C1822.11 199.405 1829.96 197.744 1838.71 197.744C1849.49 197.744 1859.12 200.215 1867.61 205.157C1876.1 210.099 1882.68 217.085 1887.44 226.032C1892.19 235.021 1894.57 245.373 1894.57 257.132V342.337H1860.48V261.648C1860.48 252.488 1857.6 244.947 1851.82 239.068C1846.05 233.189 1838.79 230.25 1830.05 230.25C1821.3 230.25 1813.62 233.232 1807.55 239.239C1801.48 245.203 1798.46 252.701 1798.46 261.648V342.379H1764.38Z" fill="black"/>
</svg>
