<?xml version="1.0" encoding="UTF-8"?>
<svg version="1.1" xmlns="http://www.w3.org/2000/svg" width="978" height="744">
<path d="M0 0 C322.74 0 645.48 0 978 0 C978 245.52 978 491.04 978 744 C655.26 744 332.52 744 0 744 C0 498.48 0 252.96 0 0 Z " fill="#DD615A" transform="translate(0,0)"/>
<path d="M0 0 C7.44752728 3.3037903 10.83483378 8.95540546 13.765625 16.296875 C14.34514001 17.81749422 14.92043872 19.33972495 15.4921875 20.86328125 C23.34021798 41.6827656 34.02602037 59.66866263 54.77734375 69.76171875 C70.80291792 76.84087763 89.04044589 77.7034375 105.765625 72.296875 C106.75691406 71.97976562 107.74820313 71.66265625 108.76953125 71.3359375 C126.71729245 64.73715177 139.34712428 49.95428632 147.32421875 32.98046875 C149.79617913 27.36461861 151.95778623 21.80403799 153.703125 15.921875 C155.93994487 8.97009873 159.65857019 4.55655122 165.515625 0.296875 C171.21420067 -1.4565329 176.66213374 -1.92252449 182.30078125 0.29296875 C187.25739899 3.21398054 190.66750499 6.79108954 192.94921875 12.0859375 C198.70093833 34.70753315 187.38337547 57.80169698 176.26611328 76.86865234 C170.00263726 87.08026398 162.80572891 96.43214504 154.765625 105.296875 C154.188125 105.956875 153.610625 106.616875 153.015625 107.296875 C138.82200295 122.62598682 115.67351694 134.26359035 94.69799805 135.47387695 C63.38607353 136.03481429 39.35042109 130.30926432 16.00537109 108.05615234 C7.32994236 99.53836097 -0.0037725 90.73122787 -6.234375 80.296875 C-6.67217285 79.56436523 -7.1099707 78.83185547 -7.56103516 78.07714844 C-13.21688919 68.48491824 -18.32564322 58.74051773 -22.234375 48.296875 C-22.646875 47.20503906 -23.059375 46.11320312 -23.484375 44.98828125 C-27.0787991 34.19252831 -28.98159664 20.2689946 -24.296875 9.484375 C-18.74163965 0.574152 -10.09907145 -3.17802948 0 0 Z " fill="#F6F5F5" transform="translate(408.234375,107.703125)"/>
<path d="M0 0 C11.611875 -0.103125 23.22375 -0.20625 35.1875 -0.3125 C38.8280542 -0.35802002 42.4686084 -0.40354004 46.21948242 -0.45043945 C50.7310791 -0.47302246 50.7310791 -0.47302246 52.85591125 -0.47721863 C54.3120848 -0.48480096 55.7682308 -0.50218341 57.22419739 -0.52787781 C70.65711024 -0.75269 82.84211713 1.51482461 93 11 C100.62284668 18.39911533 106.05901489 27.37002516 106.24169922 38.15649414 C106.28440456 50.53476295 104.5613845 58.93754217 97 69 C96.2575 70.051875 95.515 71.10375 94.75 72.1875 C90.9729846 76.05035666 86.85283143 78.65344101 82 81 C81.33734131 81.34998047 80.67468262 81.69996094 79.99194336 82.06054688 C70.13603841 86.51586144 59.37971081 85.42942148 48.8125 85.25 C41.944375 85.1675 35.07625 85.085 28 85 C28 98.86 28 112.72 28 127 C18.76 127 9.52 127 0 127 C0 85.09 0 43.18 0 0 Z " fill="#F6F5F4" transform="translate(179,304)"/>
<path d="M0 0 C11.694375 -0.061875 23.38875 -0.12375 35.4375 -0.1875 C40.95295532 -0.22846802 40.95295532 -0.22846802 46.57983398 -0.27026367 C51.10949707 -0.28381348 51.10949707 -0.28381348 53.23768616 -0.28633118 C54.70731846 -0.29090358 56.17694032 -0.30138274 57.64649963 -0.31672668 C71.30489956 -0.45206621 82.62628883 1.50381807 93.19921875 10.96875 C102.72452969 20.98393408 106.45653746 31.63133717 106.20703125 45.1796875 C105.58057923 56.73950018 100.07101391 66.48114265 91.6875 74.375 C81.99711372 82.4173614 71.63840187 85.34478646 59.25 85.1953125 C58.35128174 85.1924826 57.45256348 85.18965271 56.52661133 85.18673706 C53.68426635 85.17563125 50.84224814 85.15054505 48 85.125 C46.0612025 85.11495777 44.12240001 85.10583411 42.18359375 85.09765625 C37.45560518 85.07572345 32.7278578 85.04126084 28 85 C28.00785522 86.85516235 28.00785522 86.85516235 28.01586914 88.74780273 C28.03391561 93.31924725 28.04543071 97.89068859 28.05493164 102.4621582 C28.05997267 104.44393441 28.06680538 106.42570689 28.07543945 108.4074707 C28.08751515 111.24952109 28.09323045 114.09152247 28.09765625 116.93359375 C28.10281754 117.82525742 28.10797882 118.71692108 28.11329651 119.63560486 C28.11349177 121.75740601 28.0621003 123.8791078 28 126 C27.67 126.33 27.34 126.66 27 127 C18.09 127 9.18 127 0 127 C0 85.09 0 43.18 0 0 Z " fill="#F7F5F5" transform="translate(295,459)"/>
<path d="M0 0 C3.25224917 1.74980167 6.12325398 3.69241663 9 6 C10.051875 6.763125 11.10375 7.52625 12.1875 8.3125 C20.26149648 16.02765219 27.43405746 28.44079732 28.181427 39.74386597 C28.24750338 43.05748991 28.25093153 46.36546274 28.23046875 49.6796875 C28.23001053 50.88819366 28.22955231 52.09669983 28.2290802 53.34182739 C28.2260684 55.88512154 28.21821436 58.42841401 28.20581055 60.97167969 C28.1874661 64.88222715 28.1853016 68.79253885 28.18554688 72.703125 C28.1806347 75.17448123 28.17480769 77.64583585 28.16796875 80.1171875 C28.16685593 81.29312469 28.1657431 82.46906189 28.16459656 83.68063354 C28.15821671 84.75910553 28.15183685 85.83757751 28.14526367 86.94873047 C28.14145187 87.90246552 28.13764008 88.85620056 28.13371277 89.83883667 C28 92 28 92 27 93 C25.21928754 93.08726223 23.4351686 93.10699041 21.65234375 93.09765625 C20.57275391 93.09443359 19.49316406 93.09121094 18.38085938 93.08789062 C17.24455078 93.07951172 16.10824219 93.07113281 14.9375 93.0625 C13.79732422 93.05798828 12.65714844 93.05347656 11.48242188 93.04882812 C8.65489649 93.03699747 5.8274736 93.0205141 3 93 C2.505 88.545 2.505 88.545 2 84 C1.39414062 84.53109375 0.78828125 85.0621875 0.1640625 85.609375 C-10.03072513 94.20436518 -18.73820399 97.23141517 -32.01904297 96.22753906 C-46.1826833 94.60065802 -58.54565799 86.63745575 -67.625 75.9375 C-71.72274443 70.51075738 -73.91852827 64.42503878 -76 58 C-76.20238281 57.37609375 -76.40476562 56.7521875 -76.61328125 56.109375 C-79.169486 42.16644001 -76.35180607 28.15528977 -68.69921875 16.28125 C-52.35309202 -5.66389485 -24.4803554 -10.7488457 0 0 Z " fill="#F6F5F5" transform="translate(484,493)"/>
<path d="M0 0 C1.22009766 0.51046875 1.22009766 0.51046875 2.46484375 1.03125 C16.00297062 7.20580401 25.47986244 17.23965709 31 31 C33.22073387 38.05784371 33.25952293 44.66853767 33.1953125 52.03125 C33.1924826 53.26290894 33.18965271 54.49456787 33.18673706 55.7635498 C33.17559202 59.67580102 33.15049749 63.58781862 33.125 67.5 C33.11382966 70.16145498 33.10583833 72.82290777 33.09765625 75.484375 C33.07737767 81.98974454 33.03821703 88.49461246 33 95 C24.75 95 16.5 95 8 95 C8 92.03 8 89.06 8 86 C7.34773438 86.54269531 6.69546875 87.08539063 6.0234375 87.64453125 C-5.54938555 97.11785985 -15.27643713 99.24908636 -30 98 C-44.42774833 95.12430984 -55.84197753 86.65894216 -64.171875 74.84765625 C-66.60521449 71.05726205 -68.46182361 67.22617771 -70 63 C-70.35578125 62.11183594 -70.7115625 61.22367187 -71.078125 60.30859375 C-74.42799339 48.28597286 -72.65545867 34.30397825 -66.609375 23.51953125 C-65.16838947 21.25566715 -63.63002145 19.1306118 -62 17 C-61.59523438 16.40832031 -61.19046875 15.81664062 -60.7734375 15.20703125 C-47.75138072 -2.24891603 -19.66065325 -8.7224365 0 0 Z " fill="#F6F5F4" transform="translate(363,336)"/>
<path d="M0 0 C0.88816406 0.00563965 1.77632812 0.0112793 2.69140625 0.01708984 C9.27565333 0.13879719 15.11280599 0.78485691 21.25 3.3125 C22.23097656 3.7146875 23.21195313 4.116875 24.22265625 4.53125 C37.41816992 10.53679352 46.15705696 20.05231435 52.125 33.1875 C54.23416131 39.04628143 54.40434576 44.39989096 54.375 50.5625 C54.37886719 51.39007813 54.38273438 52.21765625 54.38671875 53.0703125 C54.37669335 59.18580665 54.37669335 59.18580665 53.25 60.3125 C50.87699131 60.40744733 48.53321297 60.43809319 46.15991211 60.42602539 C45.41849472 60.42617142 44.67707733 60.42631744 43.91319275 60.4264679 C41.45121379 60.42576865 38.98930957 60.41797574 36.52734375 60.41015625 C34.82483461 60.40829211 33.12232493 60.40686819 31.41981506 60.40586853 C26.93006927 60.40204302 22.44035562 60.39221247 17.95062256 60.38116455 C13.37268509 60.37095113 8.79474244 60.36637106 4.21679688 60.36132812 C-4.77214957 60.35059022 -13.76107212 60.33351341 -22.75 60.3125 C-22.12383789 61.42850586 -21.49767578 62.54451172 -20.85253906 63.69433594 C-20.50032288 64.32208923 -20.14810669 64.94984253 -19.78521729 65.59661865 C-16.72933039 70.66177686 -11.5369499 74.06519859 -5.96875 75.83203125 C3.76772195 77.94045739 10.9246974 75.59290026 19.25 70.3125 C19.66032471 69.79042969 20.07064941 69.26835937 20.4934082 68.73046875 C23.18388798 66.55864018 25.48198533 66.97492776 28.88671875 67.01953125 C30.18544922 67.02919922 31.48417969 67.03886719 32.82226562 67.04882812 C34.19401639 67.07389415 35.56576118 67.09928899 36.9375 67.125 C38.32094924 67.1400498 39.70441401 67.1537377 41.08789062 67.16601562 C44.47565207 67.20142777 47.86263139 67.25081946 51.25 67.3125 C48.67689816 78.26787128 41.23781386 86.47834994 32.109375 92.60546875 C17.84051429 101.12390062 3.80375655 103.44548218 -12.56640625 100.6640625 C-25.23916801 97.09555919 -36.63837708 89.3280021 -43.7578125 78.1640625 C-45.55967657 74.92975419 -47.19317672 71.67085049 -48.75 68.3125 C-49.11222656 67.57515625 -49.47445312 66.8378125 -49.84765625 66.078125 C-54.35296276 55.26538937 -52.57960412 41.97898533 -48.30078125 31.46875 C-42.44436679 19.54939766 -34.3008893 11.60600779 -22.75 5.3125 C-21.698125 4.735 -20.64625 4.1575 -19.5625 3.5625 C-12.95221808 0.62459692 -7.1643211 -0.04741892 0 0 Z " fill="#F6F4F4" transform="translate(571.75,332.6875)"/>
<path d="M0 0 C0.80083008 0.00894287 1.60166016 0.01788574 2.42675781 0.02709961 C15.34591336 0.28142407 27.35270864 4.36622289 37 13.3125 C47.76759832 25.04616321 51.44876983 37.22939607 51.3203125 52.83984375 C51.3174826 54.13950577 51.31465271 55.43916779 51.31173706 56.7782135 C51.30414655 60.21249255 51.28453823 63.64659907 51.2623291 67.08081055 C51.24177122 70.59356308 51.23260417 74.10634466 51.22265625 77.61914062 C51.20235184 84.4962455 51.16319444 91.37287826 51.125 98.25 C42.545 98.25 33.965 98.25 25.125 98.25 C25.07601562 94.75664062 25.02703125 91.26328125 24.9765625 87.6640625 C24.92244677 84.25500457 24.86518095 80.84601296 24.80761719 77.43701172 C24.76949615 75.08029181 24.73461484 72.72351706 24.703125 70.36669922 C24.65710619 66.96562184 24.59917411 63.56491657 24.5390625 60.1640625 C24.52751129 59.12198639 24.51596008 58.07991028 24.50405884 57.0062561 C24.31194063 47.33461836 23.94339842 38.00428384 16.70703125 30.84765625 C10.88521221 25.68434631 5.71707078 24.73133469 -1.8671875 24.87109375 C-7.91856388 25.63341 -11.40472821 28.84507362 -15.6875 32.9375 C-20.90430173 40.83722833 -21.33235223 49.36319523 -21.38671875 58.6015625 C-21.40466995 59.74160736 -21.42262115 60.88165222 -21.44111633 62.0562439 C-21.49487372 65.6624594 -21.52900426 69.2685452 -21.5625 72.875 C-21.59570354 75.33465333 -21.63019597 77.79428962 -21.66601562 80.25390625 C-21.75298281 86.25261929 -21.81334942 92.25076089 -21.875 98.25 C-30.455 98.25 -39.035 98.25 -47.875 98.25 C-47.9441574 90.49412549 -48.00380783 82.73933647 -48.03979492 74.98339844 C-48.05480939 72.34924681 -48.07522713 69.71511988 -48.10131836 67.08105469 C-48.13802525 63.27793249 -48.15480049 59.47514306 -48.16796875 55.671875 C-48.18345261 54.50887878 -48.19893646 53.34588257 -48.21488953 52.14764404 C-48.2178503 37.50984754 -44.29501639 24.967915 -34.3125 14 C-24.79574728 5.11521914 -13.01882417 -0.16321535 0 0 Z " fill="#F7F4F4" transform="translate(685.875,332.75)"/>
<path d="M0 0 C1.24112549 0.01244751 1.24112549 0.01244751 2.50732422 0.02514648 C13.56779801 0.32812885 22.79481967 3.45104525 30.6875 11.4375 C35.61962952 17.62122367 39.06331967 23.35737703 38.6875 31.4375 C36.07798764 32.74225618 34.16048715 32.55051572 31.2421875 32.53515625 C30.16582031 32.53193359 29.08945312 32.52871094 27.98046875 32.52539062 C26.85253906 32.51701172 25.72460938 32.50863281 24.5625 32.5 C22.85900391 32.49323242 22.85900391 32.49323242 21.12109375 32.48632812 C18.30984362 32.47451615 15.4986977 32.45804507 12.6875 32.4375 C12.06875 31.0453125 12.06875 31.0453125 11.4375 29.625 C9.71229474 26.48266184 8.80464585 25.09771899 5.6875 23.4375 C3.01016535 22.96506353 3.01016535 22.96506353 0.1875 23.0625 C-0.7509375 23.05476563 -1.689375 23.04703125 -2.65625 23.0390625 C-5.73979829 23.50159474 -7.10850653 24.25372666 -9.3125 26.4375 C-10.3130836 29.85049958 -10.3130836 29.85049958 -9.3125 33.4375 C-3.91752372 38.89080035 4.42800013 40.46840744 11.640625 42.109375 C21.68999275 44.42845987 30.94905746 47.30902046 36.6875 56.4375 C40.40225036 63.47151399 40.49827533 69.99877518 38.4375 77.5625 C35.39197545 86.75521234 29.77194582 92.84106582 21.20703125 97.21484375 C9.52635721 102.35021079 -2.42119757 103.48997536 -14.75 99.875 C-24.41078408 96.08489815 -31.46629968 90.68933697 -36.3125 81.4375 C-38.28760704 76.85884276 -38.3125 74.68573751 -38.3125 69.4375 C-29.7325 69.4375 -21.1525 69.4375 -12.3125 69.4375 C-10.3325 72.9025 -10.3325 72.9025 -8.3125 76.4375 C-5.51518195 77.83615903 -3.11965441 77.68287267 0 77.75 C1.69576172 77.80607422 1.69576172 77.80607422 3.42578125 77.86328125 C7.34628693 77.35150266 8.95351512 76.24728853 11.6875 73.4375 C12.19734015 70.31472909 12.33444454 68.46500015 10.625 65.75 C5.79295956 62.47668228 0.43242535 61.02325503 -5.17651367 59.70214844 C-18.03727212 56.67065647 -27.33235155 52.4301545 -35.3125 41.4375 C-38.23962261 35.70521822 -38.26458186 28.93704415 -36.58984375 22.78125 C-33.04248024 13.24501772 -27.39835804 7.8208126 -18.3125 3.4375 C-12.16479713 0.90406897 -6.63272055 -0.08660863 0 0 Z " fill="#F6F4F3" transform="translate(562.3125,487.5625)"/>
<path d="M0 0 C5.94918956 3.91775898 9.93827946 9.85762715 12.3046875 16.55078125 C12.79092971 19.60237028 12.70382053 22.60055122 12.64453125 25.68359375 C8.41629357 25.91623406 4.18969788 26.05811501 -0.04296875 26.18359375 C-1.84024414 26.28414062 -1.84024414 26.28414062 -3.67382812 26.38671875 C-7.07703223 26.46255617 -10.03627083 26.45101195 -13.35546875 25.68359375 C-15.36704134 23.73866483 -16.34562415 22.07758879 -17.43676758 19.51367188 C-18.26815023 17.3204917 -18.26815023 17.3204917 -21.35546875 16.68359375 C-25.90005823 16.16445525 -29.32743429 16.13810608 -33.41796875 18.30859375 C-35.56561548 20.58313568 -35.56561548 20.58313568 -36.04296875 23.68359375 C-35.61317894 26.83415822 -35.61317894 26.83415822 -33.10546875 28.80859375 C-26.21160419 32.69951028 -18.27727422 34.53518026 -10.60546875 36.18359375 C-1.69544773 38.18250061 4.92226429 41.35329734 10.64453125 48.68359375 C15.1202852 56.12583578 14.31477458 64.14083337 13.08203125 72.49609375 C8.41449404 82.84585018 0.53551392 88.97896034 -9.85546875 93.05859375 C-21.72973405 96.65868947 -35.0896548 95.90321679 -46.35546875 90.68359375 C-56.3978846 84.51169234 -61.42806279 77.01707046 -64.35546875 65.68359375 C-64.35546875 64.69359375 -64.35546875 63.70359375 -64.35546875 62.68359375 C-55.44546875 62.68359375 -46.53546875 62.68359375 -37.35546875 62.68359375 C-36.36546875 64.66359375 -35.37546875 66.64359375 -34.35546875 68.68359375 C-32.4765595 70.85156596 -31.16945162 71.55556926 -28.34375 72 C-22.56886199 72.30394147 -18.86440409 71.34710371 -14.35546875 67.68359375 C-12.86464084 64.25069008 -12.86464084 64.25069008 -13.35546875 60.68359375 C-17.54121258 56.14903793 -22.839865 55.15531869 -28.60546875 53.68359375 C-40.80491423 50.51626268 -52.34761895 46.54431477 -60.41796875 36.24609375 C-63.88349727 30.06368747 -63.19697385 22.48461037 -62.35546875 15.68359375 C-60.00119345 7.97280217 -54.05160958 2.5030404 -47.2734375 -1.56640625 C-45.31956635 -2.58256868 -43.39949208 -3.49646533 -41.35546875 -4.31640625 C-40.48277344 -4.6721875 -39.61007812 -5.02796875 -38.7109375 -5.39453125 C-25.38934362 -9.05448021 -11.8314132 -6.61224917 0 0 Z " fill="#F6F4F3" transform="translate(675.35546875,494.31640625)"/>
<path d="M0 0 C1.0209375 0.62455078 1.0209375 0.62455078 2.0625 1.26171875 C2.84625 1.70902344 3.63 2.15632813 4.4375 2.6171875 C13.84539886 8.38880966 18.93206746 15.6448901 22.0625 26.26171875 C23.57299465 35.7844024 20.75493218 44.69164402 15.375 52.57421875 C9.23731734 60.11524091 -0.5137754 65.17130205 -9.9375 67.26171875 C-24.15887717 68.25721515 -35.54501795 66.80195834 -46.8984375 57.34765625 C-54.10488992 49.97553826 -57.88268121 41.68672073 -58.3125 31.44921875 C-58.07438282 21.3856346 -54.32319368 14.7379151 -47.44140625 7.52734375 C-35.39722273 -3.37066942 -14.99514461 -7.63145753 0 0 Z " fill="#F6F5F5" transform="translate(509.9375,88.73828125)"/>
<path d="M0 0 C4.31248609 -0.02886537 8.62494762 -0.04675255 12.9375 -0.0625 C14.16919922 -0.07087891 15.40089844 -0.07925781 16.66992188 -0.08789062 C17.83974609 -0.09111328 19.00957031 -0.09433594 20.21484375 -0.09765625 C21.84087524 -0.10551147 21.84087524 -0.10551147 23.49975586 -0.11352539 C26 0 26 0 27 1 C27.08790975 3.29151417 27.10694038 5.58572524 27.09765625 7.87890625 C27.0962413 8.5655687 27.09482635 9.25223114 27.09336853 9.95970154 C27.08775479 12.16067801 27.07520007 14.36155409 27.0625 16.5625 C27.05748676 18.05143083 27.05292355 19.54036324 27.04882812 21.02929688 C27.03863021 24.68626805 27.01905779 28.34302117 27 32 C35.58 32 44.16 32 53 32 C53 39.26 53 46.52 53 54 C44.42 54 35.84 54 27 54 C27.02824428 58.53705884 27.07170369 63.06899935 27.15258789 67.60473633 C27.1756199 69.14369313 27.19012852 70.68280426 27.19555664 72.22192383 C27.23729868 82.11478729 27.50362063 90.44827084 34.8425293 97.86108398 C38.88400405 101.56524331 42.81578652 103.86318686 48.1875 105.0625 C52 106 52 106 53 107 C53.08713831 108.70772358 53.10700007 110.41898649 53.09765625 112.12890625 C53.09443359 113.16337891 53.09121094 114.19785156 53.08789062 115.26367188 C53.07532227 116.8965918 53.07532227 116.8965918 53.0625 118.5625 C53.05798828 119.65498047 53.05347656 120.74746094 53.04882812 121.87304688 C53.03699826 124.58208495 53.02051543 127.29101599 53 130 C38.57277256 130.5582691 26.45943431 127.6160858 15.453125 117.70703125 C1.04065529 102.49655567 -0.46677819 85.8718094 -0.29296875 65.91796875 C-0.28736118 64.00841101 -0.28309658 62.09884891 -0.28010559 60.18928528 C-0.2687481 55.20640779 -0.2393611 50.22380004 -0.20599365 45.24102783 C-0.17509473 40.13923794 -0.16155823 35.03740372 -0.14648438 29.93554688 C-0.11448115 19.95691389 -0.06339726 9.97847953 0 0 Z " fill="#F6F3F3" transform="translate(410,304)"/>
<path d="M0 0 C8.58 0 17.16 0 26 0 C26.495 15.345 26.495 15.345 27 31 C39.87 31.495 39.87 31.495 53 32 C53 39.26 53 46.52 53 54 C44.42 54.33 35.84 54.66 27 55 C26.8912361 59.43817123 26.81229994 63.87362921 26.75 68.3125 C26.71648438 69.55580078 26.68296875 70.79910156 26.6484375 72.08007812 C26.55166383 81.29776977 27.63775905 89.82425032 33.25 97.4375 C37.82935633 101.70462748 42.87279553 103.68343396 48.765625 105.61328125 C49.96106934 106.00640503 49.96106934 106.00640503 51.18066406 106.4074707 C51.78104492 106.60300537 52.38142578 106.79854004 53 107 C53.02887512 110.64581687 53.04675585 114.29160463 53.0625 117.9375 C53.07087891 118.97841797 53.07925781 120.01933594 53.08789062 121.09179688 C53.09111328 122.08115234 53.09433594 123.07050781 53.09765625 124.08984375 C53.10289307 125.00628662 53.10812988 125.92272949 53.11352539 126.86694336 C53 129 53 129 52 130 C40.51981699 131.20739856 29.38845964 128.54211294 20.05078125 121.6796875 C9.84133229 113.31766264 1.78106373 102.35596776 0 89 C-0.13341364 86.04881641 -0.12662559 83.1026898 -0.11352539 80.14892578 C-0.11367142 79.27998184 -0.11381744 78.4110379 -0.1139679 77.51576233 C-0.11327421 74.65891985 -0.10550735 71.80214351 -0.09765625 68.9453125 C-0.09579014 66.95848628 -0.09436715 64.97165961 -0.09336853 62.98483276 C-0.08955857 57.76687337 -0.0797413 52.54894201 -0.06866455 47.33099365 C-0.05841769 42.00191629 -0.0538639 36.67283438 -0.04882812 31.34375 C-0.03811764 20.89581906 -0.02053318 10.44791625 0 0 Z " fill="#F7F5F5" transform="translate(752,304)"/>
<path d="M0 0 C8.91 0 17.82 0 27 0 C27.02254946 12.23880658 27.04091418 24.47759947 27.05181217 36.71642208 C27.05704139 42.39876512 27.06413973 48.08109327 27.07543945 53.76342773 C27.08626696 59.24229136 27.09227654 64.72114062 27.09487724 70.20001411 C27.09673174 72.29529611 27.10035282 74.39057728 27.10573006 76.4858532 C27.11293868 79.40977584 27.11399102 82.33363833 27.11352539 85.25756836 C27.11712067 86.1329425 27.12071594 87.00831665 27.12442017 87.91021729 C27.11405216 93.88594784 27.11405216 93.88594784 26 95 C24.15840977 95.09959621 22.31303033 95.13080411 20.46875 95.1328125 C19.34855469 95.13410156 18.22835938 95.13539063 17.07421875 95.13671875 C15.89472656 95.13285156 14.71523438 95.12898438 13.5 95.125 C11.73076172 95.13080078 11.73076172 95.13080078 9.92578125 95.13671875 C8.80558594 95.13542969 7.68539063 95.13414062 6.53125 95.1328125 C5.49548828 95.13168457 4.45972656 95.13055664 3.39257812 95.12939453 C1 95 1 95 0 94 C-0.09525367 91.07805335 -0.12552736 88.17979671 -0.11352539 85.25756836 C-0.11367142 84.3405867 -0.11381744 83.42360504 -0.1139679 82.47883606 C-0.1132684 79.43248164 -0.10547428 76.38618755 -0.09765625 73.33984375 C-0.0957922 71.23377007 -0.09436824 69.12769597 -0.09336853 67.0216217 C-0.08954231 61.46657117 -0.07971114 55.91154659 -0.06866455 50.35650635 C-0.05845267 44.6927526 -0.05387139 39.02899467 -0.04882812 33.36523438 C-0.03808896 22.24347631 -0.02049132 11.12174437 0 0 Z " fill="#F6F2F2" transform="translate(480,336)"/>
<path d="M0 0 C6.03214315 3.80584702 10.28458472 8.07568253 12.48046875 15.05859375 C14.12394837 23.53956878 13.28854266 31.71641992 8.89453125 39.1953125 C5.03717945 44.2831107 0.12203952 48.49051958 -6.10546875 50.1953125 C-15.10933744 51.33558739 -22.65906265 50.60838262 -30.10546875 45.1953125 C-36.08044275 40.0997719 -39.34604713 33.1634913 -40.5234375 25.4609375 C-40.89240108 18.40076963 -39.21829805 12.94187538 -35.10546875 7.1953125 C-25.65356908 -3.00863705 -12.99663655 -6.8961745 0 0 Z " fill="#DC625B" transform="translate(473.10546875,514.8046875)"/>
<path d="M0 0 C7.25375888 4.07665077 11.53036433 9.61871336 14.08984375 17.51171875 C15.90388384 25.14268078 13.88871324 31.5789973 10.5625 38.5 C6.72217095 44.65816079 1.52172913 47.98186863 -5.3515625 50.0859375 C-14.03240643 51.80910128 -21.76388874 50.54328175 -29.125 45.75 C-35.54496346 39.50354907 -38.7152931 33.37821521 -38.875 24.3125 C-38.84728076 17.41796864 -37.75307637 12.00161237 -33.4375 6.5 C-23.82111897 -2.82075992 -12.55383551 -5.76036342 0 0 Z " fill="#DD625B" transform="translate(356.4375,359.5)"/>
<path d="M0 0 C1.68471161 -0.01648035 3.36935562 -0.04366474 5.05371094 -0.08203125 C22.35653848 -0.4740764 22.35653848 -0.4740764 28.9831543 5.35009766 C32.89417206 9.46168044 33.76673663 12.09935393 34.2956543 17.60009766 C33.80255222 23.51732253 31.7181697 27.69971715 27.4206543 31.78759766 C22.92073732 34.67215982 18.79753478 34.49613508 13.6315918 34.48291016 C12.81695465 34.48386688 12.0023175 34.48482361 11.16299438 34.48580933 C9.44321617 34.48648932 7.72343538 34.48464764 6.00366211 34.48046875 C3.36135147 34.47510415 0.71920974 34.4804269 -1.9230957 34.48681641 C-3.59236691 34.48615586 -5.26163802 34.4848752 -6.9309082 34.48291016 C-8.12304428 34.4859465 -8.12304428 34.4859465 -9.33926392 34.48904419 C-14.90188557 34.46505779 -14.90188557 34.46505779 -16.0168457 33.35009766 C-16.1176269 30.98611297 -16.15657786 28.65198455 -16.1496582 26.28759766 C-16.15061493 25.58111084 -16.15157166 24.87462402 -16.15255737 24.14672852 C-16.15323903 22.65038972 -16.15138575 21.15404799 -16.1472168 19.65771484 C-16.14186828 17.35979608 -16.14716221 15.06207279 -16.15356445 12.76416016 C-16.15290367 11.31363889 -16.1516225 9.86311774 -16.1496582 8.41259766 C-16.15168243 7.72093506 -16.15370667 7.02927246 -16.15579224 6.31665039 C-16.110917 -2.75703649 -7.32599314 0.05246526 0 0 Z " fill="#DC625C" transform="translate(223.016845703125,328.64990234375)"/>
<path d="M0 0 C5.15947346 -0.07440448 10.31863151 -0.12872191 15.47851562 -0.16479492 C17.23215173 -0.17983995 18.98575047 -0.20028104 20.73925781 -0.22631836 C23.26637009 -0.26289121 25.79298296 -0.2797692 28.3203125 -0.29296875 C29.48785568 -0.31619453 29.48785568 -0.31619453 30.6789856 -0.33988953 C36.35731744 -0.34162753 40.55291439 0.74273026 44.86328125 4.71875 C45.34152344 5.3065625 45.81976563 5.894375 46.3125 6.5 C47.04919922 7.38171875 47.04919922 7.38171875 47.80078125 8.28125 C50.41713985 12.03107991 50.36279078 15.57395251 50 20 C48.0444596 25.88897025 45.03044398 29.46798614 40 33 C36.25565647 34.24811451 32.7666983 34.14307934 28.8671875 34.1328125 C27.67852585 34.13424759 27.67852585 34.13424759 26.46585083 34.13571167 C24.79315105 34.13639159 23.12044861 34.13455042 21.44775391 34.13037109 C18.87787002 34.12500599 16.30815979 34.13032968 13.73828125 34.13671875 C12.11458295 34.13605821 10.49088475 34.13477756 8.8671875 34.1328125 C7.70786209 34.13584885 7.70786209 34.13584885 6.52511597 34.13894653 C1.11496066 34.11496066 1.11496066 34.11496066 0 33 C-0.08843793 30.55169574 -0.11528752 28.13179401 -0.09765625 25.68359375 C-0.0962413 24.95253922 -0.09482635 24.22148468 -0.09336853 23.46827698 C-0.08775408 21.12464368 -0.07519922 18.78110461 -0.0625 16.4375 C-0.05748686 14.85221492 -0.05292363 13.26692834 -0.04882812 11.68164062 C-0.03777997 7.7877239 -0.02050572 3.89387795 0 0 Z " fill="#DC625B" transform="translate(323,484)"/>
<path d="M0 0 C4.36872308 2.18436154 7.48211211 4.80352018 10 9 C11.23260819 12.92330168 11.62182825 16.31005528 10.18359375 20.21875 C7.351693 25.228317 4.3103557 27.83985531 -1 30 C-4.84461779 30.63710809 -8.04773858 30.39862106 -11.6875 28.875 C-18.64448985 23.23419742 -18.64448985 23.23419742 -19.453125 18.15234375 C-19.62146118 13.30065461 -19.40749269 9.86026235 -17.3125 5.4375 C-12.09261424 -0.06454175 -7.43193278 -1.07363395 0 0 Z " fill="#F6F4F3" transform="translate(498,296)"/>
<path d="M0 0 C6.18941875 3.23074056 10.52394978 7.18808616 14.0625 13.3125 C14.0625 13.9725 14.0625 14.6325 14.0625 15.3125 C-2.1075 15.3125 -18.2775 15.3125 -34.9375 15.3125 C-33.38092394 9.08619577 -28.96388705 4.48515956 -23.6875 0.875 C-16.6805999 -3.10619324 -7.3962461 -3.12481948 0 0 Z " fill="#D8645E" transform="translate(583.9375,358.6875)"/>
<path d="M0 0 C1.16080078 -0.00128906 2.32160156 -0.00257813 3.51757812 -0.00390625 C4.74025391 -0.00003906 5.96292969 0.00382812 7.22265625 0.0078125 C8.44146484 0.00394531 9.66027344 0.00007813 10.91601562 -0.00390625 C12.65915039 -0.00197266 12.65915039 -0.00197266 14.4375 0 C15.50991943 0.00112793 16.58233887 0.00225586 17.68725586 0.00341797 C20.28515625 0.1328125 20.28515625 0.1328125 22.28515625 1.1328125 C22.61515625 11.0328125 22.94515625 20.9328125 23.28515625 31.1328125 C30.87515625 31.4628125 38.46515625 31.7928125 46.28515625 32.1328125 C46.28515625 32.7928125 46.28515625 33.4528125 46.28515625 34.1328125 C38.03515625 34.1328125 29.78515625 34.1328125 21.28515625 34.1328125 C20.79015625 18.7878125 20.79015625 18.7878125 20.28515625 3.1328125 C7.41515625 2.6378125 7.41515625 2.6378125 -5.71484375 2.1328125 C-5.62917115 13.1904989 -5.53533262 24.24803462 -5.42731667 35.30552578 C-5.37747703 40.44055442 -5.33114625 45.57556372 -5.29296875 50.71069336 C-5.25595974 55.67098731 -5.20955819 60.63111437 -5.15678024 65.59126472 C-5.138319 67.47894409 -5.12318088 69.36665912 -5.11149979 71.25439262 C-5.09449498 73.908618 -5.06542722 76.562468 -5.03369141 79.21655273 C-5.03153122 79.98835876 -5.02937103 80.76016479 -5.02714539 81.55535889 C-4.95535362 86.28846691 -4.29700611 90.51748571 -3.04347801 95.08689976 C-2.6725276 97.39625171 -3.0063341 98.92349854 -3.71484375 101.1328125 C-7.70635749 91.12175354 -7.11388183 81.1046468 -7.04296875 70.50390625 C-7.03990738 68.50277346 -7.03803413 66.50163853 -7.03729248 64.50050354 C-7.0327102 60.32731854 -7.01835625 56.15432874 -6.99609375 51.98120117 C-6.96764749 46.62092305 -6.95686349 41.26079716 -6.95241165 35.90045071 C-6.94826757 31.77851328 -6.9384613 27.65660682 -6.92653656 23.53468513 C-6.920827 21.55663361 -6.91607057 19.57857911 -6.91226959 17.60052299 C-6.90543464 14.85008292 -6.89181994 12.09976627 -6.87597656 9.34936523 C-6.8748587 8.52710449 -6.87374084 7.70484375 -6.87258911 6.85766602 C-6.8214967 0.19884698 -6.56239767 0.00690935 0 0 Z " fill="#C07470" transform="translate(415.71484375,301.8671875)"/>
<path d="M0 0 C0.99 0.33 1.98 0.66 3 1 C-5.00888927 6.80354295 -14.04435434 12.14492483 -24.21777344 12.11352539 C-25.4656665 12.11334412 -25.4656665 12.11334412 -26.73876953 12.11315918 C-27.60356934 12.10804321 -28.46836914 12.10292725 -29.359375 12.09765625 C-30.16133301 12.09664917 -30.96329102 12.09564209 -31.78955078 12.09460449 C-34.7763818 12.08938473 -37.76319238 12.07542347 -40.75 12.0625 C-47.4325 12.041875 -54.115 12.02125 -61 12 C-61 25.53 -61 39.06 -61 53 C-61.33 53 -61.66 53 -62 53 C-62.02467203 47.05517888 -62.04284663 41.1103874 -62.05493164 35.16552734 C-62.05996831 33.14208457 -62.06679789 31.11864544 -62.07543945 29.09521484 C-62.08753412 26.19107157 -62.09323488 23.28697631 -62.09765625 20.3828125 C-62.10539818 19.02024826 -62.10539818 19.02024826 -62.11329651 17.63015747 C-62.11337204 16.78943695 -62.11344757 15.94871643 -62.11352539 15.08251953 C-62.115746 14.34083527 -62.11796661 13.599151 -62.12025452 12.83499146 C-62 11 -62 11 -61 9 C-59.76548096 8.9906543 -58.53096191 8.98130859 -57.2590332 8.97167969 C-52.61984943 8.93140221 -47.98130285 8.86554388 -43.3425293 8.79248047 C-41.34586862 8.76448764 -39.34910159 8.74316682 -37.35229492 8.72900391 C-18.95916274 9.38777047 -18.95916274 9.38777047 -3 2 C-2.01 2 -1.02 2 0 2 C0 1.34 0 0.68 0 0 Z " fill="#F6D6D4" transform="translate(384,532)"/>
<path d="M0 0 C3.74168288 3.74168288 3.12855191 8.7746231 3.13671875 13.7890625 C3.13285156 14.60117187 3.12898437 15.41328125 3.125 16.25 C3.12886719 17.07757813 3.13273438 17.90515625 3.13671875 18.7578125 C3.12669335 24.87330665 3.12669335 24.87330665 2 26 C-0.37300869 26.09494733 -2.71678703 26.12559319 -5.09008789 26.11352539 C-5.83150528 26.11367142 -6.57292267 26.11381744 -7.33680725 26.1139679 C-9.79878621 26.11326865 -12.26069043 26.10547574 -14.72265625 26.09765625 C-16.42516539 26.09579211 -18.12767507 26.09436819 -19.83018494 26.09336853 C-24.31993073 26.08954302 -28.80964438 26.07971247 -33.29937744 26.06866455 C-37.87731491 26.05845113 -42.45525756 26.05387106 -47.03320312 26.04882812 C-56.02214957 26.03809022 -65.01107212 26.02101341 -74 26 C-74 25.34 -74 24.68 -74 24 C-64.51652557 23.86945544 -55.03304913 23.73905757 -45.54957008 23.60884857 C-41.14632697 23.54838701 -36.74308457 23.48787434 -32.33984375 23.42724609 C-28.09291113 23.36877192 -23.84597671 23.31043038 -19.59904099 23.25218201 C-17.97628082 23.22990167 -16.35352132 23.20757301 -14.73076248 23.18519592 C-12.46325093 23.15393613 -10.19573711 23.12284598 -7.92822266 23.09179688 C-5.98962875 23.06514954 -5.98962875 23.06514954 -4.01187134 23.03796387 C-2.34133233 23.01690715 -0.67067171 23 1 23 C0.67 15.41 0.34 7.82 0 0 Z " fill="#F8D8D6" transform="translate(623,367)"/>
<path d="M0 0 C2.84553651 4.26830476 3.12521356 7.41493847 3.12939453 12.48706055 C3.13254669 13.58467209 3.13569885 14.68228363 3.13894653 15.81315613 C3.1369223 16.99243179 3.13489807 18.17170746 3.1328125 19.38671875 C3.13424759 21.20584526 3.13424759 21.20584526 3.13571167 23.0617218 C3.13639191 25.62293551 3.13454846 28.18415094 3.13037109 30.74536133 C3.12500682 34.68249338 3.1303285 38.61951206 3.13671875 42.55664062 C3.13605821 45.04166692 3.13477756 47.52669314 3.1328125 50.01171875 C3.13483673 51.19706711 3.13686096 52.38241547 3.13894653 53.60368347 C3.13579437 54.69183853 3.13264221 55.77999359 3.12939453 56.90112305 C3.12859894 57.86390671 3.12780334 58.82669037 3.12698364 59.81864929 C3 62 3 62 2 63 C0.21928754 63.08726223 -1.5648314 63.10699041 -3.34765625 63.09765625 C-4.42724609 63.09443359 -5.50683594 63.09121094 -6.61914062 63.08789062 C-7.75544922 63.07951172 -8.89175781 63.07113281 -10.0625 63.0625 C-11.20267578 63.05798828 -12.34285156 63.05347656 -13.51757812 63.04882812 C-16.34510351 63.03699747 -19.1725264 63.0205141 -22 63 C-22.33 60.03 -22.66 57.06 -23 54 C-24.485 54.495 -24.485 54.495 -26 55 C-26 54.01 -26 53.02 -26 52 C-24.35 52 -22.7 52 -21 52 C-21 54.97 -21 57.94 -21 61 C-13.74 61 -6.48 61 1 61 C1.02309666 54.40205464 1.04296756 47.80425257 1.05493164 41.20629883 C1.05992532 38.96703615 1.06672257 36.72777667 1.07543945 34.48852539 C1.19003448 17.21792625 1.19003448 17.21792625 0 0 Z " fill="#F8D6D4" transform="translate(509,523)"/>
<path d="M0 0 C8.64154852 -0.06994615 17.28297597 -0.12303522 25.92473888 -0.15543652 C29.93877958 -0.17099858 33.9526246 -0.19206052 37.96655273 -0.22631836 C41.85046078 -0.25925372 45.7341823 -0.27692384 49.61821938 -0.28463173 C51.08957156 -0.29011466 52.56091519 -0.3008186 54.03218651 -0.31719017 C63.39428637 -0.41708926 71.95382933 0.43280166 81 3 C81 3.66 81 4.32 81 5 C73.375 4.125 73.375 4.125 70 3 C67.74660334 2.88187505 65.48995504 2.82303355 63.23364258 2.79467773 C62.55045456 2.78477814 61.86726654 2.77487854 61.16337585 2.76467896 C58.90712947 2.73311321 56.65086203 2.7083261 54.39453125 2.68359375 C52.82939611 2.66301996 51.26426648 2.64202338 49.69914246 2.62062073 C45.58102884 2.56544391 41.46286544 2.51601529 37.34466553 2.46777344 C33.14184136 2.41752635 28.93908942 2.36185703 24.73632812 2.30664062 C16.4909465 2.19911274 8.24550442 2.09765587 0 2 C0 1.34 0 0.68 0 0 Z " fill="#C46965" transform="translate(294,456)"/>
<path d="M0 0 C0.99 0.33 1.98 0.66 3 1 C2.03900391 1.78310547 2.03900391 1.78310547 1.05859375 2.58203125 C-8.87576062 11.03585591 -16.85116529 21.66067623 -18.20703125 35.04345703 C-18.73766477 43.50137639 -18.32555144 51.10181534 -15 59 C-15 59.66 -15 60.32 -15 61 C-15.66 61 -16.32 61 -17 61 C-17.33 58.69 -17.66 56.38 -18 54 C-18.66 54 -19.32 54 -20 54 C-22.81211269 45.04623318 -21.34597005 33.90211851 -19 25 C-18.34 25 -17.68 25 -17 25 C-16.79375 23.845 -16.5875 22.69 -16.375 21.5 C-14.55963978 14.22568423 -9.31852489 9.03860253 -4 4 C-3.236875 3.236875 -2.47375 2.47375 -1.6875 1.6875 C-1.130625 1.130625 -0.57375 0.57375 0 0 Z " fill="#C3746E" transform="translate(539,342)"/>
<path d="M0 0 C2.73689624 4.98115116 2.67975402 9.31188181 1.3125 14.71875 C-1.28994129 22.6128219 -4.61801567 28.4540658 -12.125 32.375 C-19.4006096 35.7352213 -27.82600153 36.41507262 -35.4375 33.6875 C-40.71945701 31.18552036 -40.71945701 31.18552036 -43 29 C-43 28.34 -43 27.68 -43 27 C-42.505 27.268125 -42.01 27.53625 -41.5 27.8125 C-40.675 28.204375 -39.85 28.59625 -39 29 C-37.88625 29.53625 -36.7725 30.0725 -35.625 30.625 C-29.04756217 33.01455607 -20.90735783 33.55832587 -14.35546875 30.9453125 C-11.55442306 29.23945044 -9.4828099 27.9656198 -8 25 C-7.01 25 -6.02 25 -5 25 C-5 24.01 -5 23.02 -5 22 C-4.34 22 -3.68 22 -3 22 C-0.82191974 14.73973247 -0.40277493 7.54673035 0 0 Z " fill="#BF7D79" transform="translate(369,375)"/>
<path d="M0 0 C0.99 0 1.98 0 3 0 C3 7.26 3 14.52 3 22 C-10.365 22.495 -10.365 22.495 -24 23 C-24 22.34 -24 21.68 -24 21 C-21.05868109 20.01956036 -19.17498335 19.88378798 -16.11328125 19.90234375 C-15.17548828 19.90556641 -14.23769531 19.90878906 -13.27148438 19.91210938 C-12.29501953 19.92048828 -11.31855469 19.92886719 -10.3125 19.9375 C-9.32443359 19.94201172 -8.33636719 19.94652344 -7.31835938 19.95117188 C-4.87888042 19.9629568 -2.43943259 19.98089217 0 20 C0 13.4 0 6.8 0 0 Z " fill="#F9E3E2" transform="translate(802,336)"/>
<path d="M0 0 C1.03688965 0.01047363 2.0737793 0.02094727 3.14208984 0.03173828 C4.26357422 0.03818359 5.38505859 0.04462891 6.54052734 0.05126953 C7.71615234 0.06802734 8.89177734 0.08478516 10.10302734 0.10205078 C11.87806641 0.11558594 11.87806641 0.11558594 13.68896484 0.12939453 C16.61885257 0.15302266 19.54834075 0.18596564 22.47802734 0.22705078 C22.80802734 1.21705078 23.13802734 2.20705078 23.47802734 3.22705078 C14.56802734 3.22705078 5.65802734 3.22705078 -3.52197266 3.22705078 C-1.88147148 8.03016281 -1.88147148 8.03016281 -0.23095703 12.82983398 C0.75520433 15.75192401 1.47802734 18.12319485 1.47802734 21.22705078 C-2.64772838 16.70836594 -4.29101524 10.76758232 -4.83447266 4.78955078 C-4.40452863 1.26400977 -3.55763674 0.32029063 0 0 Z " fill="#CA7E79" transform="translate(614.52197265625,553.77294921875)"/>
<path d="M0 0 C0.66 0.33 1.32 0.66 2 1 C-3.65592818 10.12246481 -12.58919324 15.57613638 -22.86376953 18.53710938 C-26.56663849 19.33946818 -30.28773493 19.18450178 -34.0625 19.1875 C-34.87783203 19.19974609 -35.69316406 19.21199219 -36.53320312 19.22460938 C-37.70979492 19.22750977 -37.70979492 19.22750977 -38.91015625 19.23046875 C-39.62308838 19.23457764 -40.33602051 19.23868652 -41.07055664 19.24291992 C-43 19 -43 19 -46 17 C-45.44127197 16.97494385 -44.88254395 16.9498877 -44.30688477 16.92407227 C-41.72527572 16.80656895 -39.14389764 16.6845562 -36.5625 16.5625 C-35.24475586 16.50352539 -35.24475586 16.50352539 -33.90039062 16.44335938 C-28.23052738 16.17137332 -22.63551047 15.68222355 -17 15 C-17 14.34 -17 13.68 -17 13 C-14.03 12.01 -11.06 11.02 -8 10 C-8 9.34 -8 8.68 -8 8 C-6.34211215 6.65576661 -4.67423683 5.32381517 -3 4 C-1.23676495 1.87396815 -1.23676495 1.87396815 0 0 Z " fill="#F8D9D7" transform="translate(525,137)"/>
<path d="M0 0 C0.66 0 1.32 0 2 0 C0.52765565 6.70734649 -3.47383516 10.31001742 -8.74609375 14.33203125 C-14.90481847 18.08024436 -22.01896734 17.71728651 -29 17 C-31.92578125 15.9765625 -31.92578125 15.9765625 -34 15 C-34 14.67 -34 14.34 -34 14 C-32.2984375 14.03480469 -32.2984375 14.03480469 -30.5625 14.0703125 C-29.04167332 14.08908814 -27.52083943 14.1072864 -26 14.125 C-25.25621094 14.14175781 -24.51242187 14.15851562 -23.74609375 14.17578125 C-18.49451557 14.22144715 -14.0483054 13.45712451 -9 12 C-9 11.34 -9 10.68 -9 10 C-7.7934375 9.319375 -7.7934375 9.319375 -6.5625 8.625 C-3.84763807 7.26579005 -3.84763807 7.26579005 -3.1875 4.8125 C-3.0946875 3.9153125 -3.0946875 3.9153125 -3 3 C-2.34 3 -1.68 3 -1 3 C-0.67 2.01 -0.34 1.02 0 0 Z " fill="#C48580" transform="translate(482,548)"/>
<path d="M0 0 C0.99 0 1.98 0 3 0 C3.33 9.9 3.66 19.8 4 30 C11.59 30.33 19.18 30.66 27 31 C27 31.66 27 32.32 27 33 C18.75 33 10.5 33 2 33 C1.93941406 30.78539062 1.87882812 28.57078125 1.81640625 26.2890625 C1.75462424 24.14775145 1.69123351 22.00649366 1.62768555 19.86523438 C1.58433411 18.37537359 1.54265916 16.88546305 1.50268555 15.39550781 C1.44498785 13.25570673 1.38129245 11.11615615 1.31640625 8.9765625 C1.27974854 7.68830566 1.24309082 6.40004883 1.20532227 5.07275391 C1.20469325 2.0872318 1.20469325 2.0872318 0 0 Z " fill="#CA7B77" transform="translate(435,303)"/>
<path d="M0 0 C0.66 0.66 1.32 1.32 2 2 C1.29875 2.02578125 0.5975 2.0515625 -0.125 2.078125 C-6.65027349 2.46822287 -11.46894152 3.49404302 -17 7 C-17.886875 7.53625 -18.77375 8.0725 -19.6875 8.625 C-26.74985538 15.87822985 -27.83125516 24.21279953 -28 34 C-28.33 34 -28.66 34 -29 34 C-29.02714735 31.77090129 -29.04646254 29.54170633 -29.0625 27.3125 C-29.07990234 25.45044922 -29.07990234 25.45044922 -29.09765625 23.55078125 C-29.01478673 20.53764546 -28.70839449 17.91724661 -28 15 C-27.34 15 -26.68 15 -26 15 C-25.7834375 14.071875 -25.7834375 14.071875 -25.5625 13.125 C-25 11 -25 11 -24 9 C-23.34 9 -22.68 9 -22 9 C-22 8.34 -22 7.68 -22 7 C-20.31235484 6.02116581 -18.62265119 5.04567997 -16.921875 4.08984375 C-15.30551921 3.17325175 -13.71223491 2.21614299 -12.125 1.25 C-8.09122254 -0.36351098 -4.30292225 -0.66265003 0 0 Z " fill="#F8DAD7" transform="translate(346,355)"/>
<path d="M0 0 C0.66 0.33 1.32 0.66 2 1 C2.02887512 4.64581687 2.04675585 8.29160463 2.0625 11.9375 C2.07087891 12.97841797 2.07925781 14.01933594 2.08789062 15.09179688 C2.09272461 16.57583008 2.09272461 16.57583008 2.09765625 18.08984375 C2.10551147 19.46450806 2.10551147 19.46450806 2.11352539 20.86694336 C2 23 2 23 1 24 C-7.14193827 24.70799463 -14.28309193 23.55204834 -22 21 C-14.86013302 18.94902309 -7.06796533 21.71491539 0 23 C0 15.41 0 7.82 0 0 Z " fill="#F8D6D4" transform="translate(803,410)"/>
<path d="M0 0 C0.99 0.33 1.98 0.66 3 1 C-5.28493343 8.92471893 -12.7781906 11.5078569 -24.22045898 11.34521484 C-29.08342635 11.17388921 -33.39532764 10.53489079 -38 9 C-38 8.67 -38 8.34 -38 8 C-37.34515625 8.00523682 -36.6903125 8.01047363 -36.015625 8.01586914 C-33.01042667 8.036827 -30.00524379 8.0497195 -27 8.0625 C-25.97003906 8.07087891 -24.94007813 8.07925781 -23.87890625 8.08789062 C-18.14974387 8.10613637 -12.66515899 7.86475384 -7 7 C-7 6.34 -7 5.68 -7 5 C-5.03277992 3.61876037 -3.03131672 2.28511874 -1 1 C-0.67 0.67 -0.34 0.34 0 0 Z " fill="#F7D5D3" transform="translate(480,578)"/>
<path d="M0 0 C0.66 0.33 1.32 0.66 2 1 C-3.855979 6.0751818 -7.33609991 7.1500189 -15.16796875 7.09765625 C-16.36018791 7.09553383 -16.36018791 7.09553383 -17.57649231 7.09336853 C-20.11353325 7.08777378 -22.65048575 7.07522228 -25.1875 7.0625 C-26.90820185 7.05748432 -28.62890508 7.05292153 -30.34960938 7.04882812 C-34.5664403 7.03780607 -38.78320516 7.02054506 -43 7 C-43 6.67 -43 6.34 -43 6 C-42.00145996 5.9498877 -41.00291992 5.89977539 -39.97412109 5.84814453 C-36.2500154 5.65901583 -32.52657119 5.45882036 -28.80322266 5.25537109 C-27.19530777 5.16904226 -25.58723131 5.08566775 -23.97900391 5.00537109 C-21.65998767 4.8890613 -19.34177089 4.76194429 -17.0234375 4.6328125 C-16.31069672 4.59938751 -15.59795593 4.56596252 -14.86361694 4.53152466 C-9.16309052 4.19724208 -4.76470779 3.17647186 0 0 Z " fill="#B77775" transform="translate(367,511)"/>
<path d="M0 0 C1.20849609 0.00322266 2.41699219 0.00644531 3.66210938 0.00976562 C4.92474609 0.01814453 6.18738281 0.02652344 7.48828125 0.03515625 C9.39963867 0.04192383 9.39963867 0.04192383 11.34960938 0.04882812 C14.50004689 0.06062752 17.65039074 0.07709028 20.80078125 0.09765625 C20.80078125 0.75765625 20.80078125 1.41765625 20.80078125 2.09765625 C19.59131836 2.09596436 19.59131836 2.09596436 18.35742188 2.09423828 C14.67104451 2.10641328 10.98670268 2.16414956 7.30078125 2.22265625 C6.03234375 2.22007812 4.76390625 2.2175 3.45703125 2.21484375 C-4.51240723 2.38087372 -9.54409256 3.25328371 -15.19921875 9.09765625 C-15.85921875 8.43765625 -16.51921875 7.77765625 -17.19921875 7.09765625 C-16.20921875 7.09765625 -15.21921875 7.09765625 -14.19921875 7.09765625 C-14.19921875 6.10765625 -14.19921875 5.11765625 -14.19921875 4.09765625 C-12.54921875 3.76765625 -10.89921875 3.43765625 -9.19921875 3.09765625 C-9.19921875 2.43765625 -9.19921875 1.77765625 -9.19921875 1.09765625 C-5.90187229 -0.00145924 -3.4696313 -0.01628935 0 0 Z " fill="#C17C78" transform="translate(601.19921875,397.90234375)"/>
<path d="M0 0 C0.86560547 0.01353516 1.73121094 0.02707031 2.62304688 0.04101562 C4.72814174 0.0759067 6.83290974 0.12969335 8.9375 0.1875 C8.9375 0.5175 8.9375 0.8475 8.9375 1.1875 C7.91011719 1.21328125 6.88273438 1.2390625 5.82421875 1.265625 C-6.2692103 1.70323063 -17.80288927 3.64568855 -27.0625 12.1875 C-29.3741255 15.37792528 -31.29071859 18.67172983 -33.0625 22.1875 C-34.0625 19.1875 -34.0625 19.1875 -32.625 15.9375 C-29.96251972 11.57140472 -26.29227797 8.04498861 -22.0625 5.1875 C-21.0725 5.1875 -20.0825 5.1875 -19.0625 5.1875 C-19.0625 4.5275 -19.0625 3.8675 -19.0625 3.1875 C-12.55597698 0.57013677 -6.98082591 -0.21121196 0 0 Z " fill="#BC817D" transform="translate(560.0625,486.8125)"/>
<path d="M0 0 C-1.20556604 0.63032133 -2.41463189 1.2539497 -3.625 1.875 C-4.63433594 2.39707031 -4.63433594 2.39707031 -5.6640625 2.9296875 C-10.60859598 5.19524298 -14.82387446 6.24926857 -20.2734375 6.1953125 C-22.00400391 6.18564453 -22.00400391 6.18564453 -23.76953125 6.17578125 C-24.95933594 6.15902344 -26.14914063 6.14226562 -27.375 6.125 C-28.58800781 6.11597656 -29.80101562 6.10695313 -31.05078125 6.09765625 C-34.03405773 6.07416588 -37.01692594 6.04131682 -40 6 C-36.69677033 3.79784688 -35.65091109 3.75129773 -31.80859375 3.7265625 C-30.26655273 3.695625 -30.26655273 3.695625 -28.69335938 3.6640625 C-26.55020693 3.63834981 -24.40695259 3.61992654 -22.26367188 3.609375 C-15.80274943 3.46481738 -10.88637677 2.5772064 -5.04321289 -0.24462891 C-3 -1 -3 -1 0 0 Z " fill="#FCF0F0" transform="translate(266,382)"/>
<path d="M0 0 C1.20064087 0.0012085 1.20064087 0.0012085 2.42553711 0.00244141 C7.96222269 0.0599215 12.95109842 0.45331403 18.25 2.1875 C18.745 3.1775 18.745 3.1775 19.25 4.1875 C17.97382812 4.02507812 16.69765625 3.86265625 15.3828125 3.6953125 C10.28473915 3.13063353 5.24998012 3.03909826 0.125 3.0625 C-0.72964844 3.05863281 -1.58429687 3.05476563 -2.46484375 3.05078125 C-7.33317144 3.05825948 -11.95027832 3.36803532 -16.75 4.1875 C-12.55619199 -0.88921496 -6.06615789 -0.00626216 0 0 Z " fill="#BE746F" transform="translate(571.75,330.8125)"/>
<path d="M0 0 C2.0625 0.4375 2.0625 0.4375 4 1 C0.70093699 2.74251136 -2.63109598 4.39666891 -6 6 C-6.68320312 6.33 -7.36640625 6.66 -8.0703125 7 C-15.65464191 10.0932167 -23.96570781 9.24905383 -32 9 C-32 8.67 -32 8.34 -32 8 C-30.91114502 7.84180786 -30.91114502 7.84180786 -29.80029297 7.68041992 C-26.49020018 7.19339286 -23.18268565 6.69060484 -19.875 6.1875 C-18.73289062 6.02185547 -17.59078125 5.85621094 -16.4140625 5.68554688 C-7.50109475 4.56939434 -7.50109475 4.56939434 0 0 Z " fill="#F7D6D5" transform="translate(586,580)"/>
<path d="M0 0 C-0.75023437 0.3403125 -1.50046875 0.680625 -2.2734375 1.03125 C-12.47907874 5.86414812 -20.89255241 11.14714063 -26.74609375 21.01953125 C-27.98399066 22.97471422 -29.30601313 24.4344203 -31 26 C-29.79132931 20.48155495 -27.89047035 17.03263444 -23.9375 12.9375 C-23.44870361 12.41945801 -22.95990723 11.90141602 -22.45629883 11.36767578 C-17.03009598 5.76785559 -8.32038347 -2.77346116 0 0 Z " fill="#B57B75" transform="translate(326,336)"/>
<path d="M0 0 C2 4 2 4 2 11 C-6.58 11 -15.16 11 -24 11 C-24 10.34 -24 9.68 -24 9 C-16.08 9 -8.16 9 0 9 C0 6.03 0 3.06 0 0 Z " fill="#F9DCDC" transform="translate(686,509)"/>
<path d="M0 0 C1.07765625 0.01804687 2.1553125 0.03609375 3.265625 0.0546875 C4.49539063 0.08949219 4.49539063 0.08949219 5.75 0.125 C5.75 0.455 5.75 0.785 5.75 1.125 C5.1209375 1.13917969 4.491875 1.15335937 3.84375 1.16796875 C-2.59220047 1.52659852 -7.49845319 2.57407406 -12.25 7.125 C-18.05683265 14.62188096 -18.11651898 23.0240215 -18.25 32.125 C-18.58 32.125 -18.91 32.125 -19.25 32.125 C-20.0524055 12.51064338 -20.0524055 12.51064338 -13.73828125 5.4296875 C-12.25 4.125 -12.25 4.125 -10.25 4.125 C-10.25 3.465 -10.25 2.805 -10.25 2.125 C-6.7733662 -0.01836161 -4.03770805 -0.08777626 0 0 Z " fill="#BA847F" transform="translate(400.25,105.875)"/>
<path d="M0 0 C1.1378746 3.41362381 0.87837757 3.87577974 -0.39453125 7.05859375 C-2.18581244 12.08988154 -2.54341855 16.75618614 -2.6875 22.0625 C-2.72166016 22.92810547 -2.75582031 23.79371094 -2.79101562 24.68554688 C-2.87240114 26.78994387 -2.93789769 28.8949457 -3 31 C-5 29 -5 29 -5.23046875 25.296875 C-5.22647309 23.78118759 -5.21169705 22.26549952 -5.1875 20.75 C-5.18685547 19.99847656 -5.18621094 19.24695313 -5.18554688 18.47265625 C-5.15209167 14.212693 -4.83479697 10.19401996 -4 6 C-3.34 6 -2.68 6 -2 6 C-1.34 4.02 -0.68 2.04 0 0 Z " fill="#C1736E" transform="translate(294,362)"/>
<path d="M0 0 C0.54527344 0.19335938 1.09054687 0.38671875 1.65234375 0.5859375 C7.0438052 2.44760453 12.40921726 3.87655666 18 5 C18 5.66 18 6.32 18 7 C19.546875 6.938125 19.546875 6.938125 21.125 6.875 C24.86829627 6.99575149 27.53734547 7.64872018 31 9 C31 9.66 31 10.32 31 11 C19.77032879 9.00309194 9.89284319 6.9238582 0 1 C0 0.67 0 0.34 0 0 Z " fill="#C77B77" transform="translate(554,522)"/>
<path d="M0 0 C1.11568359 -0.01224609 2.23136719 -0.02449219 3.38085938 -0.03710938 C17.00619152 -0.06133937 17.00619152 -0.06133937 21.625 3.8125 C22.1509375 4.493125 22.1509375 4.493125 22.6875 5.1875 C21.99269531 4.9709375 21.29789062 4.754375 20.58203125 4.53125 C13.27181374 2.52997372 6.49491373 1.88567903 -1.0625 1.875 C-2.37383911 1.86726563 -2.37383911 1.86726563 -3.71166992 1.859375 C-9.50957575 1.92069953 -14.6927225 2.75980349 -20.3125 4.1875 C-14.14677449 -0.87720309 -7.66581679 0.00438297 0 0 Z " fill="#BC847F" transform="translate(458.3125,486.8125)"/>
<path d="M0 0 C-1.00963195 2.92793267 -1.89538197 3.93343128 -4.54345703 5.6184082 C-8.78893483 7.31533989 -12.16304848 7.38281766 -16.6796875 7.29296875 C-17.49245148 7.28872391 -18.30521545 7.28447906 -19.14260864 7.28010559 C-21.72041959 7.26340804 -24.2974282 7.22577362 -26.875 7.1875 C-28.63019699 7.17244158 -30.38540631 7.1587552 -32.140625 7.14648438 C-36.42738913 7.11353392 -40.71355886 7.06181453 -45 7 C-45 6.67 -45 6.34 -45 6 C-32.13 5.67 -19.26 5.34 -6 5 C-6 4.34 -6 3.68 -6 3 C-5.34 3 -4.68 3 -4 3 C-4 2.34 -4 1.68 -4 1 C-2 0 -2 0 0 0 Z " fill="#B26A67" transform="translate(253,356)"/>
<path d="M0 0 C0.99 0.33 1.98 0.66 3 1 C2.41992188 1.42410156 1.83984375 1.84820312 1.2421875 2.28515625 C-7.07107258 8.52696044 -12.26390108 14.75832024 -17 24 C-17.33 24 -17.66 24 -18 24 C-18 22.02 -18 20.04 -18 18 C-17.34 18 -16.68 18 -16 18 C-15.7525 16.7315625 -15.7525 16.7315625 -15.5 15.4375 C-13.39682282 10.61771896 -10.03374763 8.23751439 -6 5 C-5.42121094 4.47535156 -4.84242188 3.95070313 -4.24609375 3.41015625 C-2.6875 2 -2.6875 2 0 0 Z " fill="#B77C76" transform="translate(659,339)"/>
<path d="M0 0 C0.99 0.33 1.98 0.66 3 1 C2.03900391 1.78310547 2.03900391 1.78310547 1.05859375 2.58203125 C-6.74146607 9.21963804 -12.39064404 16.35191389 -16 26 C-17.18301868 22.45094395 -16.58018583 20.72459045 -15.2109375 17.3203125 C-11.69912362 10.59122398 -6.30278709 4.25071688 0 0 Z " fill="#B57C78" transform="translate(539,342)"/>
<path d="M0 0 C4.95 0.33 9.9 0.66 15 1 C15 1.33 15 1.66 15 2 C21.93 2 28.86 2 36 2 C36 2.33 36 2.66 36 3 C24.51570834 5.87687306 11.08889313 4.71843123 0 1 C0 0.67 0 0.34 0 0 Z " fill="#BF807B" transform="translate(470,180)"/>
<path d="M0 0 C0.66 0 1.32 0 2 0 C0.2977752 9.16582582 -6.67965946 17.46834108 -13 24 C-13.33 23.01 -13.66 22.02 -14 21 C-11.6875 17.8125 -11.6875 17.8125 -9 15 C-8.34 15 -7.68 15 -7 15 C-6.89816406 14.45859375 -6.79632812 13.9171875 -6.69140625 13.359375 C-5.82242393 10.39403419 -4.44527709 7.94475054 -2.9375 5.25 C-2.11572266 3.77273437 -2.11572266 3.77273437 -1.27734375 2.265625 C-0.85582031 1.51796875 -0.43429687 0.7703125 0 0 Z " fill="#B67D79" transform="translate(553,141)"/>
<path d="M0 0 C0.33 0 0.66 0 1 0 C1.60559796 20.59033079 1.60559796 20.59033079 -2 28 C-2.66 28.66 -3.32 29.32 -4 30 C-4 28.35 -4 26.7 -4 25 C-3.34 25 -2.68 25 -2 25 C-2.02320313 24.45214844 -2.04640625 23.90429688 -2.0703125 23.33984375 C-2.25072345 15.41464866 -1.16806244 7.82184668 0 0 Z " fill="#F8DEDD" transform="translate(284,336)"/>
<path d="M0 0 C0.66 0 1.32 0 2 0 C0.49966419 5.16602115 -1.78982291 9.54657973 -4.4375 14.1875 C-4.83259766 14.89841797 -5.22769531 15.60933594 -5.63476562 16.34179688 C-7.50663568 19.65260863 -9.20413167 22.38241022 -12 25 C-12 23.35 -12 21.7 -12 20 C-11.34 20 -10.68 20 -10 20 C-10 19.34 -10 18.68 -10 18 C-9.34 18 -8.68 18 -8 18 C-7.67 16.35 -7.34 14.7 -7 13 C-6.34 13 -5.68 13 -5 13 C-4.67 11.02 -4.34 9.04 -4 7 C-3.34 7 -2.68 7 -2 7 C-2 5.68 -2 4.36 -2 3 C-1.34 3 -0.68 3 0 3 C0 2.01 0 1.02 0 0 Z " fill="#F8DBDA" transform="translate(590,168)"/>
<path d="M0 0 C-5.21419043 3.47612696 -10.55087995 3.1823173 -16.625 3.1875 C-17.388125 3.19974609 -18.15125 3.21199219 -18.9375 3.22460938 C-22.82006322 3.23482665 -24.69678923 3.20214051 -28 1 C-27.01604248 0.96241577 -27.01604248 0.96241577 -26.01220703 0.92407227 C-23.04959817 0.8082674 -20.08731969 0.68547114 -17.125 0.5625 C-16.09246094 0.52318359 -15.05992187 0.48386719 -13.99609375 0.44335938 C-13.00996094 0.40146484 -12.02382813 0.35957031 -11.0078125 0.31640625 C-10.09660645 0.27974854 -9.18540039 0.24309082 -8.24658203 0.20532227 C-1.40104398 -0.42031319 -1.40104398 -0.42031319 0 0 Z " fill="#F8D8D4" transform="translate(358,431)"/>
<path d="M0 0 C2 2 2 2 2.5 4.8125 C1.95124841 8.31079141 1.04843177 9.95399315 -1.8125 12.0859375 C-6.54475638 14.06334463 -12.00677866 13.79998206 -17 13 C-18.89453125 11.46875 -18.89453125 11.46875 -20 10 C-18.46279297 10.17789063 -18.46279297 10.17789063 -16.89453125 10.359375 C-15.53396535 10.49073998 -14.17328117 10.62088402 -12.8125 10.75 C-12.13896484 10.83121094 -11.46542969 10.91242187 -10.77148438 10.99609375 C-7.11874128 11.31682241 -5.21810368 11.12856638 -2.03125 9.25 C0.37831087 7.03793766 0.37831087 7.03793766 0.3125 3.25 C0.209375 2.1775 0.10625 1.105 0 0 Z " fill="#BC756F" transform="translate(573,553)"/>
<path d="M0 0 C1.65 0 3.3 0 5 0 C5 3.3 5 6.6 5 10 C12.59 10 20.18 10 28 10 C28 10.33 28 10.66 28 11 C20.08 11 12.16 11 4 11 C3.67 8.03 3.34 5.06 3 2 C2.01 2.33 1.02 2.66 0 3 C0 2.01 0 1.02 0 0 Z " fill="#F8D7D3" transform="translate(483,575)"/>
<path d="M0 0 C-7.09311168 4.83441131 -15.10057929 9.93678113 -24 9 C-20.72771198 5.72771198 -16.25227162 5.22845732 -11.87109375 4 C-8.87466612 3.33063419 -8.87466612 3.33063419 -8 1 C-3.6 -1.2 -3.6 -1.2 0 0 Z " fill="#B77A76" transform="translate(530,173)"/>
<path d="M0 0 C0 0.33 0 0.66 0 1 C-1.16015625 1.03867187 -1.16015625 1.03867187 -2.34375 1.078125 C-11.82385548 1.59436837 -17.8326164 3.72853935 -25 10 C-25 8.68 -25 7.36 -25 6 C-24.01 6 -23.02 6 -22 6 C-22 5.34 -22 4.68 -22 4 C-14.75903687 -0.63421641 -8.44333791 -0.42691034 0 0 Z " fill="#F9DCD9" transform="translate(464,511)"/>
<path d="M0 0 C-0.845625 0.495 -1.69125 0.99 -2.5625 1.5 C-7.72902629 4.92389747 -11.59115781 9.88673671 -15 15 C-14.74821616 10.71967476 -14.47140149 8.5458333 -11.625 5.25 C-10.75875 4.5075 -9.8925 3.765 -9 3 C-8.46375 2.4225 -7.9275 1.845 -7.375 1.25 C-4.74830991 -1.13790008 -3.28790417 -1.09596806 0 0 Z " fill="#F9DEDC" transform="translate(563,359)"/>
<path d="M0 0 C1.01964844 -0.01417969 2.03929687 -0.02835937 3.08984375 -0.04296875 C6.13409667 0.19305086 8.30987643 0.90497005 11.0625 2.1875 C11.0625 2.8475 11.0625 3.5075 11.0625 4.1875 C10.40894531 4.02378906 9.75539063 3.86007812 9.08203125 3.69140625 C5.29258226 3.05901437 1.57759049 3.08053291 -2.25 3.125 C-3.36084961 3.13176758 -3.36084961 3.13176758 -4.49414062 3.13867188 C-6.30862899 3.15037825 -8.12307534 3.16831102 -9.9375 3.1875 C-9.9375 2.5275 -9.9375 1.8675 -9.9375 1.1875 C-6.58649517 0.18300215 -3.49105702 0.02201171 0 0 Z " fill="#FAE3E2" transform="translate(572.9375,354.8125)"/>
<path d="M0 0 C2.70548097 2.70548097 2.81368485 4.807863 3.1640625 8.53515625 C2.88847756 12.67549195 1.01240307 16.1579642 -2 19 C-3.32 19 -4.64 19 -6 19 C-5.01 18.67 -4.02 18.34 -3 18 C-1.08577835 15.08309081 -0.65803189 12.43831335 -0.375 9 C-0.30023438 8.154375 -0.22546875 7.30875 -0.1484375 6.4375 C-0.01796872 4.29506522 0 2.14640371 0 0 Z " fill="#F8D8D5" transform="translate(506,303)"/>
<path d="M0 0 C0.66 0.33 1.32 0.66 2 1 C-1.18529084 4.79784677 -3.12447374 5.48678671 -8 6 C-11.79296048 6.1108309 -15.58085937 6.09432182 -19.375 6.0625 C-20.39722656 6.05798828 -21.41945313 6.05347656 -22.47265625 6.04882812 C-24.98183194 6.037103 -27.4908849 6.02069176 -30 6 C-30 5.67 -30 5.34 -30 5 C-29.39526855 4.98018066 -28.79053711 4.96036133 -28.16748047 4.93994141 C-25.40291491 4.84413701 -22.63904826 4.73468445 -19.875 4.625 C-18.44800781 4.57859375 -18.44800781 4.57859375 -16.9921875 4.53125 C-10.54228038 4.26250387 -5.48975039 3.65983359 0 0 Z " fill="#C66D66" transform="translate(367,511)"/>
<path d="M0 0 C0.66 0 1.32 0 2 0 C0.72978596 5.78653063 -2.37812253 9.46046093 -7 13 C-9.2265625 13.69921875 -9.2265625 13.69921875 -11 14 C-11 13.34 -11 12.68 -11 12 C-10.34 12 -9.68 12 -9 12 C-9 11.34 -9 10.68 -9 10 C-7.7934375 9.319375 -7.7934375 9.319375 -6.5625 8.625 C-3.84763807 7.26579005 -3.84763807 7.26579005 -3.1875 4.8125 C-3.125625 4.214375 -3.06375 3.61625 -3 3 C-2.34 3 -1.68 3 -1 3 C-0.67 2.01 -0.34 1.02 0 0 Z " fill="#B47A75" transform="translate(482,548)"/>
<path d="M0 0 C-7.86956185 4.11454249 -14.03908822 6.35843647 -23 6 C-23 5.67 -23 5.34 -23 5 C-22.39414063 4.90203125 -21.78828125 4.8040625 -21.1640625 4.703125 C-15.43682782 3.68103389 -10.42770487 2.11402966 -5.12890625 -0.29296875 C-3 -1 -3 -1 0 0 Z " fill="#F9DCDC" transform="translate(266,382)"/>
<path d="M0 0 C0.99 0.33 1.98 0.66 3 1 C2.49210938 1.31710937 1.98421875 1.63421875 1.4609375 1.9609375 C-4.52684883 6.02007355 -7.67849525 10.63378256 -11 17 C-12 14 -12 14 -10.5625 10.75 C-7.92305263 6.4309043 -4.30128354 2.68499013 0 0 Z " fill="#B57B78" transform="translate(538,492)"/>
<path d="M0 0 C0.66 0 1.32 0 2 0 C0.50114631 7.18472257 -3.57172687 13.19210094 -9 18 C-8.32902328 13.80639551 -6.1441606 10.59665648 -4 7 C-3.34 7 -2.68 7 -2 7 C-1.855625 6.21625 -1.71125 5.4325 -1.5625 4.625 C-1 2 -1 2 0 0 Z " fill="#F8D9D5" transform="translate(621,400)"/>
<path d="M0 0 C0.33 0 0.66 0 1 0 C1.03738281 0.94359375 1.07476562 1.8871875 1.11328125 2.859375 C1.54270748 11.24581664 2.60235998 18.90231011 5 27 C4.01 26.67 3.02 26.34 2 26 C-0.33447255 17.32910197 -0.19865739 8.89543642 0 0 Z " fill="#C68C89" transform="translate(406,532)"/>
<path d="M0 0 C0.99 0.33 1.98 0.66 3 1 C2.45730469 1.56847656 1.91460937 2.13695313 1.35546875 2.72265625 C-2.86941104 7.28248147 -5.99064318 11.09751435 -8 17 C-8.33 17 -8.66 17 -9 17 C-8.63033175 9.72985782 -8.63033175 9.72985782 -5.625 6.25 C-4.75875 5.5075 -3.8925 4.765 -3 4 C-1.97186389 2.68824014 -0.95915568 1.3630107 0 0 Z " fill="#B77672" transform="translate(462,94)"/>
<path d="M0 0 C0.99 0.33 1.98 0.66 3 1 C-7.22115959 8.01852959 -7.22115959 8.01852959 -12 10 C-12.66 9.67 -13.32 9.34 -14 9 C-12.67460139 6.34920279 -11.38025386 6.09657408 -8.6875 4.9375 C-7.51767578 4.42509766 -7.51767578 4.42509766 -6.32421875 3.90234375 C-4.22439203 3.08711691 -2.19589876 2.48741918 0 2 C0 1.34 0 0.68 0 0 Z " fill="#F8D6D5" transform="translate(384,532)"/>
<path d="M0 0 C1.49080078 0.02707031 1.49080078 0.02707031 3.01171875 0.0546875 C3.77097656 0.07789063 4.53023438 0.10109375 5.3125 0.125 C5.3125 0.785 5.3125 1.445 5.3125 2.125 C4.66023438 2.16238281 4.00796875 2.19976562 3.3359375 2.23828125 C-2.00372957 2.63993762 -6.0079092 3.29261609 -10.6875 6.125 C-8.35628421 0.74527125 -5.66952152 -0.13340051 0 0 Z " fill="#BE7470" transform="translate(492.6875,293.875)"/>
<path d="M0 0 C1.00719851 3.09989972 1.00792373 4.81690145 -0.14453125 7.85546875 C-0.54188477 8.91217773 -0.54188477 8.91217773 -0.94726562 9.99023438 C-1.23279297 10.71533203 -1.51832031 11.44042969 -1.8125 12.1875 C-2.08642578 12.92419922 -2.36035156 13.66089844 -2.64257812 14.41992188 C-4.73178714 19.86589357 -4.73178714 19.86589357 -7 21 C-6.67 18.69 -6.34 16.38 -6 14 C-5.34 14 -4.68 14 -4 14 C-3.81824219 13.11248047 -3.81824219 13.11248047 -3.6328125 12.20703125 C-2.73255357 7.96196415 -1.79543379 3.97560339 0 0 Z " fill="#BB7873" transform="translate(562,120)"/>
<path d="M0 0 C1.77074917 -0.02705729 3.54161711 -0.04642195 5.3125 -0.0625 C6.29863281 -0.07410156 7.28476562 -0.08570313 8.30078125 -0.09765625 C11 0 11 0 14 1 C14 1.66 14 2.32 14 3 C14.99 3 15.98 3 17 3 C17 3.66 17 4.32 17 5 C8.585 3.02 8.585 3.02 0 1 C0 0.67 0 0.34 0 0 Z " fill="#F5CFCB" transform="translate(638,545)"/>
<path d="M0 0 C1.32 0.33 2.64 0.66 4 1 C-1 4 -6 7 -11 10 C-10.01508224 6.35580428 -9.34173648 5.21085868 -6.0625 3.1875 C-3 2 -3 2 0 2 C0 1.34 0 0.68 0 0 Z " fill="#B77A71" transform="translate(434,491)"/>
<path d="M0 0 C-1.07749442 0.82022749 -2.16229508 1.63086169 -3.25 2.4375 C-3.85328125 2.88996094 -4.4565625 3.34242188 -5.078125 3.80859375 C-7.06292756 5.03900997 -8.71987655 5.56112668 -11 6 C-11.33 5.01 -11.66 4.02 -12 3 C-10.3789897 2.30314502 -8.75303934 1.61777139 -7.125 0.9375 C-6.22007812 0.55464844 -5.31515625 0.17179688 -4.3828125 -0.22265625 C-2 -1 -2 -1 0 0 Z " fill="#F9DBDA" transform="translate(678,580)"/>
<path d="M0 0 C1.98 0.495 1.98 0.495 4 1 C3.505 1.37125 3.01 1.7425 2.5 2.125 C0.37963246 4.77545942 0.71877501 6.69560641 1 10 C1.33 10.66 1.66 11.32 2 12 C1.01 11.67 0.02 11.34 -1 11 C-1.0270043 9.54176788 -1.04639787 8.08339325 -1.0625 6.625 C-1.07410156 5.81289063 -1.08570313 5.00078125 -1.09765625 4.1640625 C-1 2 -1 2 0 0 Z " fill="#F9DFDC" transform="translate(639,511)"/>
<path d="M0 0 C-1.09351553 3.17119503 -2.0126988 4.00783543 -4.9375 5.8125 C-8 7 -8 7 -11 6 C-9.35 5.67 -7.7 5.34 -6 5 C-6 4.34 -6 3.68 -6 3 C-5.34 3 -4.68 3 -4 3 C-4 2.34 -4 1.68 -4 1 C-2 0 -2 0 0 0 Z " fill="#B77B76" transform="translate(253,356)"/>
<path d="M0 0 C7.42857143 -0.28571429 7.42857143 -0.28571429 11 2 C11 2.66 11 3.32 11 4 C7.37 3.01 3.74 2.02 0 1 C0 0.67 0 0.34 0 0 Z " fill="#C87D78" transform="translate(572,488)"/>
<path d="M0 0 C1.258125 -0.020625 2.51625 -0.04125 3.8125 -0.0625 C4.52019531 -0.07410156 5.22789062 -0.08570313 5.95703125 -0.09765625 C8 0 8 0 11 1 C11 1.66 11 2.32 11 3 C9.741875 2.87625 8.48375 2.7525 7.1875 2.625 C6.12595703 2.52058594 6.12595703 2.52058594 5.04296875 2.4140625 C3 2 3 2 0 0 Z " fill="#C67773" transform="translate(364,458)"/>
<path d="M0 0 C3.83134499 -0.218934 6.58442859 0.19733731 10 2 C10.33 2.99 10.66 3.98 11 5 C9.53932801 4.54917531 8.08151968 4.08906463 6.625 3.625 C5.81289063 3.36976563 5.00078125 3.11453125 4.1640625 2.8515625 C2 2 2 2 0 0 Z " fill="#F7D5D0" transform="translate(449,233)"/>
<path d="M0 0 C1.32 0.33 2.64 0.66 4 1 C-0.95 3.475 -0.95 3.475 -6 6 C-6.33 5.34 -6.66 4.68 -7 4 C-6.030625 3.525625 -5.06125 3.05125 -4.0625 2.5625 C-1.19522563 1.29806053 -1.19522563 1.29806053 0 0 Z " fill="#F8DAD8" transform="translate(586,580)"/>
<path d="M0 0 C1.65 0 3.3 0 5 0 C5 3.3 5 6.6 5 10 C4.67 10 4.34 10 4 10 C3.67 7.36 3.34 4.72 3 2 C2.01 2.33 1.02 2.66 0 3 C0 2.01 0 1.02 0 0 Z " fill="#F3E1DE" transform="translate(483,575)"/>
<path d="M0 0 C0.99 0.33 1.98 0.66 3 1 C-0.465 3.97 -0.465 3.97 -4 7 C-4.33 6.01 -4.66 5.02 -5 4 C-2.6875 1.9375 -2.6875 1.9375 0 0 Z " fill="#F9DDDA" transform="translate(480,578)"/>
<path d="M0 0 C0.66 0 1.32 0 2 0 C1.1875 2.9375 1.1875 2.9375 0 6 C-0.99 6.33 -1.98 6.66 -3 7 C-3 5.68 -3 4.36 -3 3 C-2.34 3 -1.68 3 -1 3 C-0.67 2.01 -0.34 1.02 0 0 Z " fill="#BD716B" transform="translate(482,548)"/>
<path d="M0 0 C2.97 0 5.94 0 9 0 C9 0.66 9 1.32 9 2 C9.66 2.33 10.32 2.66 11 3 C9.741875 2.87625 8.48375 2.7525 7.1875 2.625 C6.12595703 2.52058594 6.12595703 2.52058594 5.04296875 2.4140625 C3 2 3 2 0 0 Z " fill="#C67D77" transform="translate(793,407)"/>
<path d="M0 0 C-2.31 1.65 -4.62 3.3 -7 5 C-7.66 4.34 -8.32 3.68 -9 3 C-8.01 3 -7.02 3 -6 3 C-6 2.01 -6 1.02 -6 0 C-3 -1 -3 -1 0 0 Z " fill="#BA7A74" transform="translate(593,402)"/>
<path d="M0 0 C0.99 0.33 1.98 0.66 3 1 C1.8803014 2.00593243 0.7540588 3.0045849 -0.375 4 C-1.00148438 4.556875 -1.62796875 5.11375 -2.2734375 5.6875 C-4 7 -4 7 -6 7 C-4.75686537 3.27059611 -3.23014784 2.15343189 0 0 Z " fill="#B5817A" transform="translate(536,165)"/>
<path d="M0 0 C0.66 0 1.32 0 2 0 C1.37240135 2.92879371 0.41377341 5.36095629 -1 8 C-1.66 8 -2.32 8 -3 8 C-2.37240135 5.07120629 -1.41377341 2.63904371 0 0 Z " fill="#BB736E" transform="translate(553,141)"/>
<path d="M0 0 C1.258125 -0.020625 2.51625 -0.04125 3.8125 -0.0625 C4.52019531 -0.07410156 5.22789062 -0.08570313 5.95703125 -0.09765625 C8 0 8 0 11 1 C11 1.66 11 2.32 11 3 C7.31733897 2.40049704 3.65456815 1.75241109 0 1 C0 0.67 0 0.34 0 0 Z " fill="#F7D9D6" transform="translate(552,545)"/>
<path d="M0 0 C6.75 -0.125 6.75 -0.125 9 1 C9 1.66 9 2.32 9 3 C2.25 2.25 2.25 2.25 0 0 Z " fill="#F8DBD8" transform="translate(321,429)"/>
<path d="M0 0 C0.66 0.33 1.32 0.66 2 1 C1.04882866 2.1725131 0.08882991 3.33787015 -0.875 4.5 C-1.40867187 5.1496875 -1.94234375 5.799375 -2.4921875 6.46875 C-2.98976563 6.9740625 -3.48734375 7.479375 -4 8 C-4.66 8 -5.32 8 -6 8 C-5.34 6.68 -4.68 5.36 -4 4 C-3.34 4 -2.68 4 -2 4 C-1.34 2.68 -0.68 1.36 0 0 Z " fill="#F8D7D0" transform="translate(275,371)"/>
<path d="M0 0 C2.25 -0.25 2.25 -0.25 5 0 C7.3125 2 7.3125 2 9 4 C4.545 3.01 4.545 3.01 0 2 C0 1.34 0 0.68 0 0 Z " fill="#C87F78" transform="translate(472,488)"/>
<path d="M0 0 C0.99 0.33 1.98 0.66 3 1 C1.824375 1.928125 1.824375 1.928125 0.625 2.875 C-1.96837647 4.89858661 -1.96837647 4.89858661 -4 7 C-4 5.68 -4 4.36 -4 3 C-3.34 3 -2.68 3 -2 3 C-2 2.34 -2 1.68 -2 1 C-1.34 0.67 -0.68 0.34 0 0 Z " fill="#F8D9D8" transform="translate(326,361)"/>
<path d="M0 0 C5.625 -0.25 5.625 -0.25 9 2 C9 2.66 9 3.32 9 4 C6.03 3.01 3.06 2.02 0 1 C0 0.67 0 0.34 0 0 Z " fill="#F8DCD8" transform="translate(350,357)"/>
<path d="M0 0 C0.99 0.33 1.98 0.66 3 1 C1.37660195 2.70884005 -0.29319053 4.37446717 -2 6 C-2.66 6 -3.32 6 -4 6 C-4 5.01 -4 4.02 -4 3 C-3.01 3 -2.02 3 -1 3 C-0.67 2.01 -0.34 1.02 0 0 Z " fill="#F7D1CE" transform="translate(558,214)"/>
</svg>
