<?xml version="1.0" encoding="UTF-8"?>
<svg version="1.1" xmlns="http://www.w3.org/2000/svg" width="1772" height="468">
<path d="M0 0 C584.76 0 1169.52 0 1772 0 C1772 154.44 1772 308.88 1772 468 C1187.24 468 602.48 468 0 468 C0 313.56 0 159.12 0 0 Z " fill="#F6F6F6" transform="translate(0,0)"/>
<path d="M0 0 C5.38947418 2.25396225 9.09453388 6.66076196 11.50634766 11.89086914 C12.53374253 14.63706788 13.46782881 17.39935938 14.375 20.1875 C21.84259059 41.74385059 33.73539521 59.50682625 54.6484375 69.73828125 C63.85443046 74.02094817 72.37559716 74.70212337 82.4375 74.8125 C83.44288818 74.82667969 84.44827637 74.84085937 85.48413086 74.85546875 C101.70062654 74.74948724 117.56497596 68.06621085 129.2800293 56.84423828 C141.30737841 44.62446813 148.42974438 29.04405677 153.52734375 12.890625 C155.73759139 6.49414797 159.67252388 2.75843157 165.375 -0.5625 C170.46787265 -2.26012422 175.39071267 -2.19747195 180.5 -0.5625 C185.88846313 3.18599609 190.50860432 8.04222001 192.375 14.4375 C193.84294444 27.12891061 192.20605703 38.67868557 187.375 50.4375 C186.90030273 51.613125 186.90030273 51.613125 186.41601562 52.8125 C181.52151957 64.74574753 175.72055802 75.83427174 168.375 86.4375 C167.98231934 87.0051709 167.58963867 87.5728418 167.18505859 88.15771484 C158.42233731 100.60347753 147.53661473 112.62581998 134.375 120.4375 C133.30378906 121.09105469 132.23257813 121.74460937 131.12890625 122.41796875 C109.72297358 134.92999063 83.93836013 139.19113822 59.74902344 133.34619141 C44.13000897 129.13889458 30.37909215 121.54314296 18.578125 110.484375 C16.29785819 108.30500676 16.29785819 108.30500676 13.3125 106.0625 C-6.31283591 88.52496578 -26.21570195 55.29965739 -28.06640625 28.42578125 C-28.12438792 26.74270213 -28.16513095 25.05892899 -28.1875 23.375 C-28.20232422 22.60172363 -28.21714844 21.82844727 -28.23242188 21.03173828 C-28.11401651 14.52367197 -26.16576431 9.3237191 -21.84375 4.4140625 C-21.2765625 3.96804687 -20.709375 3.52203125 -20.125 3.0625 C-19.5578125 2.60101563 -18.990625 2.13953125 -18.40625 1.6640625 C-12.37219206 -2.49096862 -6.72926257 -2.64404415 0 0 Z " fill="#DC625B" transform="translate(216.625,171.5625)"/>
<path d="M0 0 C1.31937561 -0.01283524 2.63875122 -0.02567047 3.99810791 -0.03889465 C5.45413842 -0.04706943 6.9101732 -0.05451174 8.36621094 -0.0612793 C9.46581776 -0.06739259 9.46581776 -0.06739259 10.58763885 -0.07362938 C14.47997254 -0.09453576 18.37227067 -0.10880832 22.26464844 -0.11816406 C26.25548705 -0.12913952 30.24575421 -0.16342088 34.23639297 -0.20333576 C37.32685247 -0.22972321 40.41718165 -0.23787606 43.50774384 -0.24144554 C44.97631365 -0.2462677 46.44487941 -0.25775419 47.91333771 -0.27648354 C62.05297681 -0.44537411 74.64333902 2.05035158 85.85058594 11.17700195 C93.56383452 18.90343557 99.92323984 29.48603407 100.10058594 40.61450195 C99.95522433 53.98776942 95.43027851 65.7624765 85.85058594 75.17700195 C79.03727015 81.20158414 69.59946364 85.31743983 60.44921875 85.29052734 C59.57668457 85.29040649 58.70415039 85.29028564 57.80517578 85.29016113 C56.44320068 85.28248718 56.44320068 85.28248718 55.05371094 85.2746582 C54.21243652 85.27365112 53.37116211 85.27264404 52.50439453 85.27160645 C49.36977775 85.26638491 46.23518044 85.25242364 43.10058594 85.23950195 C36.08808594 85.21887695 29.07558594 85.19825195 21.85058594 85.17700195 C21.52058594 99.36700195 21.19058594 113.55700195 20.85058594 128.17700195 C16.41621094 128.19762695 11.98183594 128.21825195 7.41308594 128.23950195 C5.31235718 128.25315796 5.31235718 128.25315796 3.16918945 128.26708984 C2.07533936 128.2695874 0.98148926 128.27208496 -0.14550781 128.2746582 C-1.8343811 128.28251343 -1.8343811 128.28251343 -3.55737305 128.29052734 C-6.14941406 128.17700195 -6.14941406 128.17700195 -7.14941406 127.17700195 C-7.24764499 125.54708641 -7.27573355 123.91290209 -7.27639771 122.2800293 C-7.27921753 121.21991638 -7.28203735 120.15980347 -7.28494263 119.06756592 C-7.2829184 117.89453918 -7.28089417 116.72151245 -7.27880859 115.51293945 C-7.28056091 114.28544983 -7.28231323 113.05796021 -7.28411865 111.79327393 C-7.2877769 108.41731917 -7.28690371 105.04142534 -7.28373957 101.66547394 C-7.28121563 98.13985611 -7.2835536 94.61424097 -7.28512573 91.08862305 C-7.28694733 85.16690603 -7.28454138 79.24520146 -7.27978516 73.32348633 C-7.27434255 66.46783386 -7.27610522 59.61221112 -7.28161156 52.75655937 C-7.28614297 46.88056114 -7.2867931 41.00457188 -7.28417289 35.12857246 C-7.28261027 31.61466102 -7.28241594 28.10076358 -7.28570938 24.58685303 C-7.28912238 20.67157832 -7.28439789 16.75633718 -7.27880859 12.84106445 C-7.28083282 11.66803772 -7.28285706 10.49501099 -7.28494263 9.28643799 C-7.2821228 8.22632507 -7.27930298 7.16621216 -7.27639771 6.07397461 C-7.27602068 5.14702789 -7.27564365 4.22008118 -7.2752552 3.26504517 C-7.00948575 -1.14478531 -3.71447328 0.03134462 0 0 Z " fill="#DC625B" transform="translate(477.1494140625,165.822998046875)"/>
<path d="M0 0 C0.6506543 -0.00817749 1.30130859 -0.01635498 1.97167969 -0.02478027 C4.13906945 -0.04971165 6.30639251 -0.06618553 8.47387695 -0.08056641 C9.21673258 -0.08589008 9.9595882 -0.09121376 10.72495461 -0.09669876 C14.6703043 -0.12348624 18.61562201 -0.14282775 22.56103516 -0.15722656 C25.80546871 -0.17047113 29.04925906 -0.1981358 32.29345703 -0.23925781 C36.22398147 -0.28907676 40.15393027 -0.31340953 44.08475685 -0.32045364 C45.57206306 -0.32709674 47.05936002 -0.34213339 48.54648399 -0.36634445 C62.69757162 -0.58325008 76.02126386 2.27958568 86.7746582 12.19287109 C89.83642461 15.653305 92.37876603 19.24572155 94.7746582 23.19287109 C95.45915039 24.31242187 95.45915039 24.31242187 96.1574707 25.45458984 C98.95323046 31.05588473 99.14565343 36.60843006 99.2121582 42.75537109 C99.22762695 43.94259766 99.22762695 43.94259766 99.2434082 45.15380859 C99.06701915 56.97187537 93.93449382 65.92581577 86.0246582 74.44287109 C76.98563126 83.1023969 65.92601039 85.44793337 53.8059082 85.60693359 C52.98832031 85.62457764 52.17073242 85.64222168 51.32836914 85.66040039 C48.31065562 85.72287255 45.29263017 85.76946793 42.2746582 85.81787109 C35.5096582 85.94162109 28.7446582 86.06537109 21.7746582 86.19287109 C21.4446582 100.05287109 21.1146582 113.91287109 20.7746582 128.19287109 C11.5346582 128.19287109 2.2946582 128.19287109 -7.2253418 128.19287109 C-7.24788873 111.65139737 -7.26632092 95.10993669 -7.27715397 78.56845188 C-7.28231695 70.88848382 -7.28935968 63.20852597 -7.30078125 55.52856445 C-7.31072803 48.8370912 -7.31719521 42.14562533 -7.31943029 35.4541449 C-7.32073741 31.90891508 -7.32382333 28.36370641 -7.33107185 24.81848335 C-7.3390856 20.86718465 -7.33933294 16.91590689 -7.33886719 12.96459961 C-7.34246246 11.78065109 -7.34605774 10.59670258 -7.34976196 9.37687683 C-7.3483873 8.3069046 -7.34701263 7.23693237 -7.34559631 6.13453674 C-7.34651811 5.19891686 -7.3474399 4.26329699 -7.34838963 3.29932499 C-7.08859379 -1.14811602 -3.74563046 0.04077637 0 0 Z " fill="#DB625B" transform="translate(1160.225341796875,165.80712890625)"/>
<path d="M0 0 C11.27663153 8.56470542 18.95201202 18.94161341 22 33 C22.38107026 37.48839452 22.35129064 41.94346942 22.29296875 46.4453125 C22.28872391 47.69633759 22.28447906 48.94736267 22.28010559 50.23629761 C22.26625204 53.52762875 22.23940206 56.81850082 22.20599365 60.10968018 C22.1750482 63.48191778 22.16154853 66.85422318 22.14648438 70.2265625 C22.1135554 76.81788464 22.0634617 83.40890486 22 90 C18.02084841 90.02886984 14.04172347 90.04675406 10.0625 90.0625 C8.35803711 90.07506836 8.35803711 90.07506836 6.61914062 90.08789062 C5.53955078 90.09111328 4.45996094 90.09433594 3.34765625 90.09765625 C1.84730835 90.10551147 1.84730835 90.10551147 0.31665039 90.11352539 C-2 90 -2 90 -3 89 C-3.14115161 86.32941149 -3.04247107 83.67567762 -3 81 C-3.99966797 81.79664063 -3.99966797 81.79664063 -5.01953125 82.609375 C-15.85901424 90.91711861 -25.21125292 94.49844782 -39 93 C-54.89056498 89.64990344 -67.52296753 81.2224075 -76.53125 67.625 C-78.95805093 63.28773877 -80.58749057 58.75392957 -82 54 C-82.19207031 53.39929688 -82.38414063 52.79859375 -82.58203125 52.1796875 C-85.31640631 37.92004933 -82.10326892 24.53512898 -74.046875 12.60546875 C-68.33654753 5.33678855 -61.36970946 -0.14142208 -53 -4 C-52.23945312 -4.391875 -51.47890625 -4.78375 -50.6953125 -5.1875 C-35.07327008 -12.19551903 -14.08951061 -8.88832591 0 0 Z " fill="#DC625B" transform="translate(1348,204)"/>
<path d="M0 0 C10.48698004 8.04709017 18.76132592 18.70541469 21 32 C21.08401486 33.93189395 21.11781301 35.86633367 21.11352539 37.80004883 C21.11341209 39.51125664 21.11341209 39.51125664 21.11329651 41.2570343 C21.10813522 42.47803329 21.10297394 43.69903229 21.09765625 44.95703125 C21.0962413 46.21513107 21.09482635 47.4732309 21.09336853 48.76945496 C21.08872573 52.10178529 21.07975228 55.43404632 21.06866455 58.76635742 C21.05840503 62.17170617 21.05386121 65.5770621 21.04882812 68.98242188 C21.03780829 75.65496945 21.02054835 82.32747524 21 89 C13.08 89 5.16 89 -3 89 C-3 85.7 -3 82.4 -3 79 C-3.59425781 79.51949219 -4.18851563 80.03898437 -4.80078125 80.57421875 C-13.87973264 88.21296323 -21.69497808 92.85234202 -33.81640625 92.28125 C-34.86699219 92.1884375 -35.91757812 92.095625 -37 92 C-38.37478516 91.89171875 -38.37478516 91.89171875 -39.77734375 91.78125 C-53.49300116 90.00888898 -65.49373303 82.04657638 -74.0625 71.44921875 C-80.93583404 62.01270389 -84.40562303 52.26141286 -84.3125 40.5625 C-84.30686035 39.81532715 -84.3012207 39.0681543 -84.29541016 38.29833984 C-84.17240133 32.71179065 -83.49130814 28.05782559 -81 23 C-80.58621094 22.12085938 -80.17242188 21.24171875 -79.74609375 20.3359375 C-72.7106615 6.41843392 -61.74499436 -2.8253416 -47 -8 C-31.17652445 -12.29985749 -13.44203405 -8.91603126 0 0 Z " fill="#DB635C" transform="translate(666,205)"/>
<path d="M0 0 C0.91571777 0.00757324 1.83143555 0.01514648 2.77490234 0.02294922 C10.26879237 0.20405046 16.7838572 1.41241476 23.6875 4.4375 C24.6259375 4.83839844 25.564375 5.23929688 26.53125 5.65234375 C39.07971333 11.73270871 48.15129581 22.28778414 52.7109375 35.375 C54.88750372 43.042903 56.25734867 51.72795399 53.6875 59.4375 C16.0675 59.9325 16.0675 59.9325 -22.3125 60.4375 C-19.05467129 68.58207177 -15.02339494 71.74535878 -7.3125 75.4375 C-0.20605166 77.80631611 6.00607779 76.32556726 12.9140625 73.8984375 C15.55314051 72.50827528 16.63687749 71.42912255 18.62109375 69.3125 C23.85303493 64.64968219 30.52602146 65.80267147 37.125 66.0625 C39.08083008 66.10310547 39.08083008 66.10310547 41.07617188 66.14453125 C44.28165897 66.21498152 47.48371337 66.31345783 50.6875 66.4375 C49.74934173 72.7684433 47.4351942 76.34871916 43.6875 81.4375 C42.945 82.46875 42.2025 83.5 41.4375 84.5625 C31.99175671 94.43759526 18.50357311 100.7372859 4.8515625 101.62109375 C-11.40510685 101.9763166 -25.46389453 97.55008869 -37.5078125 86.40625 C-46.74983476 76.70739774 -52.17343247 63.84609467 -52.6875 50.4375 C-52.09754398 34.4317366 -44.86862897 22.78334741 -33.71484375 11.875 C-24.20040615 3.39416425 -12.54825774 -0.14696788 0 0 Z " fill="#DB635C" transform="translate(863.3125,195.5625)"/>
<path d="M0 0 C11.08146053 7.90764416 17.94598661 17.46237365 21.4140625 30.72265625 C21.9142801 35.46772958 21.88306489 40.15490451 21.8046875 44.921875 C21.79902771 46.23807327 21.79336792 47.55427155 21.78753662 48.91035461 C21.77242976 52.371121 21.7332829 55.83119136 21.6887207 59.29168701 C21.6474401 62.8382425 21.62945644 66.38491297 21.609375 69.93164062 C21.56676935 76.86226097 21.49870567 83.79242499 21.4140625 90.72265625 C17.26824363 90.75152376 13.12245034 90.76940952 8.9765625 90.78515625 C7.79255859 90.79353516 6.60855469 90.80191406 5.38867188 90.81054688 C4.26396484 90.81376953 3.13925781 90.81699219 1.98046875 90.8203125 C0.41727905 90.82816772 0.41727905 90.82816772 -1.17749023 90.83618164 C-3.5859375 90.72265625 -3.5859375 90.72265625 -4.5859375 89.72265625 C-4.68800987 88.08257098 -4.72163482 86.43816887 -4.7277832 84.79492188 C-4.73833488 83.2169281 -4.73833488 83.2169281 -4.74909973 81.60705566 C-4.75326401 80.45926636 -4.75742828 79.31147705 -4.76171875 78.12890625 C-4.78493213 75.71223102 -4.80905006 73.29556434 -4.83398438 70.87890625 C-4.86900443 67.05853693 -4.89838166 63.2384785 -4.91186523 59.41796875 C-4.92740609 55.73789329 -4.96767639 52.05873696 -5.01171875 48.37890625 C-5.00981033 47.24731079 -5.00790192 46.11571533 -5.00593567 44.9498291 C-5.14154642 36.09152758 -7.02883231 28.09761963 -13.5859375 21.72265625 C-19.90581362 16.95530553 -26.92850253 16.76425443 -34.5859375 17.72265625 C-41.06242676 19.75583983 -45.00521453 24.87026344 -48.19677734 30.62939453 C-50.41104026 35.99524424 -50.04652586 41.68721366 -50.0625 47.40234375 C-50.08586929 49.215103 -50.08586929 49.215103 -50.10971069 51.06448364 C-50.15710088 54.90886846 -50.18496708 58.75307215 -50.2109375 62.59765625 C-50.24738998 66.46353762 -50.287923 70.3293154 -50.33358765 74.19509888 C-50.36088727 76.59776744 -50.38220653 79.00051246 -50.39712524 81.40328979 C-50.41251846 83.02099777 -50.41251846 83.02099777 -50.42822266 84.67138672 C-50.43471832 85.62512177 -50.44121399 86.57885681 -50.44790649 87.56149292 C-50.5859375 89.72265625 -50.5859375 89.72265625 -51.5859375 90.72265625 C-53.42752773 90.82225246 -55.27290717 90.85346036 -57.1171875 90.85546875 C-58.23738281 90.85675781 -59.35757813 90.85804688 -60.51171875 90.859375 C-61.69121094 90.85550781 -62.87070312 90.85164063 -64.0859375 90.84765625 C-65.85517578 90.85345703 -65.85517578 90.85345703 -67.66015625 90.859375 C-68.78035156 90.85808594 -69.90054688 90.85679687 -71.0546875 90.85546875 C-72.09044922 90.85434082 -73.12621094 90.85321289 -74.19335938 90.85205078 C-76.5859375 90.72265625 -76.5859375 90.72265625 -77.5859375 89.72265625 C-77.69516386 88.06278112 -77.73500893 86.39828456 -77.74707031 84.73486328 C-77.75667786 83.66930206 -77.7662854 82.60374084 -77.77618408 81.50588989 C-77.78043396 80.34250092 -77.78468384 79.17911194 -77.7890625 77.98046875 C-77.79761261 76.19055008 -77.79761261 76.19055008 -77.80633545 74.36447144 C-77.81580876 71.82729992 -77.82232862 69.29011598 -77.82617188 66.75292969 C-77.83580945 62.89886335 -77.86678297 59.0453457 -77.8984375 55.19140625 C-77.90497415 52.72526358 -77.91022202 50.25911709 -77.9140625 47.79296875 C-77.9264093 46.64982208 -77.9387561 45.50667542 -77.95147705 44.32888794 C-77.91066882 29.41101355 -73.36227975 16.90638977 -63.03125 6.046875 C-46.10301709 -10.04305884 -19.81113104 -12.79861958 0 0 Z " fill="#DD615A" transform="translate(1006.5859375,203.27734375)"/>
<path d="M0 0 C0.9168457 0.00644531 1.83369141 0.01289063 2.77832031 0.01953125 C13.62449946 0.31111583 21.86203413 3.67359483 29.7109375 11.265625 C35.7751991 18.34472221 36.625 22.99467288 36.625 32.5 C28.375 32.5 20.125 32.5 11.625 32.5 C10.305 30.19 8.985 27.88 7.625 25.5 C3.69506539 22.67511631 -0.7226267 22.98674885 -5.375 23.5 C-8.48692161 24.33016164 -8.48692161 24.33016164 -10.375 26.5 C-11.45895602 29.91239564 -11.45895602 29.91239564 -10.375 33.5 C-4.60753903 39.17639579 4.19741517 41.17817722 11.9375 42.3125 C20.54880438 43.78803249 29.19249529 47.48940367 34.51171875 54.66015625 C38.80894222 61.76188346 39.98886723 68.91586434 38.00390625 77.04296875 C34.99509935 85.66821519 29.60224288 92.27603641 21.4375 96.4375 C19.84637357 97.15466361 18.24197357 97.84318692 16.625 98.5 C15.42423828 99.02787109 15.42423828 99.02787109 14.19921875 99.56640625 C2.74433298 103.72075784 -10.39236464 102.26525129 -21.375 97.5 C-29.23104517 93.30576288 -35.04888459 87.78954507 -38.1796875 79.32421875 C-39.20711331 75.58748514 -39.375 72.40298282 -39.375 68.5 C-30.795 68.5 -22.215 68.5 -13.375 68.5 C-12.055 71.14 -10.735 73.78 -9.375 76.5 C-6.69844199 77.83827901 -4.55065948 77.70578556 -1.5625 77.75 C-0.52480469 77.77578125 0.51289062 77.8015625 1.58203125 77.828125 C5.29958551 77.42725907 7.96239993 76.16260007 10.625 73.5 C11.12595023 70.62693772 11.12595023 70.62693772 10.625 67.5 C7.10252587 64.04888354 3.92105646 62.74999335 -0.8125 61.5625 C-15.65190147 57.54932853 -29.25191491 53.57034382 -37.375 39.5 C-39.80500557 32.06090319 -38.71714241 24.76031648 -35.5625 17.75 C-31.29172691 9.65800889 -24.27307907 4.67371765 -15.72265625 1.85546875 C-10.44470543 0.35521428 -5.46889278 -0.04049532 0 0 Z " fill="#DC635C" transform="translate(1509.375,195.5)"/>
<path d="M0 0 C0.86625 0.721875 1.7325 1.44375 2.625 2.1875 C3.20765625 2.66832031 3.7903125 3.14914063 4.390625 3.64453125 C10.19382035 8.85033884 13.25453486 14.96419746 13.9375 22.75 C13.625 25.1875 13.625 25.1875 12.625 26.1875 C10.77130389 26.27487645 8.91432459 26.29448153 7.05859375 26.28515625 C5.93388672 26.28193359 4.80917969 26.27871094 3.65039062 26.27539062 C2.46638672 26.26701172 1.28238281 26.25863281 0.0625 26.25 C-1.12537109 26.24548828 -2.31324219 26.24097656 -3.53710938 26.23632812 C-6.48312226 26.22449675 -9.42903681 26.20801287 -12.375 26.1875 C-12.62894531 25.62160156 -12.88289063 25.05570313 -13.14453125 24.47265625 C-13.48871094 23.73917969 -13.83289062 23.00570312 -14.1875 22.25 C-14.52394531 21.51910156 -14.86039063 20.78820312 -15.20703125 20.03515625 C-16.31100134 17.85720511 -16.31100134 17.85720511 -19.375 17.1875 C-21.01779217 17.06957001 -22.66552694 17.01238326 -24.3125 17 C-25.59447266 16.97873047 -25.59447266 16.97873047 -26.90234375 16.95703125 C-29.55124285 17.20392706 -31.14135385 17.76336319 -33.375 19.1875 C-34.830276 22.09805201 -34.82567148 23.96841798 -34.375 27.1875 C-27.95774711 33.08443509 -18.50082946 35.03909062 -10.1875 36.6875 C-0.96512178 38.58030252 5.72123846 41.62470673 11.625 49.1875 C15.87008511 56.30892783 15.84256539 64.10399252 13.93359375 72.07421875 C10.57064859 81.26251662 5.28202499 86.51917699 -3.39453125 90.8984375 C-15.72017171 96.22931738 -28.96643582 97.25158561 -41.62109375 92.44921875 C-50.30261997 88.47172518 -56.60549432 83.17261023 -61.25 74.8125 C-62.24133544 71.6181969 -62.49881652 69.71279264 -62.4453125 66.4609375 C-62.43516113 65.65833496 -62.42500977 64.85573242 -62.41455078 64.02880859 C-62.40149902 63.42117676 -62.38844727 62.81354492 -62.375 62.1875 C-58.31346834 61.95477312 -54.25364757 61.81295689 -50.1875 61.6875 C-49.03701172 61.62046875 -47.88652344 61.5534375 -46.70117188 61.484375 C-38.32283512 61.29009473 -38.32283512 61.29009473 -35.49365234 63.96875 C-34.23362137 66.0000342 -33.27039778 67.97600023 -32.375 70.1875 C-30.59284251 71.96965749 -28.03211536 71.36032247 -25.625 71.375 C-24.57828125 71.38917969 -23.5315625 71.40335937 -22.453125 71.41796875 C-19.29394871 71.18143144 -17.17076689 70.65869901 -14.375 69.1875 C-12.08507316 66.37217943 -12.08507316 66.37217943 -12.4375 63.1875 C-13.10204362 60.09529032 -13.10204362 60.09529032 -15.4375 58.5 C-21.16681645 55.94009265 -26.4140179 54.15384628 -32.5625 52.9375 C-41.76692787 50.88255796 -51.45000229 46.85909812 -57.23046875 39.0703125 C-60.76872883 33.24969353 -63.24509109 28.14822875 -62.375 21.1875 C-59.78177061 10.57205018 -54.11363841 3.34560556 -44.85546875 -2.3671875 C-30.92608572 -9.26369322 -13.3829424 -7.18713574 0 0 Z " fill="#DC635C" transform="translate(1445.375,201.8125)"/>
<path d="M0 0 C0.79341797 0.00563965 1.58683594 0.0112793 2.40429688 0.01708984 C8.10129944 0.13548434 12.93462193 0.67359198 18.0625 3.3125 C18.87847656 3.7146875 19.69445312 4.116875 20.53515625 4.53125 C29.29285621 9.2865622 36.13685742 16.03575064 39.43359375 25.5859375 C41.75420462 35.64672252 40.15632632 44.4107888 35.0625 53.3125 C29.40099234 61.87152455 20.18901002 68.21650394 10.0625 70.3125 C-0.14582429 71.16027034 -10.91552568 71.71558537 -19.9375 66.3125 C-20.7109375 65.88839844 -21.484375 65.46429688 -22.28125 65.02734375 C-30.91439703 59.86184411 -36.19883623 52.60047164 -39.28125 43.07421875 C-41.57766394 33.41014343 -39.40062039 25.04049763 -34.3125 16.6875 C-30.93808956 11.8741265 -26.75328063 8.60987219 -21.9375 5.3125 C-21.091875 4.714375 -20.24625 4.11625 -19.375 3.5 C-13.16348477 0.4738772 -6.79423884 -0.05068166 0 0 Z " fill="#DC625B" transform="translate(298.9375,148.6875)"/>
<path d="M0 0 C4.14581887 -0.02886751 8.29161216 -0.04675327 12.4375 -0.0625 C14.21350586 -0.07506836 14.21350586 -0.07506836 16.02539062 -0.08789062 C17.15009766 -0.09111328 18.27480469 -0.09433594 19.43359375 -0.09765625 C20.47572021 -0.10289307 21.51784668 -0.10812988 22.59155273 -0.11352539 C25 0 25 0 26 1 C26.08790975 3.29151417 26.10694038 5.58572524 26.09765625 7.87890625 C26.0962413 8.5655687 26.09482635 9.25223114 26.09336853 9.95970154 C26.08775479 12.16067801 26.07520007 14.36155409 26.0625 16.5625 C26.05748676 18.05143083 26.05292355 19.54036324 26.04882812 21.02929688 C26.03778093 24.68623075 26.02050713 28.34310558 26 32 C27.17357056 31.99214478 27.17357056 31.99214478 28.37084961 31.98413086 C31.89305833 31.96342894 35.4152543 31.95036162 38.9375 31.9375 C40.16919922 31.92912109 41.40089844 31.92074219 42.66992188 31.91210938 C44.4246582 31.90727539 44.4246582 31.90727539 46.21484375 31.90234375 C47.84087524 31.89448853 47.84087524 31.89448853 49.49975586 31.88647461 C52 32 52 32 53 33 C53.09899523 34.54955559 53.13079524 36.10353673 53.1328125 37.65625 C53.13474609 39.06583984 53.13474609 39.06583984 53.13671875 40.50390625 C53.13285156 41.49261719 53.12898437 42.48132813 53.125 43.5 C53.13080078 44.98306641 53.13080078 44.98306641 53.13671875 46.49609375 C53.13542969 47.43582031 53.13414062 48.37554687 53.1328125 49.34375 C53.13168457 50.21193359 53.13055664 51.08011719 53.12939453 51.97460938 C53 54 53 54 52 55 C50.07332493 55.08748207 48.14348139 55.10697334 46.21484375 55.09765625 C45.04501953 55.09443359 43.87519531 55.09121094 42.66992188 55.08789062 C41.43822266 55.07951172 40.20652344 55.07113281 38.9375 55.0625 C37.08415039 55.05573242 37.08415039 55.05573242 35.19335938 55.04882812 C32.12885883 55.03699608 29.06445279 55.02051173 26 55 C26.0695619 58.9657967 26.15784429 62.93072114 26.26245117 66.89575195 C26.31150935 68.89708611 26.34633137 70.89875306 26.38085938 72.90039062 C26.66787885 83.25918448 27.81683149 92.11703857 35 100 C39.4572358 103.82048783 44.11168226 105.03507574 49.70703125 106.38671875 C52 107 52 107 53 108 C53.0991657 109.62257544 53.13079777 111.24939831 53.1328125 112.875 C53.13474609 114.35226562 53.13474609 114.35226562 53.13671875 115.859375 C53.13285156 116.89578125 53.12898437 117.9321875 53.125 119 C53.13080078 120.55460937 53.13080078 120.55460937 53.13671875 122.140625 C53.13542969 123.12546875 53.13414062 124.1103125 53.1328125 125.125 C53.13168457 126.03507812 53.13055664 126.94515625 53.12939453 127.8828125 C53 130 53 130 52 131 C37.3219894 131.25275787 25.20050396 127.69558372 14.125 117.625 C4.76875399 108.03484784 -0.34196049 96.10546862 -0.22705078 82.76000977 C-0.22734283 81.86165909 -0.22763489 80.96330841 -0.22793579 80.03773499 C-0.22655016 77.08885811 -0.21102517 74.14023861 -0.1953125 71.19140625 C-0.19157964 69.13874957 -0.18873396 67.08609111 -0.18673706 65.03343201 C-0.17912208 59.64611847 -0.15949196 54.25891377 -0.1373291 48.87164307 C-0.11682462 43.36821973 -0.10772551 37.8647787 -0.09765625 32.36132812 C-0.07624403 21.57417109 -0.04213392 10.78709461 0 0 Z " fill="#DB625B" transform="translate(702,166)"/>
<path d="M0 0 C1.07507812 -0.00128906 2.15015625 -0.00257813 3.2578125 -0.00390625 C4.38960937 -0.00003906 5.52140625 0.00382813 6.6875 0.0078125 C7.81929687 0.00394531 8.95109375 0.00007812 10.1171875 -0.00390625 C11.19226562 -0.00261719 12.26734375 -0.00132812 13.375 0 C14.86580078 0.00169189 14.86580078 0.00169189 16.38671875 0.00341797 C18.6875 0.1328125 18.6875 0.1328125 19.6875 1.1328125 C19.77540975 3.42432667 19.79444038 5.71853774 19.78515625 8.01171875 C19.7837413 8.6983812 19.78232635 9.38504364 19.78086853 10.09251404 C19.77525479 12.29349051 19.76270007 14.49436659 19.75 16.6953125 C19.74498676 18.18424333 19.74042355 19.67317574 19.73632812 21.16210938 C19.72528093 24.81904325 19.70800713 28.47591808 19.6875 32.1328125 C20.86107056 32.12495728 20.86107056 32.12495728 22.05834961 32.11694336 C25.58055833 32.09624144 29.1027543 32.08317412 32.625 32.0703125 C33.85669922 32.06193359 35.08839844 32.05355469 36.35742188 32.04492188 C38.1121582 32.04008789 38.1121582 32.04008789 39.90234375 32.03515625 C41.52837524 32.02730103 41.52837524 32.02730103 43.18725586 32.01928711 C45.6875 32.1328125 45.6875 32.1328125 46.6875 33.1328125 C46.78649523 34.68236809 46.81829524 36.23634923 46.8203125 37.7890625 C46.82224609 39.19865234 46.82224609 39.19865234 46.82421875 40.63671875 C46.82035156 41.62542969 46.81648438 42.61414063 46.8125 43.6328125 C46.81830078 45.11587891 46.81830078 45.11587891 46.82421875 46.62890625 C46.82292969 47.56863281 46.82164063 48.50835937 46.8203125 49.4765625 C46.81918457 50.34474609 46.81805664 51.21292969 46.81689453 52.10742188 C46.6875 54.1328125 46.6875 54.1328125 45.6875 55.1328125 C43.83575294 55.29067558 41.9784089 55.38388606 40.12109375 55.44921875 C38.99638672 55.49111328 37.87167969 55.53300781 36.71289062 55.57617188 C35.52888672 55.61548828 34.34488281 55.65480469 33.125 55.6953125 C31.93712891 55.73849609 30.74925781 55.78167969 29.52539062 55.82617188 C26.57955216 55.93264796 23.6336257 56.03466091 20.6875 56.1328125 C20.54025959 60.54911863 20.45278226 64.96478034 20.375 69.3828125 C20.33310547 70.61773437 20.29121094 71.85265625 20.24804688 73.125 C20.11345668 83.35385484 21.86021199 92.55419547 29.1875 100.1328125 C34.29951755 104.15361092 40.46478297 105.60559079 46.6875 107.1328125 C46.71637236 110.94529676 46.73425492 114.7577532 46.75 118.5703125 C46.75837891 119.65892578 46.76675781 120.74753906 46.77539062 121.86914062 C46.77861328 122.90361328 46.78183594 123.93808594 46.78515625 125.00390625 C46.79039307 125.96224365 46.79562988 126.92058105 46.80102539 127.90795898 C46.6875 130.1328125 46.6875 130.1328125 45.6875 131.1328125 C33.36474615 132.099303 21.51942259 128.55207891 11.6875 121.1328125 C0.49057978 110.85027867 -5.91409937 98.86924467 -6.57727051 83.62072754 C-6.71141222 78.36935076 -6.67732271 73.11963846 -6.640625 67.8671875 C-6.6375613 65.93760323 -6.63568983 64.00801674 -6.63494873 62.07843018 C-6.63037764 58.06440574 -6.61606456 54.05058551 -6.59375 50.03662109 C-6.56524017 44.88157166 -6.55451214 39.72668073 -6.5500679 34.57155991 C-6.54592516 30.60146494 -6.53612106 26.63140216 -6.52419281 22.66132355 C-6.51848613 20.75863146 -6.51372874 18.85593629 -6.50992584 16.95323944 C-6.50309237 14.31089227 -6.48948013 11.66867369 -6.47363281 9.02636719 C-6.47251495 8.2368718 -6.47139709 7.4473764 -6.47024536 6.63395691 C-6.41997296 0.34241464 -6.21344289 0.00705157 0 0 Z " fill="#DD625B" transform="translate(1049.3125,165.8671875)"/>
<path d="M0 0 C1.12019531 -0.00128906 2.24039063 -0.00257813 3.39453125 -0.00390625 C4.57402344 -0.00003906 5.75351562 0.00382813 6.96875 0.0078125 C8.73798828 0.00201172 8.73798828 0.00201172 10.54296875 -0.00390625 C12.22326172 -0.00197266 12.22326172 -0.00197266 13.9375 0 C14.97326172 0.00112793 16.00902344 0.00225586 17.07617188 0.00341797 C19.46875 0.1328125 19.46875 0.1328125 20.46875 1.1328125 C20.56933243 4.04938879 20.60490211 6.94232196 20.59814453 9.859375 C20.59989685 10.77475037 20.60164917 11.69012573 20.60345459 12.63323975 C20.60787461 15.67478299 20.60493459 18.71626861 20.6015625 21.7578125 C20.6022355 23.861491 20.60320548 25.96516942 20.60446167 28.06884766 C20.60593885 32.48405699 20.60378345 36.89924613 20.59912109 41.31445312 C20.5934238 46.98773811 20.5967027 52.66097579 20.60269356 58.33425903 C20.60629864 62.68009806 20.60516083 67.02592578 20.60256577 71.37176514 C20.60189635 73.4642538 20.60272543 75.55674347 20.60504532 77.64923096 C20.60757098 80.56826516 20.60373248 83.48722162 20.59814453 86.40625 C20.60016876 87.2800531 20.60219299 88.1538562 20.60427856 89.05413818 C20.58301236 95.01855014 20.58301236 95.01855014 19.46875 96.1328125 C17.62715977 96.23240871 15.78178033 96.26361661 13.9375 96.265625 C12.81730469 96.26691406 11.69710937 96.26820313 10.54296875 96.26953125 C9.36347656 96.26566406 8.18398438 96.26179688 6.96875 96.2578125 C5.19951172 96.26361328 5.19951172 96.26361328 3.39453125 96.26953125 C2.27433594 96.26824219 1.15414062 96.26695312 0 96.265625 C-1.03576172 96.26449707 -2.07152344 96.26336914 -3.13867188 96.26220703 C-5.53125 96.1328125 -5.53125 96.1328125 -6.53125 95.1328125 C-6.63183243 92.21623621 -6.66740211 89.32330304 -6.66064453 86.40625 C-6.66239685 85.49087463 -6.66414917 84.57549927 -6.66595459 83.63238525 C-6.67037461 80.59084201 -6.66743459 77.54935639 -6.6640625 74.5078125 C-6.6647355 72.404134 -6.66570548 70.30045558 -6.66696167 68.19677734 C-6.66843885 63.78156801 -6.66628345 59.36637887 -6.66162109 54.95117188 C-6.6559238 49.27788689 -6.6592027 43.60464921 -6.66519356 37.93136597 C-6.66879864 33.58552694 -6.66766083 29.23969922 -6.66506577 24.89385986 C-6.66439635 22.8013712 -6.66522543 20.70888153 -6.66754532 18.61639404 C-6.67007098 15.69735984 -6.66623248 12.77840338 -6.66064453 9.859375 C-6.66266876 8.9855719 -6.66469299 8.1117688 -6.66677856 7.21148682 C-6.64109168 0.00723205 -6.64109168 0.00723205 0 0 Z " fill="#DE635C" transform="translate(777.53125,197.8671875)"/>
<path d="M0 0 C7.11707042 4.16723202 11.92618579 9.79125776 14.12890625 17.78125 C15.64614567 25.54514182 14.21106413 32.28012289 10.34375 39.171875 C6.42378065 44.9647186 1.29754523 48.53213598 -5.390625 50.60546875 C-12.95593616 52.06366804 -19.40682643 51.40915492 -26.14453125 47.6171875 C-31.74308367 43.66863435 -37.06622974 37.88040867 -38.4375 31 C-39.39661781 22.42666123 -39.36188743 15.30288261 -34.28515625 8.08984375 C-25.47384194 -1.87644199 -12.55412383 -5.71867297 0 0 Z " fill="#F6F4F3" transform="translate(1330.4375,222)"/>
<path d="M0 0 C6.63164221 3.87209372 11.80961749 9.46577597 14.125 16.875 C15.79850089 25.00343289 14.40483471 31.70714761 10.5625 39 C6.71089164 44.83243552 1.26636105 48.52593576 -5.39453125 50.61328125 C-12.96693609 52.04668102 -19.40018725 51.41289144 -26.14453125 47.6171875 C-31.74194606 43.66943668 -37.05400413 37.88042143 -38.4375 31 C-39.20406222 22.97984277 -39.42333115 15.65317079 -34.4375 9 C-25.2761838 -1.33584391 -13.36888622 -6.08981474 0 0 Z " fill="#F6F5F5" transform="translate(647.4375,222)"/>
<path d="M0 0 C1.72644181 -0.02147155 3.45277802 -0.0554443 5.17871094 -0.10253906 C22.47989995 -0.57027373 22.47989995 -0.57027373 29.10864258 4.89428711 C32.91160338 8.71888022 33.80844202 11.36287508 34.11083984 16.7175293 C33.93888153 22.26505395 32.60856804 26.4600184 28.61083984 30.4050293 C23.16016334 34.1097351 19.38890949 34.97905441 12.86865234 34.83081055 C12.05967499 34.82752243 11.25069763 34.82423431 10.41720581 34.82084656 C8.72125094 34.8104855 7.02532978 34.7906381 5.32958984 34.76171875 C2.72262273 34.71730412 0.11657752 34.7002262 -2.49072266 34.68823242 C-4.14177776 34.67482116 -5.79282145 34.65990175 -7.44384766 34.64331055 C-8.22605682 34.63592361 -9.00826599 34.62853668 -9.81417847 34.6209259 C-15.27079468 34.52339477 -15.27079468 34.52339477 -16.38916016 33.4050293 C-16.48994136 31.04104461 -16.52889231 28.70691619 -16.52197266 26.3425293 C-16.52292938 25.63604248 -16.52388611 24.92955566 -16.52487183 24.20166016 C-16.52555348 22.70532136 -16.5237002 21.20897963 -16.51953125 19.71264648 C-16.51418273 17.41472773 -16.51947666 15.11700444 -16.52587891 12.8190918 C-16.52521812 11.36857053 -16.52393695 9.91804938 -16.52197266 8.4675293 C-16.52399689 7.7758667 -16.52602112 7.0842041 -16.52810669 6.37158203 C-16.4829144 -2.76621311 -7.37392608 0.0688567 0 0 Z " fill="#F6F4F3" transform="translate(1197.38916015625,191.594970703125)"/>
<path d="M0 0 C1.72644181 -0.02147155 3.45277802 -0.0554443 5.17871094 -0.10253906 C22.47989995 -0.57027373 22.47989995 -0.57027373 29.10864258 4.89428711 C32.91160338 8.71888022 33.80844202 11.36287508 34.11083984 16.7175293 C33.93888153 22.26505395 32.60856804 26.4600184 28.61083984 30.4050293 C23.16016334 34.1097351 19.38890949 34.97905441 12.86865234 34.83081055 C12.05967499 34.82752243 11.25069763 34.82423431 10.41720581 34.82084656 C8.72125094 34.8104855 7.02532978 34.7906381 5.32958984 34.76171875 C2.72262273 34.71730412 0.11657752 34.7002262 -2.49072266 34.68823242 C-4.14177776 34.67482116 -5.79282145 34.65990175 -7.44384766 34.64331055 C-8.22605682 34.63592361 -9.00826599 34.62853668 -9.81417847 34.6209259 C-15.27079468 34.52339477 -15.27079468 34.52339477 -16.38916016 33.4050293 C-16.48994136 31.04104461 -16.52889231 28.70691619 -16.52197266 26.3425293 C-16.52292938 25.63604248 -16.52388611 24.92955566 -16.52487183 24.20166016 C-16.52555348 22.70532136 -16.5237002 21.20897963 -16.51953125 19.71264648 C-16.51418273 17.41472773 -16.51947666 15.11700444 -16.52587891 12.8190918 C-16.52521812 11.36857053 -16.52393695 9.91804938 -16.52197266 8.4675293 C-16.52399689 7.7758667 -16.52602112 7.0842041 -16.52810669 6.37158203 C-16.4829144 -2.76621311 -7.37392608 0.0688567 0 0 Z " fill="#F6F4F3" transform="translate(514.38916015625,191.594970703125)"/>
<path d="M0 0 C3.74054587 2.9643826 6.55094877 6.3586783 7.44921875 11.0859375 C7.89113148 16.81116242 6.30283075 20.00036782 2.765625 24.421875 C-1.46869709 28.47167388 -5.60093449 28.48001256 -11.2421875 28.3671875 C-16.08493333 27.79869125 -18.6396048 25.47846597 -21.8125 21.98828125 C-23.58496844 17.36016922 -23.57615751 12.93758757 -22.9375 8.05078125 C-21.19550827 4.29879906 -19.68475276 2.59755156 -16.375 0.17578125 C-11.14371148 -1.53627681 -5.12975765 -2.51316756 0 0 Z " fill="#DC635B" transform="translate(792.9375,159.94921875)"/>
<path d="M0 0 C5.10636068 4.05562877 6.86720384 6.60161151 9 13 C-7.17 13 -23.34 13 -40 13 C-37.43742151 5.31226453 -33.64244656 1.3311658 -26.875 -3 C-18.25916223 -6.02344766 -7.55937928 -5.11458003 0 0 Z " fill="#F6F4F3" transform="translate(880,224)"/>
<path d="M0 0 C0.99 0.33 1.98 0.66 3 1 C2.2575 1.721875 1.515 2.44375 0.75 3.1875 C-7.88638658 12.0201681 -9.44281381 18.60528323 -9.4765625 30.6796875 C-9.49993179 32.49244675 -9.49993179 32.49244675 -9.52377319 34.34182739 C-9.57116338 38.18621221 -9.59902958 42.0304159 -9.625 45.875 C-9.66145248 49.74088137 -9.7019855 53.60665915 -9.74765015 57.47244263 C-9.77494977 59.87511119 -9.79626903 62.27785621 -9.81118774 64.68063354 C-9.82658096 66.29834152 -9.82658096 66.29834152 -9.84228516 67.94873047 C-9.84878082 68.90246552 -9.85527649 69.85620056 -9.86196899 70.83883667 C-10 73 -10 73 -11 74 C-12.84159023 74.09959621 -14.68696967 74.13080411 -16.53125 74.1328125 C-17.65144531 74.13410156 -18.77164063 74.13539063 -19.92578125 74.13671875 C-21.10527344 74.13285156 -22.28476562 74.12898438 -23.5 74.125 C-25.26923828 74.13080078 -25.26923828 74.13080078 -27.07421875 74.13671875 C-28.19441406 74.13542969 -29.31460938 74.13414062 -30.46875 74.1328125 C-31.50451172 74.13168457 -32.54027344 74.13055664 -33.60742188 74.12939453 C-36 74 -36 74 -37 73 C-37.0935919 71.28134591 -37.11744611 69.55884256 -37.11352539 67.83764648 C-37.11344986 66.73658066 -37.11337433 65.63551483 -37.11329651 64.50108337 C-37.10813522 63.3031868 -37.10297394 62.10529022 -37.09765625 60.87109375 C-37.0962413 59.65172623 -37.09482635 58.4323587 -37.09336853 57.17604065 C-37.08774967 53.2631693 -37.07519396 49.35035419 -37.0625 45.4375 C-37.05748743 42.79231853 -37.0529241 40.14713617 -37.04882812 37.50195312 C-37.03777411 31.00128274 -37.02101764 24.50064539 -37 18 C-36.67 18 -36.34 18 -36 18 C-36 35.82 -36 53.64 -36 72 C-28.08 72 -20.16 72 -12 72 C-12.03480469 68.27847656 -12.06960938 64.55695313 -12.10546875 60.72265625 C-12.12889815 57.09855923 -12.14709552 53.4744708 -12.16479492 49.8503418 C-12.17983529 47.34118848 -12.20027272 44.83206126 -12.22631836 42.32299805 C-12.26291014 38.70615175 -12.27977448 35.08965458 -12.29296875 31.47265625 C-12.30845261 30.35979752 -12.32393646 29.24693878 -12.33988953 28.10035706 C-12.34151669 20.48546271 -11.44831893 14.01524304 -7.4375 7.4375 C-6.963125 6.963125 -6.48875 6.48875 -6 6 C-5.34 6 -4.68 6 -4 6 C-3.34 4.68 -2.68 3.36 -2 2 C-1.34 2 -0.68 2 0 2 C0 1.34 0 0.68 0 0 Z " fill="#C87D78" transform="translate(966,220)"/>
<path d="M0 0 C0.66 0 1.32 0 2 0 C2.02312166 12.23880329 2.04091418 24.47760143 2.05181217 36.71642208 C2.05704139 42.39876512 2.06413973 48.08109327 2.07543945 53.76342773 C2.08626696 59.24229136 2.09227654 64.72114062 2.09487724 70.20001411 C2.09673174 72.29529611 2.10035282 74.39057728 2.10573006 76.4858532 C2.11293868 79.40977584 2.11399102 82.33363833 2.11352539 85.25756836 C2.11712067 86.1329425 2.12071594 87.00831665 2.12442017 87.91021729 C2.11405216 93.88594784 2.11405216 93.88594784 1 95 C-0.85369611 95.08737645 -2.71067541 95.10698153 -4.56640625 95.09765625 C-5.69111328 95.09443359 -6.81582031 95.09121094 -7.97460938 95.08789062 C-9.15861328 95.07951172 -10.34261719 95.07113281 -11.5625 95.0625 C-12.75037109 95.05798828 -13.93824219 95.05347656 -15.16210938 95.04882812 C-18.10812226 95.03699675 -21.05403681 95.02051287 -24 95 C-24 94.34 -24 93.68 -24 93 C-16.08 93 -8.16 93 0 93 C0 62.31 0 31.62 0 0 Z " fill="#C1746F" transform="translate(796,199)"/>
<path d="M0 0 C2 2 2 2 2.24050903 4.51834106 C2.2338472 6.11051956 2.2338472 6.11051956 2.22705078 7.73486328 C2.22689972 8.93595734 2.22674866 10.13705139 2.22659302 11.37454224 C2.21627045 12.67664642 2.20594788 13.97875061 2.1953125 15.3203125 C2.19158276 16.66266673 2.18873561 18.00502367 2.18673706 19.34738159 C2.17909744 22.882014 2.1594463 26.41648228 2.1373291 29.9510498 C2.11687765 33.5571877 2.10773685 37.16335209 2.09765625 40.76953125 C2.0762006 47.84642135 2.04206079 54.92319997 2 62 C-2.14581887 62.02886751 -6.29161216 62.04675327 -10.4375 62.0625 C-12.21350586 62.07506836 -12.21350586 62.07506836 -14.02539062 62.08789062 C-15.15009766 62.09111328 -16.27480469 62.09433594 -17.43359375 62.09765625 C-18.99678345 62.10551147 -18.99678345 62.10551147 -20.59155273 62.11352539 C-23 62 -23 62 -24 61 C-24.09333705 59.40389018 -24.11745372 57.80366572 -24.11352539 56.20483398 C-24.11344986 55.18385117 -24.11337433 54.16286835 -24.11329651 53.11094666 C-24.10813522 52.0005452 -24.10297394 50.89014374 -24.09765625 49.74609375 C-24.0962413 48.61551041 -24.09482635 47.48492706 -24.09336853 46.32008362 C-24.08775019 42.69252935 -24.07519458 39.06503576 -24.0625 35.4375 C-24.05748736 32.98502693 -24.05292405 30.5325529 -24.04882812 28.08007812 C-24.0377748 22.05336455 -24.02101884 16.02668661 -24 10 C-23.67 10 -23.34 10 -23 10 C-23 26.5 -23 43 -23 60 C-15.41 60 -7.82 60 0 60 C0 40.2 0 20.4 0 0 Z " fill="#C86B66" transform="translate(1026,232)"/>
<path d="M0 0 C0 0.66 0 1.32 0 2 C-0.96550781 1.84273437 -1.93101563 1.68546875 -2.92578125 1.5234375 C-16.33518808 -0.36957597 -29.35182348 -0.39269084 -40.62109375 7.9375 C-47.07080702 13.38621777 -50.60301829 18.66573413 -52 27 C-52.21326692 31.19424948 -51.98916562 34.9196918 -51 39 C-51.66 39 -52.32 39 -53 39 C-55.25746218 31.02606099 -54.51622118 22.49638821 -51 15 C-48.89204899 12.0820493 -46.56403233 9.52078359 -44 7 C-43.34 6.34 -42.68 5.68 -42 5 C-41.01 5 -40.02 5 -39 5 C-39 4.34 -39 3.68 -39 3 C-26.5030811 -1.41188434 -12.90020653 -4.96765944 0 0 Z " fill="#F9DDDA" transform="translate(1436,196)"/>
<path d="M0 0 C0.66 0 1.32 0 2 0 C2.02887814 3.47914941 2.04675687 6.95826831 2.0625 10.4375 C2.07087891 11.43072266 2.07925781 12.42394531 2.08789062 13.44726562 C2.09272461 14.86362305 2.09272461 14.86362305 2.09765625 16.30859375 C2.10551147 17.62041626 2.10551147 17.62041626 2.11352539 18.95874023 C2 21 2 21 1 22 C-0.85174706 22.15786308 -2.7090911 22.25107356 -4.56640625 22.31640625 C-5.57904541 22.35451416 -6.59168457 22.39262207 -7.63500977 22.43188477 C-8.93108154 22.47498779 -10.22715332 22.51809082 -11.5625 22.5625 C-15.666875 22.706875 -19.77125 22.85125 -24 23 C-24.33 31.58 -24.66 40.16 -25 49 C-25.33 49 -25.66 49 -26 49 C-26.02891546 44.54168018 -26.04676981 40.08338431 -26.0625 35.625 C-26.07087891 34.35398438 -26.07925781 33.08296875 -26.08789062 31.7734375 C-26.09111328 30.56171875 -26.09433594 29.35 -26.09765625 28.1015625 C-26.10289307 26.98088379 -26.10812988 25.86020508 -26.11352539 24.70556641 C-26 22 -26 22 -25 20 C-16.75 20 -8.5 20 0 20 C0 13.4 0 6.8 0 0 Z " fill="#BD6F6A" transform="translate(1094,199)"/>
<path d="M0 0 C0.99 0.33 1.98 0.66 3 1 C3.02887512 4.64581687 3.04675585 8.29160463 3.0625 11.9375 C3.07087891 12.97841797 3.07925781 14.01933594 3.08789062 15.09179688 C3.09272461 16.57583008 3.09272461 16.57583008 3.09765625 18.08984375 C3.10551147 19.46450806 3.10551147 19.46450806 3.11352539 20.86694336 C3 23 3 23 2 24 C-7.29821322 24.05594593 -15.60918425 23.33659949 -24 19 C-19.84228506 17.68461673 -17.1120703 18.65566932 -13 20 C-13 20.66 -13 21.32 -13 22 C-8.38 22 -3.76 22 1 22 C0.67 14.74 0.34 7.48 0 0 Z " fill="#C5817B" transform="translate(752,273)"/>
<path d="M0 0 C0.99 0.33 1.98 0.66 3 1 C-5.96347169 8.70498999 -14.70819614 11.66630253 -26.5390625 11.33984375 C-31.56680945 10.84614851 -36.23071882 9.63518212 -41 8 C-41 7.67 -41 7.34 -41 7 C-34.375 6.875 -34.375 6.875 -31 8 C-29.44578271 8.08106686 -27.88832973 8.10756898 -26.33203125 8.09765625 C-25.43935547 8.09443359 -24.54667969 8.09121094 -23.62695312 8.08789062 C-22.69818359 8.07951172 -21.76941406 8.07113281 -20.8125 8.0625 C-19.87212891 8.05798828 -18.93175781 8.05347656 -17.96289062 8.04882812 C-15.64186288 8.03704626 -13.32096356 8.02059558 -11 8 C-11 7.34 -11 6.68 -11 6 C-9.02 5.67 -7.04 5.34 -5 5 C-5 4.34 -5 3.68 -5 3 C-3.35 2.67 -1.7 2.34 0 2 C0 1.34 0 0.68 0 0 Z " fill="#BD6F68" transform="translate(1339,286)"/>
<path d="M0 0 C3.09237019 3.09237019 3.18083634 6.37018499 3.3125 10.625 C3.2139471 18.97735804 -0.06242755 26.20051063 -6 32 C-11.775 36 -11.775 36 -15 36 C-15 35.34 -15 34.68 -15 34 C-12.09451118 31.95830515 -10.59857954 31 -7 31 C-6.67 30.01 -6.34 29.02 -6 28 C-5.34 28 -4.68 28 -4 28 C-4 27.01 -4 26.02 -4 25 C-3.34 25 -2.68 25 -2 25 C0.21462689 16.59628191 0.20705918 8.6274658 0 0 Z " fill="#F8D8D5" transform="translate(659,235)"/>
<path d="M0 0 C4.29648445 4.29648445 3 7.46391781 3 14 C-5.25 14 -13.5 14 -22 14 C-22.33 13.34 -22.66 12.68 -23 12 C-15.08 12 -7.16 12 1 12 C0.67 8.04 0.34 4.08 0 0 Z " fill="#C37672" transform="translate(1543,214)"/>
<path d="M0 0 C4.94462492 5.84364763 5.49700858 12.1287703 5.38671875 19.53515625 C4.53793061 27.13995506 1.68627597 33.83618101 -4 39 C-3.66666667 37.66666667 -3.33333333 36.33333333 -3 35 C-2.814375 33.9790625 -2.814375 33.9790625 -2.625 32.9375 C-1.87494577 30.6123319 -0.70771176 29.70771176 1 28 C2.40977249 24.13968338 2.1838269 20.05510043 2.1875 16 C2.19974609 15.2884375 2.21199219 14.576875 2.22460938 13.84375 C2.23546318 9.96532197 1.89814973 7.3611505 0 4 C0 2.68 0 1.36 0 0 Z " fill="#C57F7B" transform="translate(334,167)"/>
<path d="M0 0 C0.66 0 1.32 0 2 0 C2.02887236 3.81248426 2.04675492 7.6249407 2.0625 11.4375 C2.07087891 12.52611328 2.07925781 13.61472656 2.08789062 14.73632812 C2.09272461 16.28803711 2.09272461 16.28803711 2.09765625 17.87109375 C2.10551147 19.30859985 2.10551147 19.30859985 2.11352539 20.77514648 C2 23 2 23 1 24 C-4.15197086 24.17765417 -8.92193071 23.84634488 -14 23 C-14 22.67 -14 22.34 -14 22 C-9.38 22 -4.76 22 0 22 C0 14.74 0 7.48 0 0 Z " fill="#C37671" transform="translate(1094,273)"/>
<path d="M0 0 C9.24 0 18.48 0 28 0 C26.87162162 6.77027027 26.87162162 6.77027027 24.25 10.5 C23.71632813 11.26183594 23.18265625 12.02367187 22.6328125 12.80859375 C20.52281173 15.64043689 18.32059049 18.3381462 16 21 C15.67 20.01 15.34 19.02 15 18 C15.639375 17.401875 16.27875 16.80375 16.9375 16.1875 C19.20310389 14.09189663 19.20310389 14.09189663 20 11 C20.66 10.67 21.32 10.34 22 10 C22.33 9.01 22.66 8.02 23 7 C23.66 7 24.32 7 25 7 C25.33 5.35 25.66 3.7 26 2 C13.13 1.505 13.13 1.505 0 1 C0 0.67 0 0.34 0 0 Z " fill="#CC8E8B" transform="translate(886,262)"/>
<path d="M0 0 C3.08236365 2.78407039 3.95206337 3.80825346 5 8 C-11.17 8 -27.34 8 -44 8 C-43.67 7.34 -43.34 6.68 -43 6 C-28.15 6 -13.3 6 2 6 C1.34 4.02 0.68 2.04 0 0 Z " fill="#F9E0DE" transform="translate(884,229)"/>
<path d="M0 0 C0.66 0 1.32 0 2 0 C0.21275083 7.94332965 -5.70018821 13.58549487 -12.3046875 17.96875 C-16.45537623 20.49359292 -19.07753801 22 -24 22 C-24 21.34 -24 20.68 -24 20 C-23.35933594 19.78085938 -22.71867188 19.56171875 -22.05859375 19.3359375 C-13.48678828 16.19336798 -6.21845995 11.4369199 -2 3 C-1.34 3 -0.68 3 0 3 C0 2.01 0 1.02 0 0 Z " fill="#B77C76" transform="translate(570,227)"/>
<path d="M0 0 C0.66015625 1.72265625 0.66015625 1.72265625 1 4 C-3.14412001 13.01386415 -10.21638236 18.04374247 -19 22 C-19.928125 22.433125 -20.85625 22.86625 -21.8125 23.3125 C-24 24 -24 24 -27 23 C-20.375 20 -20.375 20 -17 20 C-17 19.34 -17 18.68 -17 18 C-16.195625 17.71125 -15.39125 17.4225 -14.5625 17.125 C-11.8673532 16.26737432 -11.8673532 16.26737432 -11 14 C-10.21625 13.5875 -9.4325 13.175 -8.625 12.75 C-5.40860113 10.60573409 -4.48283223 8.51197106 -3 5 C-2.34 5 -1.68 5 -1 5 C-0.67 3.35 -0.34 1.7 0 0 Z " fill="#B67A75" transform="translate(1545,272)"/>
<path d="M0 0 C1.051875 0.495 2.10375 0.99 3.1875 1.5 C2.8575 2.16 2.5275 2.82 2.1875 3.5 C1.50300781 3.17773438 0.81851562 2.85546875 0.11328125 2.5234375 C-5.90028831 0.41989247 -13.37448761 0.36765911 -19.43359375 2.36328125 C-21.79969052 3.51355091 -21.79969052 3.51355091 -24.8125 5.5 C-25.8025 5.995 -25.8025 5.995 -26.8125 6.5 C-26.8125 5.51 -26.8125 4.52 -26.8125 3.5 C-18.59680706 -2.4441706 -9.58753638 -3.53582902 0 0 Z " fill="#C17A75" transform="translate(1327.8125,219.5)"/>
<path d="M0 0 C0.99 0.33 1.98 0.66 3 1 C2.4225 1.9075 1.845 2.815 1.25 3.75 C-1.16697599 7.95417654 -2.52262459 12.37088858 -3.984375 16.9765625 C-5.37602333 21.11939253 -7.12731553 25.05540931 -9 29 C-10.39078154 24.82765538 -8.71807062 22.13001201 -7.125 18.25 C-5.02906698 13.12022786 -3.56462931 8.53047174 -3 3 C-2.01 2.67 -1.02 2.34 0 2 C0 1.34 0 0.68 0 0 Z " fill="#F9DDDB" transform="translate(372,176)"/>
<path d="M0 0 C3.86371252 3.86371252 4.16796388 8.36663837 4.3125 13.625 C4.22411167 20.03717147 2.82329508 25.87893794 1 32 C-0.12935981 28.61192058 0.26881551 27.41052493 1 24 C1.39633701 15.96834716 0.79328071 7.98947003 0 0 Z " fill="#C38683" transform="translate(573,193)"/>
<path d="M0 0 C0.66 0 1.32 0 2 0 C0.40589812 5.77272398 -2.44161202 10.61754002 -5.4375 15.75 C-5.92798828 16.61238281 -6.41847656 17.47476563 -6.92382812 18.36328125 C-7.40142578 19.18699219 -7.87902344 20.01070312 -8.37109375 20.859375 C-8.80349365 21.60670898 -9.23589355 22.35404297 -9.68139648 23.12402344 C-11 25 -11 25 -14 27 C-13.37240135 24.07120629 -12.41377341 21.63904371 -11 19 C-10.34 19 -9.68 19 -9 19 C-9 18.01 -9 17.02 -9 16 C-8.34 16 -7.68 16 -7 16 C-6.814375 14.5459375 -6.814375 14.5459375 -6.625 13.0625 C-6.41875 12.051875 -6.2125 11.04125 -6 10 C-5.34 9.67 -4.68 9.34 -4 9 C-3.34786708 6.97536745 -3.34786708 6.97536745 -3 5 C-2.34 5 -1.68 5 -1 5 C-0.67 3.35 -0.34 1.7 0 0 Z " fill="#B97C77" transform="translate(397,232)"/>
<path d="M0 0 C2.47532211 2.47532211 2.38704795 3.63931683 2.6875 7.0625 C2.77386719 7.96097656 2.86023437 8.85945312 2.94921875 9.78515625 C2.96597656 10.51605469 2.98273438 11.24695313 3 12 C2 13 2 13 -0.40844727 13.11352539 C-1.45057373 13.10828857 -2.4927002 13.10305176 -3.56640625 13.09765625 C-4.69111328 13.09443359 -5.81582031 13.09121094 -6.97460938 13.08789062 C-8.15861328 13.07951172 -9.34261719 13.07113281 -10.5625 13.0625 C-11.75037109 13.05798828 -12.93824219 13.05347656 -14.16210938 13.04882812 C-17.10812226 13.03699675 -20.05403681 13.02051287 -23 13 C-23 12.67 -23 12.34 -23 12 C-15.41 11.67 -7.82 11.34 0 11 C0 7.37 0 3.74 0 0 Z " fill="#BF7F7B" transform="translate(1456,215)"/>
<path d="M0 0 C0.33 0 0.66 0 1 0 C1.42266184 11.77582837 1.52518272 21.92946369 -3 33 C-3.33 33 -3.66 33 -4 33 C-4.08159574 28.83861737 -3.98248524 25.0527516 -3 21 C-2.34 21 -1.68 21 -1 21 C-0.67 14.07 -0.34 7.14 0 0 Z " fill="#B77A76" transform="translate(408,186)"/>
<path d="M0 0 C0.33 0 0.66 0 1 0 C1.66685518 5.33484142 1.48919541 9.00191835 -1.75 13.4375 C-3.90372554 16.12965693 -5.74008074 17.81296418 -9 19 C-11.796875 19.1953125 -11.796875 19.1953125 -14.75 19.125 C-15.73484375 19.10695312 -16.7196875 19.08890625 -17.734375 19.0703125 C-18.48203125 19.04710937 -19.2296875 19.02390625 -20 19 C-20 18.67 -20 18.34 -20 18 C-16.7 18 -13.4 18 -10 18 C-9.67 17.01 -9.34 16.02 -9 15 C-8.38125 14.855625 -7.7625 14.71125 -7.125 14.5625 C-4.19878115 13.78791266 -3.59434395 12.53625989 -2 10 C-1.22167356 7.42741334 -1.22167356 7.42741334 -0.8125 4.75 C-0.65394531 3.85796875 -0.49539063 2.9659375 -0.33203125 2.046875 C-0.16767578 1.03367188 -0.16767578 1.03367188 0 0 Z " fill="#BB8782" transform="translate(799,169)"/>
<path d="M0 0 C0.33 0 0.66 0 1 0 C1.56028054 6.77316919 1.49991439 11.77426641 -2.5625 17.40625 C-4.48022094 19.53241887 -6.37565531 20.86514824 -9 22 C-9.66 22 -10.32 22 -11 22 C-11 21.34 -11 20.68 -11 20 C-10.01 20 -9.02 20 -8 20 C-8 19.34 -8 18.68 -8 18 C-6.125 15.875 -6.125 15.875 -4 14 C-3.34 14 -2.68 14 -2 14 C-1.7834375 12.205625 -1.7834375 12.205625 -1.5625 10.375 C-1.12960657 6.8994842 -0.60383744 3.45049966 0 0 Z " fill="#F8D9D6" transform="translate(547,203)"/>
<path d="M0 0 C1.87365234 -0.00386719 1.87365234 -0.00386719 3.78515625 -0.0078125 C6.9375 0.125 6.9375 0.125 8.9375 1.125 C8.9375 1.785 8.9375 2.445 8.9375 3.125 C10.5875 3.785 12.2375 4.445 13.9375 5.125 C13.6075 5.785 13.2775 6.445 12.9375 7.125 C11.926875 6.465 10.91625 5.805 9.875 5.125 C3.69164336 1.94946061 -3.31240423 2.80858926 -10.0625 3.125 C-10.0625 2.465 -10.0625 1.805 -10.0625 1.125 C-6.54512679 -0.04745774 -3.7049868 -0.00766285 0 0 Z " fill="#C67771" transform="translate(980.0625,217.875)"/>
<path d="M0 0 C0.66 0.33 1.32 0.66 2 1 C1.59007812 1.75023437 1.18015625 2.50046875 0.7578125 3.2734375 C-2.67973251 9.80312825 -5.05885777 15.66558121 -6 23 C-6.33 23 -6.66 23 -7 23 C-7.93020934 14.09410688 -5.93558458 8.41021286 -1 1 C-0.67 0.67 -0.34 0.34 0 0 Z " fill="#F9DEDA" transform="translate(818,218)"/>
<path d="M0 0 C0.33 0 0.66 0 1 0 C1.51740859 9.97448775 1.51048688 18.7377653 -5.25 26.625 C-6.11625 27.305625 -6.11625 27.305625 -7 28 C-6.67 26.35 -6.34 24.7 -6 23 C-5.34 23 -4.68 23 -4 23 C-4 21.68 -4 20.36 -4 19 C-3.34 19 -2.68 19 -2 19 C-1.34 12.73 -0.68 6.46 0 0 Z " fill="#B9807B" transform="translate(1459,257)"/>
<path d="M0 0 C2.20805524 -0.0544452 4.41650554 -0.09299283 6.625 -0.125 C7.85476563 -0.14820313 9.08453125 -0.17140625 10.3515625 -0.1953125 C13.94316041 -0.0030428 16.66661175 0.69741444 20 2 C20 2.66 20 3.32 20 4 C13.4 3.34 6.8 2.68 0 2 C0 1.34 0 0.68 0 0 Z " fill="#F7D1CC" transform="translate(1416,194)"/>
<path d="M0 0 C3.67745923 -0.15010038 6.69809397 -0.08708828 10.25 0.9375 C15.13423484 2.32136654 19.95064883 2.65302831 25 3 C25 3.33 25 3.66 25 4 C16.11487651 4.35021655 8.44237574 3.89452883 0 1 C0 0.67 0 0.34 0 0 Z " fill="#CF8681" transform="translate(1298,293)"/>
<path d="M0 0 C1.41750563 0.11509661 2.83401169 0.24253658 4.25 0.375 C5.03890625 0.44460937 5.8278125 0.51421875 6.640625 0.5859375 C9.1123935 1.01972469 10.79001581 1.84238924 13 3 C14.40533756 3.4154465 15.82287585 3.79200436 17.25 4.125 C18.4875 4.41375 19.725 4.7025 21 5 C17.21691036 6.37229722 14.35584756 5.65205608 10.5 4.75 C9.3759375 4.49734375 8.251875 4.2446875 7.09375 3.984375 C4.12421597 3.03952326 2.32675853 2.03021087 0 0 Z " fill="#C9817C" transform="translate(1402,250)"/>
<path d="M0 0 C0.99 0.33 1.98 0.66 3 1 C2.2575 1.721875 1.515 2.44375 0.75 3.1875 C-2.8554447 6.87488663 -5.93454999 10.86164248 -9 15 C-8.5020163 11.26512223 -8.12508244 9.18762365 -6 6 C-5.34 6 -4.68 6 -4 6 C-3.34 4.68 -2.68 3.36 -2 2 C-1.34 2 -0.68 2 0 2 C0 1.34 0 0.68 0 0 Z " fill="#B97C77" transform="translate(966,220)"/>
<path d="M0 0 C1.98 0 3.96 0 6 0 C2 3 -2 6 -6 9 C-6.33 8.01 -6.66 7.02 -7 6 C-5.68 5.67 -4.36 5.34 -3 5 C-3 4.34 -3 3.68 -3 3 C-2.34 3 -1.68 3 -1 3 C-0.67 2.01 -0.34 1.02 0 0 Z " fill="#F8DAD7" transform="translate(198,170)"/>
<path d="M0 0 C0.66 0.33 1.32 0.66 2 1 C1.68289063 1.69480469 1.36578125 2.38960937 1.0390625 3.10546875 C-0.09401052 6.26188644 -0.40480011 8.97280167 -0.625 12.3125 C-0.69976563 13.38113281 -0.77453125 14.44976562 -0.8515625 15.55078125 C-0.90054688 16.35902344 -0.94953125 17.16726562 -1 18 C-1.33 18 -1.66 18 -2 18 C-2.25034126 15.9399629 -2.47443346 13.87672534 -2.6875 11.8125 C-2.81511719 10.66394531 -2.94273437 9.51539063 -3.07421875 8.33203125 C-2.99142924 4.61521817 -2.16836289 2.95989896 0 0 Z " fill="#BB7873" transform="translate(610,233)"/>
<path d="M0 0 C1 3 1 3 -0.14453125 5.8828125 C-0.69496094 6.95273438 -1.24539063 8.02265625 -1.8125 9.125 C-2.35519531 10.20007813 -2.89789063 11.27515625 -3.45703125 12.3828125 C-5 15 -5 15 -7 16 C-6.66666667 14.66666667 -6.33333333 13.33333333 -6 12 C-5.814375 10.9790625 -5.814375 10.9790625 -5.625 9.9375 C-4.87067892 7.59910465 -3.72259661 6.72259661 -2 5 C-0.80972016 2.40084462 -0.80972016 2.40084462 0 0 Z " fill="#B87873" transform="translate(337,190)"/>
<path d="M0 0 C0.33 0 0.66 0 1 0 C1.99 5.94 2.98 11.88 4 18 C3.01 18 2.02 18 1 18 C0.10395632 11.95170514 -0.11269443 6.1105424 0 0 Z " fill="#F7DAD7" transform="translate(810,243)"/>
<path d="M0 0 C-0.886875 0.556875 -1.77375 1.11375 -2.6875 1.6875 C-5.84477329 3.78488486 -8.39036574 6.24538606 -11 9 C-11.66 9.66 -12.32 10.32 -13 11 C-12.38722388 8.03824877 -11.74627478 6.61941217 -10 4 C-9.34 4 -8.68 4 -8 4 C-7.67 3.01 -7.34 2.02 -7 1 C-4.05697101 -0.96201933 -3.48011144 -1.16003715 0 0 Z " fill="#B4807A" transform="translate(625,222)"/>
<path d="M0 0 C0.66 0.33 1.32 0.66 2 1 C-0.65654657 4.73884332 -2.58110387 6.64978174 -7 8 C-7 7.34 -7 6.68 -7 6 C-6.34 6 -5.68 6 -5 6 C-5 5.34 -5 4.68 -5 4 C-3.37373596 2.61767557 -1.7074998 1.28062485 0 0 Z " fill="#F8D9D5" transform="translate(1338,261)"/>
<path d="M0 0 C0.66 0 1.32 0 2 0 C2.17835515 4.54805635 1.99785435 7.8794254 0 12 C-0.33 12 -0.66 12 -1 12 C-1.08159574 7.83861737 -0.98248524 4.0527516 0 0 Z " fill="#BF746F" transform="translate(405,207)"/>
<path d="M0 0 C1.32 0 2.64 0 4 0 C4 0.66 4 1.32 4 2 C0.65060119 4.02558881 -1.86962551 4.21738987 -5.75 4.125 C-6.73484375 4.10695312 -7.7196875 4.08890625 -8.734375 4.0703125 C-9.85585938 4.03550781 -9.85585938 4.03550781 -11 4 C-11 3.67 -11 3.34 -11 3 C-7.7 3 -4.4 3 -1 3 C-0.67 2.01 -0.34 1.02 0 0 Z " fill="#B9736F" transform="translate(790,184)"/>
<path d="M0 0 C0.66 0.33 1.32 0.66 2 1 C1.04454634 2.46022163 0.08553322 3.91811468 -0.875 5.375 C-1.40867187 6.18710938 -1.94234375 6.99921875 -2.4921875 7.8359375 C-4 10 -4 10 -6 12 C-5.29186565 7.04305957 -3.54556225 3.54556225 0 0 Z " fill="#B57471" transform="translate(1298,226)"/>
<path d="M0 0 C0.66 0.33 1.32 0.66 2 1 C0.54550599 2.0055761 -0.91372443 3.00430435 -2.375 4 C-3.59316406 4.8353125 -3.59316406 4.8353125 -4.8359375 5.6875 C-7 7 -7 7 -9 7 C-9 6.34 -9 5.68 -9 5 C-7.35 4.67 -5.7 4.34 -4 4 C-3.67 3.01 -3.34 2.02 -3 1 C-2.01 0.67 -1.02 0.34 0 0 Z " fill="#F8DBD8" transform="translate(338,233)"/>
<path d="M0 0 C0.66 0.33 1.32 0.66 2 1 C-0.65654657 4.73884332 -2.58110387 6.64978174 -7 8 C-7 7.01 -7 6.02 -7 5 C-4.625 3.4375 -4.625 3.4375 -2 2 C-1.34 1.34 -0.68 0.68 0 0 Z " fill="#F7D2CF" transform="translate(1227,217)"/>
<path d="M0 0 C1.32 0.33 2.64 0.66 4 1 C1.79020692 3.81939117 -0.40062046 6.53058944 -3 9 C-2.67 7.02 -2.34 5.04 -2 3 C-1.34 3 -0.68 3 0 3 C0 2.01 0 1.02 0 0 Z " fill="#BC7773" transform="translate(842,227)"/>
<path d="M0 0 C0.598125 0.226875 1.19625 0.45375 1.8125 0.6875 C1.19375 0.89375 0.575 1.1 -0.0625 1.3125 C-3.03403645 3.23525888 -3.31774659 5.35344527 -4.1875 8.6875 C-4.8475 8.3575 -5.5075 8.0275 -6.1875 7.6875 C-5.82037028 4.97074005 -5.46005401 3.07686287 -3.875 0.8125 C-2.1875 -0.3125 -2.1875 -0.3125 0 0 Z " fill="#BC7771" transform="translate(1414.1875,218.3125)"/>
<path d="M0 0 C0.66 0.33 1.32 0.66 2 1 C-2.455 4.465 -2.455 4.465 -7 8 C-7.33 7.01 -7.66 6.02 -8 5 C-7.360625 4.896875 -6.72125 4.79375 -6.0625 4.6875 C-5.381875 4.460625 -4.70125 4.23375 -4 4 C-3.67 3.01 -3.34 2.02 -3 1 C-2.01 0.67 -1.02 0.34 0 0 Z " fill="#F9DDDC" transform="translate(604,203)"/>
<path d="M0 0 C0.66 0.33 1.32 0.66 2 1 C-0.31 3.97 -2.62 6.94 -5 10 C-5.33 9.01 -5.66 8.02 -6 7 C-4.78515625 5.17578125 -4.78515625 5.17578125 -3.0625 3.3125 C-2.49660156 2.68988281 -1.93070312 2.06726563 -1.34765625 1.42578125 C-0.90292969 0.95527344 -0.45820313 0.48476563 0 0 Z " fill="#B67C78" transform="translate(381,260)"/>
<path d="M0 0 C0.99 0.33 1.98 0.66 3 1 C2.67 2.98 2.34 4.96 2 7 C1.01 7 0.02 7 -1 7 C-0.67 4.69 -0.34 2.38 0 0 Z " fill="#C57571" transform="translate(1496,221)"/>
<path d="M0 0 C0.66 0.33 1.32 0.66 2 1 C2.1875 3.875 2.1875 3.875 2 7 C1.01 7.66 0.02 8.32 -1 9 C-0.67 6.03 -0.34 3.06 0 0 Z " fill="#F9E1DD" transform="translate(1519,262)"/>
<path d="M0 0 C0.66 0 1.32 0 2 0 C0.66666667 3.33333333 -0.66666667 6.66666667 -2 10 C-2.6875 8.375 -2.6875 8.375 -3 6 C-1.5625 2.75 -1.5625 2.75 0 0 Z " fill="#F8DAD7" transform="translate(1270,220)"/>
<path d="M0 0 C6.52307692 0.61538462 6.52307692 0.61538462 8.9375 2.5625 C9.288125 3.036875 9.63875 3.51125 10 4 C6.13304322 4 3.4911548 2.58090029 0 1 C0 0.67 0 0.34 0 0 Z " fill="#F8DFDB" transform="translate(1336,198)"/>
<path d="M0 0 C-7.5 5 -7.5 5 -11 5 C-10 2 -10 2 -7.75 0.8125 C-5.00208853 0.00061706 -2.84552111 -0.16260121 0 0 Z " fill="#F8DAD7" transform="translate(617,198)"/>
<path d="M0 0 C0.99 0.33 1.98 0.66 3 1 C-2.75 6 -2.75 6 -5 6 C-5 5.01 -5 4.02 -5 3 C-3.35 2.67 -1.7 2.34 0 2 C0 1.34 0 0.68 0 0 Z " fill="#B87A76" transform="translate(1339,286)"/>
<path d="M0 0 C0.66 0.33 1.32 0.66 2 1 C-0.475 4.465 -0.475 4.465 -3 8 C-3.33 7.01 -3.66 6.02 -4 5 C-2.0625 2.3125 -2.0625 2.3125 0 0 Z " fill="#F8D8D4" transform="translate(356,213)"/>
<path d="M0 0 C0.99 0.33 1.98 0.66 3 1 C0.525 4.465 0.525 4.465 -2 8 C-2.33 6.68 -2.66 5.36 -3 4 C-2.34 4 -1.68 4 -1 4 C-0.67 2.68 -0.34 1.36 0 0 Z " fill="#F9DEDB" transform="translate(1275,212)"/>
</svg>
