<?xml version="1.0" encoding="UTF-8"?>
<svg version="1.1" xmlns="http://www.w3.org/2000/svg" width="408" height="306">
<path d="M0 0 C134.64 0 269.28 0 408 0 C408 100.98 408 201.96 408 306 C273.36 306 138.72 306 0 306 C0 205.02 0 104.04 0 0 Z " fill="#F8DBDB" transform="translate(0,0)"/>
<path d="M0 0 C9.75999661 5.0455556 14.98242508 12.29439851 18.3671875 22.73828125 C18.95279656 24.67783171 19.53201646 26.61932053 20.10546875 28.5625 C25.36373099 45.24066576 32.99846282 60.89825957 44.41796875 74.25 C45.05968018 75.00482666 45.05968018 75.00482666 45.71435547 75.77490234 C62.17093845 94.95745874 84.26823919 108.31534229 109.89233398 110.5534668 C113.4690945 110.68621614 117.0264173 110.71745523 120.60546875 110.6875 C122.50413696 110.67722778 122.50413696 110.67722778 124.44116211 110.66674805 C150.95844663 110.2152389 173.84911002 100.00696584 192.41796875 81.25 C193.19527344 80.49460937 193.97257813 79.73921875 194.7734375 78.9609375 C209.93486452 63.34332595 219.87952126 41.12176549 225.86035156 20.45385742 C228.2158474 12.68300066 232.00360072 6.20277724 239.04296875 1.8125 C239.77773438 1.33941406 240.5125 0.86632812 241.26953125 0.37890625 C248.16390681 -3.24377473 258.01475301 -2.99312423 265.37890625 -0.9140625 C273.36154437 2.74567006 278.46797138 8.43688137 281.79296875 16.5 C290.40166956 40.00549613 280.0931994 65.9027912 270.42089844 87.47363281 C268.23743404 92.14750924 265.8644315 96.70937438 263.41796875 101.25 C263.0715332 101.90274902 262.72509766 102.55549805 262.36816406 103.22802734 C252.11531964 122.46266365 239.35580538 139.40944518 224.41796875 155.25 C223.67675781 156.04535156 222.93554688 156.84070313 222.171875 157.66015625 C212.02110681 168.22068022 200.14680337 176.15529477 187.41796875 183.25 C186.27457031 183.89066406 185.13117188 184.53132812 183.953125 185.19140625 C153.54615981 201.31789523 114.85406807 203.68455467 82.00585938 194.30029297 C48.09389052 183.8769844 20.19295709 160.50122792 -0.58203125 132.25 C-1.54689453 130.94289062 -1.54689453 130.94289062 -2.53125 129.609375 C-23.10066896 100.9508587 -45.41158912 61.65425376 -41.33984375 25.07421875 C-39.62591164 16.62698191 -35.33242898 7.59855372 -28.3828125 2.359375 C-18.99531041 -3.42381501 -10.08686827 -4.50390397 0 0 Z " fill="#DD615A" transform="translate(85.58203125,78.75)"/>
<path d="M0 0 C9.53848355 8.0480955 15.59834325 17.03302048 19 29 C19.33 29.99 19.66 30.98 20 32 C21.05706106 45.82843808 18.81140685 57.91929812 10 69 C9.41347656 69.76054688 8.82695312 70.52109375 8.22265625 71.3046875 C-1.2462543 82.8067997 -16.15521481 90.50338678 -31 92 C-49.58437885 93.41195486 -66.77454101 88.98751124 -81.25 76.8125 C-89.26409045 69.21819524 -93.7233491 60.42891038 -97 50 C-97.495 48.515 -97.495 48.515 -98 47 C-99.32014254 32.12010764 -95.66206498 19.61071674 -86 8 C-85.42765625 7.30390625 -84.8553125 6.6078125 -84.265625 5.890625 C-63.06254374 -17.48713126 -24.58384102 -17.94899756 0 0 Z " fill="#DD615A" transform="translate(246,57)"/>
<path d="M0 0 C0.66 0 1.32 0 2 0 C-4.12458357 19.45067894 -19.33254917 50.22169945 -37 62 C-36.34 60.35 -35.68 58.7 -35 57 C-34.34 57 -33.68 57 -33 57 C-32.90203125 56.42894531 -32.8040625 55.85789063 -32.703125 55.26953125 C-31.8529013 52.5251981 -30.5648651 50.90873707 -28.75 48.6875 C-22.97865445 41.86278458 -22.97865445 41.86278458 -19 34 C-18.34 34 -17.68 34 -17 34 C-16.87625 33.38125 -16.7525 32.7625 -16.625 32.125 C-16 30 -16 30 -14 28 C-13.29289322 26.35008418 -12.62056011 24.68437744 -12 23 C-11.34 23 -10.68 23 -10 23 C-9.87625 22.46375 -9.7525 21.9275 -9.625 21.375 C-8.87793984 18.5361714 -7.94696636 15.77776798 -7 13 C-6.34 13 -5.68 13 -5 13 C-4.855625 12.236875 -4.71125 11.47375 -4.5625 10.6875 C-4 8 -4 8 -3 5 C-2.34 5 -1.68 5 -1 5 C-0.67 3.35 -0.34 1.7 0 0 Z " fill="#C0736D" transform="translate(355,162)"/>
<path d="M0 0 C4.44132066 4.44132066 4.20299813 11.2411495 4.375 17.1875 C4.19392492 28.56127845 1.09242177 38.10580827 -6 47 C-6.60972656 47.77214844 -7.21945313 48.54429688 -7.84765625 49.33984375 C-12.22748957 54.57300444 -16.93682277 58.7923025 -23 62 C-23.66 62 -24.32 62 -25 62 C-24 59 -24 59 -21.0625 57.4375 C-12.78048073 52.97136978 -6.51526604 45.62838028 -3 37 C-2.34 37 -1.68 37 -1 37 C-0.67 33.7 -0.34 30.4 0 27 C0.66 27 1.32 27 2 27 C2.29318331 16.32334319 2.29318331 16.32334319 0.4375 5.8671875 C0 4 0 4 0 0 Z " fill="#C57C77" transform="translate(262,79)"/>
<path d="M0 0 C4.34464536 0.60825035 8.67551867 1.26167392 13 2 C13 2.66 13 3.32 13 4 C28.345 3.505 28.345 3.505 44 3 C44 3.33 44 3.66 44 4 C28.56864846 8.24646529 14.79222772 6.1837594 0 1 C0 0.67 0 0.34 0 0 Z " fill="#C77673" transform="translate(181,143)"/>
<path d="M0 0 C0.66 0.33 1.32 0.66 2 1 C1.59007812 1.66386719 1.18015625 2.32773438 0.7578125 3.01171875 C-0.05042969 4.33623047 -0.05042969 4.33623047 -0.875 5.6875 C-1.40867187 6.55761719 -1.94234375 7.42773438 -2.4921875 8.32421875 C-9.16307292 20.16244806 -7.31535314 33.96391085 -6 47 C-9.87957796 41.18063306 -9.21924385 35.52404193 -9.25 28.75 C-9.270625 27.62980469 -9.29125 26.50960937 -9.3125 25.35546875 C-9.35409503 16.54772019 -7.85732217 11.34946536 -2.8125 4.0625 C-2.28269531 3.29035156 -1.75289062 2.51820312 -1.20703125 1.72265625 C-0.80871094 1.15417969 -0.41039062 0.58570312 0 0 Z " fill="#F5C7C3" transform="translate(52,84)"/>
<path d="M0 0 C-4.64853486 2.69936534 -9.31393213 5.36631768 -14 8 C-14.90234375 8.50789063 -15.8046875 9.01578125 -16.734375 9.5390625 C-22.91795238 12.83292888 -29.16057593 14.55455471 -36 16 C-33.30158069 12.60457201 -29.95121789 11.69468 -25.9375 10.3125 C-25.30005859 10.08755859 -24.66261719 9.86261719 -24.00585938 9.63085938 C-19.30164799 8 -19.30164799 8 -17 8 C-17 7.34 -17 6.68 -17 6 C-15.02 5.67 -13.04 5.34 -11 5 C-11 4.34 -11 3.68 -11 3 C-9.73581754 2.30034557 -8.46334598 1.61565237 -7.1875 0.9375 C-6.47980469 0.55464844 -5.77210938 0.17179687 -5.04296875 -0.22265625 C-3 -1 -3 -1 0 0 Z " fill="#BF726C" transform="translate(283,256)"/>
<path d="M0 0 C5.44693314 -0.09688221 10.63904667 -0.12862175 16 1 C16 1.66 16 2.32 16 3 C24.58 3 33.16 3 42 3 C42 3.33 42 3.66 42 4 C38.10808373 4.07544723 34.21646377 4.12919723 30.32397461 4.16479492 C28.36622098 4.18689361 26.40866938 4.2250566 24.45117188 4.26367188 C15.88594469 4.32905529 8.24581872 3.32363906 0 1 C0 0.67 0 0.34 0 0 Z " fill="#F3B6B3" transform="translate(179,186)"/>
<path d="M0 0 C0.33 0.99 0.66 1.98 1 3 C-4.32248605 9.36685093 -9.55123259 15.12601103 -17 19 C-17.66 19 -18.32 19 -19 19 C-17.76595361 15.29786083 -16.4631392 15.18004261 -13.18359375 13.44140625 C-8.32723108 10.23568563 -2.62698497 5.25396994 0 0 Z " fill="#C07370" transform="translate(256,122)"/>
<path d="M0 0 C0.66 0 1.32 0 2 0 C0.34136495 4.32504836 -2.871041 7.09418825 -6.125 10.25 C-6.68832031 10.80429688 -7.25164062 11.35859375 -7.83203125 11.9296875 C-9.21686028 13.29104485 -10.60783204 14.64614859 -12 16 C-12 13 -12 13 -11 11 C-10.34 11 -9.68 11 -9 11 C-9 10.34 -9 9.68 -9 9 C-7.5390625 7.59765625 -7.5390625 7.59765625 -5.625 6.0625 C-3.16098476 4.08013383 -1.79533563 2.69300345 0 0 Z " fill="#BB7570" transform="translate(316,224)"/>
<path d="M0 0 C1.6852084 4.07679159 0.16939007 6.83075593 -1.4375 10.75 C-1.91058594 11.92046875 -2.38367188 13.0909375 -2.87109375 14.296875 C-3.24363281 15.18890625 -3.61617188 16.0809375 -4 17 C-4.33 17 -4.66 17 -5 17 C-5.125 11.25 -5.125 11.25 -4 9 C-3.34 9 -2.68 9 -2 9 C-1.7834375 7.329375 -1.7834375 7.329375 -1.5625 5.625 C-1 2 -1 2 0 0 Z " fill="#C3736D" transform="translate(364,139)"/>
<path d="M0 0 C6.33393082 -0.34548714 11.10261508 0.70657253 17 3 C13.12813552 4.44715727 10.1767672 3.5441918 6.25 2.5625 C5.07953125 2.27503906 3.9090625 1.98757813 2.703125 1.69140625 C1.81109375 1.46324219 0.9190625 1.23507812 0 1 C0 0.67 0 0.34 0 0 Z " fill="#CD7C77" transform="translate(168,272)"/>
<path d="M0 0 C-0.53625 0.2475 -1.0725 0.495 -1.625 0.75 C-4.15958472 2.03175548 -4.15958472 2.03175548 -7 4 C-9.30846532 5.53897688 -11.49148055 6.84222179 -14 8 C-14 7.34 -14 6.68 -14 6 C-13.34 6 -12.68 6 -12 6 C-11.67 5.01 -11.34 4.02 -11 3 C-7.22022332 0.68059158 -4.43915044 -0.39168975 0 0 Z " fill="#F5C3C2" transform="translate(333,77)"/>
<path d="M0 0 C-3.79541663 2.21399303 -7.75629421 3.00980198 -12 4 C-8.07829422 -0.09996514 -5.68430095 -0.10526483 0 0 Z " fill="#C47A77" transform="translate(259,268)"/>
<path d="M0 0 C1.45945288 0.08708669 2.91765868 0.19526907 4.375 0.3125 C5.59316406 0.39951172 5.59316406 0.39951172 6.8359375 0.48828125 C9 1 9 1 11 4 C3.375 2.25 3.375 2.25 0 0 Z " fill="#D07B77" transform="translate(156,268)"/>
</svg>
